o convex_0
v -0.050547 -0.014297 0.009011
v 0.073714 0.042803 0.019076
v 0.073714 0.042803 0.014609
v 0.084907 0.005864 0.019076
v -0.022556 -0.010932 0.041473
v -0.009127 -0.014297 -0.005544
v 0.004302 0.028243 0.012366
v 0.071463 0.030479 -0.003311
v 0.061387 0.031602 0.036987
v -0.022556 0.011453 0.032511
v 0.005420 0.020407 -0.002184
v 0.093865 0.019289 0.029156
v 0.004302 -0.014297 0.032511
v 0.090496 0.015930 0.003409
v 0.023336 0.031602 0.034749
v 0.096101 0.034962 0.020198
v 0.039000 0.039439 0.010128
v -0.024807 -0.008696 -0.006661
v -0.030396 0.008094 0.010128
v -0.047194 -0.014297 0.032511
v 0.013275 -0.014291 0.012366
v 0.063638 0.010335 0.034749
v 0.004302 0.011453 0.041473
v 0.065874 0.015930 -0.004423
v 0.098336 0.030479 0.009011
v 0.073714 0.030479 0.036992
v 0.032293 0.017042 -0.006661
v 0.081539 0.006982 0.009011
v -0.043825 -0.001978 0.021315
v 0.056916 0.036079 0.000054
v -0.041590 -0.012055 -0.002184
v 0.042354 0.040557 0.023553
v 0.099454 0.017054 0.015726
v 0.071463 0.039439 0.030272
v -0.016967 0.018166 0.023553
v 0.087143 0.009217 0.025791
v 0.086025 0.038321 0.006769
v -0.016967 -0.014297 0.040347
v 0.066992 0.023766 0.038113
v -0.021438 0.000263 0.040347
v 0.014393 0.032720 0.021315
v 0.079303 0.011459 0.001171
v 0.097218 0.030479 0.025791
v -0.016967 0.012571 0.002292
v 0.084907 0.024884 -0.001068
v -0.000169 -0.014297 -0.002184
v 0.036765 0.030479 -0.002184
v 0.002066 -0.001978 0.041473
v -0.014731 -0.014297 -0.006661
v 0.013275 -0.014291 0.023553
v 0.023336 0.032720 0.004530
v 0.009906 0.015925 -0.005544
v -0.028160 0.000263 -0.002184
v 0.011024 0.020402 0.039225
v 0.039000 0.036079 0.033627
v 0.089379 0.039439 0.020198
v 0.062520 0.005864 0.032511
v -0.044958 -0.007573 0.005652
v -0.011378 0.019289 0.007890
v 0.088261 0.020407 0.032511
v 0.006538 0.028243 0.028034
v 0.074832 0.039439 0.004530
v 0.075949 0.036079 0.033632
v -0.028160 0.011453 0.023553
f 59 19 64 
f 1 6 13 
f 1 13 20 
f 9 23 26 
f 8 24 27 
f 4 21 28 
f 1 20 29 
f 20 10 29 
f 2 3 32 
f 3 17 32 
f 14 25 33 
f 4 28 33 
f 28 14 33 
f 2 32 34 
f 13 4 36 
f 4 33 36 
f 33 12 36 
f 16 25 37 
f 5 20 38 
f 20 13 38 
f 26 23 39 
f 20 5 40 
f 10 20 40 
f 5 23 40 
f 17 7 41 
f 15 32 41 
f 32 17 41 
f 7 35 41 
f 6 24 42 
f 14 28 42 
f 25 16 43 
f 12 33 43 
f 33 25 43 
f 24 8 45 
f 25 14 45 
f 8 37 45 
f 37 25 45 
f 42 24 45 
f 14 42 45 
f 13 6 46 
f 21 13 46 
f 28 21 46 
f 6 42 46 
f 42 28 46 
f 8 27 47 
f 30 8 47 
f 23 5 48 
f 5 38 48 
f 38 22 48 
f 22 39 48 
f 39 23 48 
f 6 1 49 
f 24 6 49 
f 18 27 49 
f 27 24 49 
f 1 31 49 
f 31 18 49 
f 4 13 50 
f 21 4 50 
f 13 21 50 
f 7 17 51 
f 17 30 51 
f 47 11 51 
f 30 47 51 
f 27 18 52 
f 11 47 52 
f 47 27 52 
f 18 31 53 
f 44 11 53 
f 19 44 53 
f 11 52 53 
f 52 18 53 
f 15 10 54 
f 23 9 54 
f 10 40 54 
f 40 23 54 
f 32 15 55 
f 34 32 55 
f 54 9 55 
f 15 54 55 
f 3 2 56 
f 2 34 56 
f 37 3 56 
f 16 37 56 
f 43 16 56 
f 13 36 57 
f 38 13 57 
f 22 38 57 
f 29 19 58 
f 1 29 58 
f 31 1 58 
f 53 31 58 
f 19 53 58 
f 35 7 59 
f 11 44 59 
f 44 19 59 
f 7 51 59 
f 51 11 59 
f 36 12 60 
f 39 22 60 
f 26 39 60 
f 12 43 60 
f 43 26 60 
f 57 36 60 
f 22 57 60 
f 10 15 61 
f 35 10 61 
f 15 41 61 
f 41 35 61 
f 17 3 62 
f 8 30 62 
f 30 17 62 
f 3 37 62 
f 37 8 62 
f 9 26 63 
f 26 43 63 
f 55 9 63 
f 34 55 63 
f 56 34 63 
f 43 56 63 
f 29 10 64 
f 19 29 64 
f 10 35 64 
f 35 59 64 
o convex_1
v -0.061757 -0.045655 0.012372
v -0.019216 -0.014297 0.040353
v -0.032651 -0.014297 0.040353
v -0.030410 -0.014297 -0.006670
v -0.044957 -0.083713 0.021311
v -0.019211 -0.036699 0.002287
v -0.053915 -0.022138 0.030273
v -0.047197 -0.051240 0.000050
v -0.055035 -0.052355 0.032515
v -0.049438 -0.014297 0.004529
v -0.019211 -0.038942 0.026917
v -0.019216 -0.014297 -0.006670
v -0.050558 -0.080349 0.014609
v -0.053915 -0.038942 0.000050
v -0.036011 -0.046769 0.035870
v -0.031530 -0.043419 -0.002192
v -0.052799 -0.014297 0.022434
v -0.059516 -0.053483 0.028036
v -0.061757 -0.034457 0.016842
v -0.043837 -0.082585 0.017960
v -0.048318 -0.082585 0.023553
v -0.019216 -0.032215 0.033633
v -0.037132 -0.024373 0.040353
v -0.039368 -0.032215 -0.005547
v -0.019211 -0.041170 0.010126
v -0.057276 -0.057960 0.007889
v -0.052799 -0.080349 0.020197
v -0.050558 -0.025495 -0.001069
v -0.057276 -0.025495 0.007889
v -0.046077 -0.017660 0.035870
v -0.059516 -0.040049 0.029154
v -0.019216 -0.024380 -0.005547
v -0.046077 -0.082585 0.015723
v -0.058396 -0.037814 0.004529
v -0.060636 -0.054590 0.014609
v -0.041600 -0.014297 -0.003310
v -0.019211 -0.041170 0.022434
v -0.043837 -0.080349 0.023553
v -0.056155 -0.040049 0.032515
v -0.039368 -0.046769 -0.002192
v -0.028169 -0.026623 -0.006670
v -0.061757 -0.035571 0.021311
v -0.040484 -0.022138 -0.005547
v -0.055035 -0.052355 0.003410
v -0.047197 -0.038942 -0.003310
v -0.055035 -0.017660 0.014609
v -0.019216 -0.033329 -0.001069
v -0.051678 -0.051240 0.033633
v -0.049438 -0.014297 0.030273
v -0.032651 -0.046769 0.034752
v -0.060636 -0.053483 0.023553
v -0.057276 -0.022138 0.020197
v -0.049438 -0.066916 0.029154
v -0.053915 -0.076993 0.016842
v -0.030410 -0.024373 0.040353
v -0.040484 -0.019896 0.039230
v -0.058396 -0.044527 0.004529
v -0.060636 -0.036699 0.009007
v -0.061757 -0.046769 0.022434
v -0.040484 -0.042291 0.036993
v -0.053915 -0.049005 0.033633
v -0.050558 -0.080349 0.023553
v -0.032651 -0.034457 -0.005547
v -0.019216 -0.025495 0.036993
f 114 86 128 
f 67 66 68 
f 67 68 74 
f 70 66 75 
f 68 66 76 
f 66 70 76 
f 67 74 81 
f 66 67 87 
f 70 75 89 
f 84 70 89 
f 69 85 91 
f 74 92 93 
f 76 70 96 
f 77 72 97 
f 84 69 97 
f 69 91 97 
f 91 77 97 
f 92 78 98 
f 93 92 98 
f 65 90 99 
f 74 68 100 
f 92 74 100 
f 75 69 101 
f 69 84 101 
f 89 75 101 
f 84 89 101 
f 69 75 102 
f 85 69 102 
f 79 85 102 
f 75 86 102 
f 82 73 103 
f 94 71 103 
f 95 82 103 
f 71 95 103 
f 97 72 104 
f 80 97 104 
f 68 76 105 
f 88 68 105 
f 76 96 105 
f 83 65 106 
f 95 71 106 
f 68 88 107 
f 100 68 107 
f 92 100 107 
f 72 77 108 
f 77 90 108 
f 78 92 109 
f 104 72 109 
f 88 104 109 
f 107 88 109 
f 92 107 109 
f 72 108 109 
f 108 78 109 
f 81 74 110 
f 74 93 110 
f 93 83 110 
f 70 84 111 
f 96 70 111 
f 80 96 111 
f 97 80 111 
f 84 97 111 
f 67 81 113 
f 81 71 113 
f 71 94 113 
f 94 67 113 
f 79 102 114 
f 102 86 114 
f 91 82 115 
f 99 91 115 
f 71 81 116 
f 106 71 116 
f 83 106 116 
f 81 110 116 
f 110 83 116 
f 85 79 117 
f 112 73 117 
f 90 77 118 
f 77 91 118 
f 99 90 118 
f 91 99 118 
f 79 66 119 
f 66 87 119 
f 87 67 120 
f 67 94 120 
f 94 103 120 
f 90 65 121 
f 98 78 121 
f 78 108 121 
f 108 90 121 
f 65 83 122 
f 83 93 122 
f 93 98 122 
f 121 65 122 
f 98 121 122 
f 82 95 123 
f 65 99 123 
f 106 65 123 
f 95 106 123 
f 115 82 123 
f 99 115 123 
f 117 79 124 
f 112 117 124 
f 79 119 124 
f 119 87 124 
f 103 73 125 
f 73 112 125 
f 87 120 125 
f 120 103 125 
f 124 87 125 
f 112 124 125 
f 73 82 126 
f 82 91 126 
f 91 85 126 
f 117 73 126 
f 85 117 126 
f 96 80 127 
f 104 88 127 
f 80 104 127 
f 88 105 127 
f 105 96 127 
f 75 66 128 
f 66 79 128 
f 86 75 128 
f 79 114 128 
o convex_2
v -0.019211 -0.014297 -0.006670
v 0.012138 -0.014297 0.020195
v 0.012138 -0.015418 0.020195
v -0.019211 -0.014297 0.039234
v -0.019211 -0.040048 0.021319
v -0.018091 -0.034447 0.001171
v 0.000940 -0.015418 0.000052
v 0.000940 -0.015418 0.033635
v -0.018091 -0.031087 0.033635
v -0.018091 -0.038926 0.007888
v 0.008778 -0.015418 0.007888
v -0.018091 -0.037804 0.026917
v -0.019211 -0.023258 -0.005547
v 0.009898 -0.015418 0.025790
v -0.004654 -0.014297 -0.003309
v -0.018091 -0.040048 0.021319
v -0.013611 -0.018779 0.038110
v 0.012138 -0.015418 0.015729
v -0.018091 -0.040048 0.011245
v -0.003537 -0.014297 0.035873
v -0.019211 -0.037804 0.005646
v -0.018091 -0.029970 -0.002190
v -0.019211 -0.024374 0.036987
v 0.004297 -0.015418 0.031393
v -0.010254 -0.015418 -0.005547
v 0.008778 -0.014297 0.007888
v -0.005774 -0.016540 -0.003309
v -0.014731 -0.015418 0.039234
v -0.019211 -0.031087 0.033635
v 0.004297 -0.014297 0.031393
v 0.011018 -0.015418 0.012364
v -0.003537 -0.015418 0.035873
v -0.018091 -0.037804 0.005646
v -0.018091 -0.023258 -0.005547
v -0.019211 -0.018779 0.039234
v -0.019211 -0.033328 0.000052
v -0.018091 -0.017657 -0.006670
v -0.018091 -0.038926 0.024675
v 0.011018 -0.015418 0.023556
f 142 166 167 
f 130 129 132 
f 132 129 133 
f 134 135 139 
f 133 129 141 
f 129 130 143 
f 130 131 146 
f 131 144 146 
f 146 144 147 
f 144 133 147 
f 130 132 148 
f 133 141 149 
f 147 133 149 
f 138 147 149 
f 135 134 150 
f 132 133 151 
f 137 145 151 
f 136 137 152 
f 137 140 152 
f 140 142 152 
f 129 143 153 
f 139 135 154 
f 143 130 154 
f 135 143 154 
f 130 146 154 
f 143 135 155 
f 135 150 155 
f 153 143 155 
f 148 132 156 
f 133 140 157 
f 140 137 157 
f 151 133 157 
f 137 151 157 
f 142 130 158 
f 130 148 158 
f 148 136 158 
f 136 152 158 
f 152 142 158 
f 138 139 159 
f 146 147 159 
f 147 138 159 
f 139 154 159 
f 154 146 159 
f 137 136 160 
f 145 137 160 
f 136 148 160 
f 148 156 160 
f 156 145 160 
f 134 139 161 
f 139 138 161 
f 149 134 161 
f 138 149 161 
f 150 141 162 
f 155 150 162 
f 153 155 162 
f 132 151 163 
f 151 145 163 
f 156 132 163 
f 145 156 163 
f 134 149 164 
f 149 141 164 
f 150 134 164 
f 141 150 164 
f 141 129 165 
f 129 153 165 
f 162 141 165 
f 153 162 165 
f 140 133 166 
f 142 140 166 
f 133 144 166 
f 166 144 167 
f 131 130 167 
f 130 142 167 
f 144 131 167 
