# https://github.com/mikedh/trimesh
v -0.01828896 -0.02121313 0.01415976
v -0.01177065 -0.01582493 0.00881639
v -0.00606714 -0.02386099 0.01418525
v -0.03341828 -0.00115147 0.01259583
v -0.02771400 0.00495216 0.00843887
v -0.03664216 0.00902610 0.01467826
v -0.02643683 -0.01093620 0.01124369
v -0.02277029 -0.00889923 0.00917207
v -0.01177065 0.00047083 0.00664861
v 0.00146411 -0.00930662 0.00812032
v -0.03152411 -0.01946457 0.03214320
v -0.03132556 -0.01906317 0.04838084
v -0.02588424 -0.02052329 0.02108334
v -0.01360393 -0.02686146 0.02156270
v -0.01828896 -0.02877787 0.03371467
v 0.00126595 -0.02760373 0.02067806
v -0.00932629 -0.03040619 0.03127030
v -0.02362900 -0.02536090 0.04377732
v 0.00045116 -0.03038453 0.03493685
v -0.00973369 -0.03023268 0.04349212
v -0.03451463 -0.01227114 0.02230338
v -0.03783075 -0.00238093 0.01876787
v -0.04051686 -0.00604747 0.02882594
v -0.04124223 0.00413737 0.02406818
v -0.04338194 0.01085937 0.03432576
v -0.03893676 -0.01096274 0.03788893
v -0.04319012 -0.00278832 0.03860339
v -0.04366775 0.01024828 0.04349212
v -0.01740021 -0.02771493 0.04757918
v -0.01584459 -0.02307156 0.05953816
v -0.00851151 -0.02883355 0.05001042
v 0.00042163 -0.02321310 0.05909115
v -0.01380762 -0.01607161 0.06578189
v -0.00347433 -0.01502455 0.06572958
v -0.03782198 -0.00926138 0.05163999
v -0.04158429 0.00118377 0.05120667
v -0.02631782 -0.01381302 0.06121862
v -0.03563950 -0.00111648 0.06104307
v -0.02399247 -0.00919484 0.06546918
v -0.01299284 -0.00319572 0.07105793
v -0.02523581 0.00698913 0.06956533
v -0.01177065 0.01513701 0.07338862
v -0.03111467 0.01555755 0.01066448
v -0.03579720 0.01845809 0.01655145
v -0.02815919 0.02502105 0.01252791
v -0.02643683 0.01316717 0.00814007
v -0.00851150 0.02165531 0.00732702
v 0.00289552 0.01676658 0.00731506
v -0.02032593 0.02789362 0.01018824
v -0.02159563 0.03376751 0.01558887
v -0.00750762 0.03223993 0.01034882
v -0.01075217 0.03669645 0.01473692
v -0.04028620 0.01432222 0.02303331
v -0.03242740 0.02870944 0.02146313
v -0.03899346 0.02340211 0.03004812
v -0.03420930 0.03132484 0.03289988
v -0.03936396 0.02421474 0.04023007
v -0.02857684 0.03679043 0.03891825
v -0.01853650 0.03909736 0.02219050
v -0.02650489 0.03754296 0.03057402
v -0.01828896 0.04275573 0.03371467
v -0.00851151 0.04226451 0.02393721
v -0.02426931 0.03818371 0.04756606
v -0.00199320 0.04477181 0.03289988
v -0.00952999 0.04413457 0.04389951
v -0.03922454 0.01330373 0.05693155
v -0.03593845 0.02818420 0.04680376
v -0.03222244 0.02290383 0.06111098
v -0.03485475 0.01350743 0.06304702
v -0.02527717 0.01644304 0.06893343
v -0.02485648 0.03232811 0.05901360
v -0.02114448 0.02735882 0.06548362
v -0.00117842 0.04251693 0.04838084
v -0.01157825 0.04024256 0.05652697
v -0.01319653 0.03731829 0.06047988
v 0.00646022 0.03901477 0.05377277
v -0.00851151 0.02165531 0.07222460
v 0.00778425 -0.01256578 0.00966533
v 0.01504165 -0.01803912 0.01749323
v 0.01512359 -0.01265589 0.01277353
v 0.01694928 -0.00197353 0.00997296
v 0.02386246 -0.00509872 0.01650714
v 0.00452510 0.00017375 0.00727225
v 0.02271181 0.00372998 0.01241308
v 0.01756170 0.01072254 0.00991367
v 0.01170123 -0.02505348 0.02597418
v 0.00762124 -0.02879195 0.03697382
v 0.01866165 -0.01944079 0.02536309
v 0.01968359 -0.02117498 0.03778860
v 0.02572379 -0.01330884 0.03819600
v 0.02531194 -0.01035023 0.02429643
v 0.03083302 -0.00072631 0.03025182
v 0.02915265 0.00210040 0.02067806
v 0.02951591 0.01187786 0.02149285
v 0.03254060 0.00861870 0.03167770
v 0.03031483 -0.00523269 0.04186254
v 0.03237153 0.00372998 0.04267733
v 0.00432140 -0.02798078 0.04838084
v 0.01313424 -0.02380644 0.04716186
v 0.02275967 -0.01582493 0.04675127
v 0.00737685 -0.01671862 0.06267718
v 0.01319901 -0.01821459 0.05742253
v 0.01723971 -0.00949377 0.06177235
v 0.02315491 -0.00504202 0.05875822
v 0.01299781 0.00315296 0.06865229
v 0.02468187 0.01187785 0.06190879
v 0.02913840 0.00014951 0.05336480
v 0.02940663 0.01164788 0.05421184
v 0.00299479 0.00103180 0.07108509
v 0.01580433 0.02002573 0.01044018
v 0.00410671 0.02837808 0.00961920
v 0.00391017 0.03553553 0.01465698
v 0.02041598 0.02494606 0.01585424
v 0.02587107 0.01350743 0.01566391
v 0.01297664 0.03578397 0.02038912
v 0.02119512 0.02961609 0.02150811
v 0.01770015 0.03611181 0.03004812
v 0.02714001 0.02328488 0.02393721
v 0.03249089 0.01391482 0.03941818
v 0.03005766 0.01794646 0.04897031
v 0.02570958 0.02925694 0.03697382
v 0.01474162 0.03697649 0.04845619
v 0.00776411 0.04251018 0.03289988
v 0.00963775 0.04121021 0.04186254
v 0.02395405 0.02980319 0.04675127
v 0.01840530 0.02941264 0.05651657
v 0.02245042 0.01649688 0.06293643
v 0.00289552 0.02980319 0.06573692
v 0.00850804 0.01921094 0.07011440
v 0.00615467 0.01597704 0.07158421
f 48 111 110
f 42 40 109
f 97 95 119
f 75 63 71
f 25 27 28
f 64 124 123
f 61 62 59
f 110 114 85
f 27 23 26
f 47 51 111
f 43 5 4
f 5 46 47
f 47 9 5
f 92 95 97
f 16 17 14
f 78 2 10
f 43 45 49
f 49 46 43
f 75 77 128
f 61 58 63
f 64 61 65
f 66 68 67
f 57 25 28
f 60 58 61
f 49 47 46
f 51 47 49
f 116 113 115
f 110 112 113
f 48 47 111
f 27 25 24
f 36 28 27
f 47 48 9
f 48 83 9
f 21 4 7
f 93 95 92
f 88 91 90
f 82 92 91
f 26 23 21
f 15 29 18
f 11 15 12
f 20 15 17
f 15 14 17
f 122 76 126
f 117 118 116
f 119 120 108
f 77 42 130
f 130 42 109
f 44 45 43
f 6 44 43
f 57 67 58
f 56 58 60
f 75 76 74
f 106 107 108
f 42 77 70
f 57 55 25
f 57 58 56
f 113 116 118
f 52 59 62
f 123 117 115
f 117 123 122
f 122 123 124
f 59 60 61
f 59 52 50
f 49 50 51
f 50 45 54
f 54 59 50
f 114 94 93
f 78 10 81
f 112 115 113
f 62 115 112
f 52 62 112
f 85 48 110
f 26 35 27
f 83 85 81
f 48 85 83
f 81 10 83
f 10 9 83
f 82 80 81
f 78 80 79
f 79 3 78
f 13 21 7
f 90 91 92
f 96 90 92
f 94 118 95
f 80 82 79
f 91 79 82
f 22 4 21
f 23 22 21
f 11 21 13
f 20 29 15
f 12 15 18
f 31 20 98
f 11 13 15
f 79 88 86
f 16 14 3
f 3 79 16
f 122 126 125
f 117 121 118
f 119 118 120
f 121 125 120
f 116 115 117
f 127 126 129
f 105 129 130
f 105 130 109
f 35 38 36
f 46 5 43
f 71 67 68
f 77 75 72
f 75 71 72
f 68 72 71
f 72 68 70
f 68 66 69
f 28 36 66
f 66 57 28
f 67 57 66
f 45 44 54
f 118 121 120
f 62 64 123
f 62 61 64
f 124 64 73
f 76 124 73
f 121 117 122
f 60 59 54
f 49 45 50
f 62 123 115
f 112 51 52
f 36 27 35
f 12 26 11
f 6 43 4
f 14 13 1
f 13 7 1
f 97 119 108
f 89 86 88
f 88 79 91
f 24 23 27
f 29 30 18
f 20 31 29
f 30 29 31
f 79 86 16
f 2 78 3
f 74 73 65
f 129 126 128
f 128 126 76
f 121 122 125
f 100 89 90
f 99 87 89
f 107 106 104
f 34 40 33
f 105 109 101
f 102 103 101
f 108 127 106
f 103 104 106
f 105 106 129
f 69 38 41
f 41 70 69
f 36 38 66
f 128 77 129
f 63 65 61
f 55 53 25
f 57 56 55
f 51 50 52
f 73 74 76
f 60 54 56
f 93 94 95
f 118 94 114
f 114 113 118
f 81 84 82
f 93 82 84
f 93 84 114
f 110 111 112
f 113 114 110
f 2 8 9
f 10 2 9
f 5 9 8
f 78 81 80
f 4 5 7
f 7 5 8
f 7 2 1
f 96 107 100
f 107 104 100
f 100 90 96
f 118 119 95
f 89 88 90
f 24 22 23
f 17 16 19
f 98 87 99
f 102 100 103
f 106 127 129
f 127 108 120
f 105 103 106
f 69 70 68
f 58 67 63
f 128 76 75
f 37 30 33
f 39 38 37
f 40 42 41
f 77 72 70
f 44 53 55
f 114 84 85
f 92 82 93
f 21 11 26
f 111 51 112
f 8 2 7
f 96 97 107
f 97 108 107
f 97 96 92
f 86 89 87
f 17 19 20
f 87 98 19
f 15 13 14
f 19 16 87
f 2 3 1
f 40 34 109
f 127 120 126
f 120 125 126
f 38 69 66
f 42 70 41
f 41 38 39
f 6 53 44
f 75 74 63
f 39 33 40
f 98 101 32
f 101 98 102
f 65 73 64
f 63 74 65
f 71 63 67
f 56 54 55
f 76 122 124
f 81 85 84
f 3 14 1
f 37 38 35
f 30 12 18
f 4 22 6
f 20 19 98
f 32 30 31
f 100 99 89
f 32 101 34
f 105 101 103
f 130 129 77
f 40 41 39
f 32 33 30
f 33 32 34
f 12 30 37
f 32 31 98
f 99 102 98
f 44 55 54
f 86 87 16
f 12 35 26
f 39 37 33
f 104 103 100
f 37 35 12
f 6 24 53
f 25 53 24
f 24 6 22
f 102 99 100
f 34 101 109

