# https://github.com/mikedh/trimesh
v -0.01770465 -0.03567288 -0.00206174
v -0.03287131 -0.03415210 0.00096151
v -0.01578057 -0.04117919 0.00083573
v -0.01000831 -0.03567288 -0.00238694
v -0.02924915 -0.02797654 -0.00240912
v -0.03976542 -0.02605246 0.00092801
v -0.03570114 -0.01931817 -0.00089174
v -0.02540099 -0.01643204 -0.00410500
v -0.01770465 -0.02797654 -0.00418421
v -0.01000831 -0.02797654 -0.00416622
v -0.02540099 0.00473289 -0.00233138
v -0.01385648 -0.01065979 -0.00541877
v -0.04143129 -0.03334585 0.00613035
v -0.03972366 -0.03646246 0.01142158
v -0.03575525 -0.03714409 0.00613035
v -0.01281217 -0.04572481 0.00478261
v -0.01225614 -0.04733824 0.00805444
v -0.01193240 -0.04848047 0.01671281
v -0.04371392 -0.02797654 0.00420627
v -0.04479540 -0.03088603 0.01166209
v -0.04198445 -0.01883715 0.00319209
v -0.04497209 -0.01977162 0.00749570
v -0.04656615 -0.02509042 0.01178235
v -0.04570655 -0.01931817 0.01286465
v -0.03695869 -0.03731229 0.03910774
v -0.04075018 -0.03553396 0.03595366
v -0.03886957 -0.03480106 0.05038429
v -0.00808423 -0.04873687 0.03787774
v -0.01385648 -0.04702999 0.04172591
v -0.01629750 -0.04522756 0.04855535
v -0.00712219 -0.04718387 0.04653612
v -0.01770465 -0.04375955 0.05083362
v -0.00904627 -0.04530618 0.05087538
v -0.01044934 -0.04242988 0.05249879
v -0.04523266 -0.03084946 0.03499161
v -0.04688024 -0.02711461 0.03451059
v -0.04656591 -0.02194053 0.03883978
v -0.04601998 -0.02797654 0.04461203
v -0.04633750 -0.02230181 0.04364999
v -0.04238991 -0.01686761 0.04939643
v -0.04130534 -0.03039546 0.05290910
v -0.04222883 -0.02533823 0.05275562
v -0.03694549 -0.03278675 0.05350956
v -0.03502141 -0.02509042 0.05476684
v -0.03804386 -0.02412838 0.05449368
v -0.02837025 0.01194820 0.00041933
v -0.01770465 0.00665697 -0.00417929
v -0.01000831 0.00665697 -0.00491077
v -0.01770465 0.02204964 -0.00151991
v -0.01000831 0.02204964 -0.00242951
v -0.01871830 0.02775435 0.00054711
v -0.00808423 0.03195113 0.00152913
v -0.02567427 0.02648302 0.00420627
v -0.02484800 0.03041195 0.00805444
v -0.02677594 0.02782189 0.01190260
v -0.02437962 0.03212350 0.01671281
v -0.02155282 0.03221350 0.00420627
v -0.01505189 0.03448069 0.00354172
v -0.02073688 0.03534834 0.01021903
v -0.01492517 0.03703576 0.00742549
v -0.00134993 0.03326644 0.00416999
v -0.01727842 0.03758554 0.02248507
v -0.02075914 0.03552337 0.02921936
v -0.01385648 0.03856636 0.01190260
v -0.00894651 0.03725427 0.03559289
v -0.02529117 0.02661309 0.04509766
v -0.01578056 0.01627739 0.05324033
v -0.02311850 0.02589781 0.05038429
v -0.02155282 0.02589781 0.05143927
v -0.02540099 0.02889152 0.03787774
v -0.02258348 0.03272197 0.04182789
v -0.01289444 0.03792947 0.03787774
v -0.01914340 0.03492174 0.04403302
v -0.01217291 0.03624114 0.04413101
v -0.00784372 0.03566635 0.04366130
v -0.01880548 0.03171261 0.04895870
v -0.00952729 0.03259013 0.04907572
v -0.00410268 -0.04207734 0.00106696
v -0.00231197 -0.02797654 -0.00303875
v 0.00169896 -0.03782999 0.00099745
v 0.00538436 -0.03182471 0.00118209
v 0.00538436 -0.00873571 -0.00289611
v -0.00231197 -0.00873571 -0.00486690
v 0.01695093 0.00377084 0.00054803
v -0.00375504 -0.04627861 0.00468729
v 0.00241881 -0.04346453 0.00588984
v 0.00644356 -0.03672096 0.00516831
v 0.00655936 -0.03952105 0.00997852
v -0.00441668 -0.04877625 0.01647074
v 0.00063142 -0.04675237 0.01264351
v 0.00404214 -0.04373633 0.01214312
v -0.00327402 -0.04805040 0.04076387
v 0.00326533 -0.04415077 0.04195554
v 0.00668840 -0.03952105 0.03883978
v 0.00065572 -0.04634199 0.04076387
v -0.00038789 -0.04364900 0.05067684
v 0.00530714 -0.03928054 0.04557408
v 0.00380840 -0.03759696 0.05074542
v 0.00153619 -0.03663492 0.05212328
v 0.00923253 -0.00296345 0.05243753
v 0.01308069 -0.00488754 0.05130057
v 0.02206495 0.00473288 0.04653612
v -0.00231197 0.00665697 -0.00474755
v 0.00923253 0.00858106 -0.00278027
v 0.01962243 0.01242922 0.00105996
v 0.00153619 0.01820147 -0.00301818
v 0.00242875 0.02780562 0.00042248
v 0.01522656 0.02035781 0.00025056
v 0.02259793 0.01002412 0.00384909
v 0.02205358 0.02028629 0.00414989
v 0.01692887 0.02586554 0.00424996
v 0.01864562 0.02656157 0.00805444
v 0.02092904 0.02601110 0.01382669
v 0.02462520 0.00841983 0.00783319
v 0.02446818 0.00665697 0.01286465
v 0.02610620 0.01531535 0.01262414
v 0.02430118 0.02153788 0.01070005
v 0.02234573 0.02273123 0.03620145
v 0.02518228 0.01361860 0.03835876
v 0.02434524 0.01866504 0.03968157
v -0.00616015 0.03656194 0.00997852
v 0.01818811 0.02754453 0.01382669
v 0.01692887 0.02659541 0.03643468
v 0.01587267 0.02583361 0.04303619
v 0.02123894 0.01872119 0.04759716
v 0.00538436 0.02589781 0.04985010
v 0.01596682 0.01507484 0.05074883
v 0.02029601 0.01387228 0.04970342
v 0.02278388 0.00479297 0.04364999
v 0.02356130 0.01363177 0.04572550
f 6 2 13
f 44 100 67
f 29 25 18
f 9 5 8
f 9 12 10
f 4 10 79
f 109 84 105
f 106 107 108
f 79 10 83
f 10 12 83
f 79 83 82
f 82 83 104
f 104 103 106
f 106 108 104
f 50 106 48
f 48 106 103
f 15 2 3
f 9 1 5
f 9 10 4
f 4 1 9
f 12 9 8
f 4 79 78
f 81 84 109
f 37 55 24
f 110 105 108
f 99 44 34
f 100 44 99
f 37 24 23
f 37 23 36
f 129 94 115
f 103 104 83
f 12 103 83
f 48 103 12
f 118 117 113
f 14 25 26
f 18 25 14
f 15 13 2
f 3 1 4
f 4 78 3
f 2 1 3
f 47 48 12
f 17 15 16
f 109 114 87
f 81 109 87
f 70 39 66
f 55 22 24
f 55 37 70
f 23 20 36
f 96 34 33
f 31 29 28
f 34 96 99
f 99 98 101
f 101 100 99
f 41 43 44
f 109 105 110
f 44 43 34
f 108 107 111
f 61 112 111
f 61 52 58
f 121 65 122
f 75 123 65
f 122 65 123
f 28 29 18
f 46 21 22
f 114 116 115
f 116 119 115
f 104 84 82
f 105 84 104
f 104 108 105
f 50 48 47
f 47 49 50
f 57 60 58
f 51 57 58
f 51 53 57
f 49 51 50
f 120 117 118
f 36 20 35
f 38 36 35
f 26 35 20
f 81 80 79
f 81 79 82
f 79 80 78
f 86 80 81
f 87 114 88
f 97 102 98
f 128 101 102
f 47 12 8
f 8 11 47
f 37 39 70
f 56 54 55
f 22 55 54
f 54 53 22
f 38 39 37
f 42 39 38
f 32 34 43
f 34 32 33
f 30 31 33
f 30 33 32
f 29 31 30
f 29 30 25
f 27 32 43
f 38 41 42
f 41 35 27
f 130 125 128
f 40 42 68
f 44 45 41
f 40 39 42
f 61 121 112
f 121 122 112
f 111 112 110
f 108 111 110
f 126 75 77
f 19 6 13
f 28 89 92
f 22 53 46
f 59 60 57
f 46 53 51
f 58 52 51
f 51 52 50
f 106 50 52
f 120 116 117
f 119 116 120
f 101 128 100
f 128 127 100
f 15 18 14
f 17 18 15
f 13 15 14
f 14 20 13
f 26 20 14
f 2 5 1
f 6 5 2
f 82 84 81
f 3 16 15
f 78 80 86
f 86 85 78
f 115 88 114
f 94 88 115
f 90 91 95
f 101 98 102
f 8 5 7
f 5 6 7
f 11 8 7
f 46 51 11
f 51 49 11
f 49 47 11
f 66 71 70
f 63 71 73
f 36 38 37
f 32 27 30
f 41 38 35
f 110 117 116
f 45 44 67
f 100 127 67
f 126 124 75
f 125 124 126
f 128 126 127
f 107 52 61
f 61 111 107
f 61 60 121
f 58 60 61
f 117 110 112
f 117 112 113
f 62 63 73
f 75 65 72
f 72 64 62
f 76 77 74
f 73 76 74
f 22 23 24
f 89 28 18
f 96 95 93
f 7 21 46
f 46 11 7
f 19 21 6
f 6 21 7
f 109 116 114
f 88 91 86
f 86 87 88
f 106 52 107
f 124 125 120
f 130 102 129
f 124 123 75
f 87 86 81
f 91 88 94
f 55 70 56
f 70 71 56
f 25 30 27
f 31 92 96
f 33 31 96
f 43 41 27
f 125 126 128
f 102 130 128
f 39 40 66
f 77 69 67
f 67 126 77
f 42 41 45
f 62 64 60
f 122 123 113
f 72 62 73
f 121 60 64
f 74 77 75
f 19 23 22
f 19 20 23
f 89 95 92
f 90 95 89
f 90 89 85
f 31 28 92
f 96 98 99
f 93 97 96
f 94 129 97
f 21 19 22
f 109 110 116
f 119 129 115
f 120 118 124
f 120 130 119
f 124 118 123
f 118 113 123
f 93 94 97
f 91 90 86
f 57 53 54
f 71 68 76
f 67 127 126
f 63 62 59
f 59 56 63
f 54 56 59
f 113 112 122
f 74 72 73
f 65 121 64
f 64 72 65
f 13 20 19
f 17 16 85
f 95 96 92
f 97 98 96
f 97 129 102
f 130 129 119
f 89 18 17
f 85 89 17
f 71 63 56
f 57 54 59
f 27 35 26
f 68 71 66
f 73 71 76
f 67 69 45
f 62 60 59
f 72 74 75
f 76 68 69
f 76 69 77
f 90 85 86
f 125 130 120
f 95 91 93
f 40 68 66
f 26 25 27
f 69 68 42
f 42 45 69
f 16 3 85
f 3 78 85
f 93 91 94

