# https://github.com/mikedh/trimesh
v -0.00153830 -0.00122869 0.02070387
v 0.00019951 0.00630333 -0.01933911
v -0.00136751 -0.00122198 -0.01936173
v 0.00687870 0.00480620 -0.01893063
v 0.00346777 -0.00298406 -0.01881377
v 0.00241227 0.00394902 0.02014019
v -0.00617629 0.00407232 -0.01869666
v -0.00285641 0.01048492 -0.01772334
v 0.00758216 -0.00458475 -0.01711086
v 0.00804504 0.00925860 -0.01738378
v -0.00146390 -0.00880907 -0.01723331
v 0.01066469 0.00221789 -0.01724352
v 0.00610930 -0.00032665 0.01982065
v -0.00101062 0.00575085 0.01981990
v -0.00636836 -0.00558358 -0.01763765
v -0.01019424 0.00728418 -0.01597522
v -0.01159039 0.00202446 -0.01609876
v 0.00498346 -0.00688527 0.01903028
v -0.00787308 -0.00069629 0.01946673
v -0.01222191 -0.00613461 -0.01468762
v 0.00189017 0.01331295 -0.01658583
v -0.00774273 -0.00511306 0.01855867
v -0.00123283 -0.00711799 0.01919896
v 0.00290632 -0.01050021 -0.01589235
v -0.00377104 -0.01253555 -0.01507030
v 0.01317579 0.00672181 -0.01519809
v -0.01028215 -0.01195705 -0.01281103
v 0.01226319 -0.00354530 -0.01499785
v 0.00091815 0.01548399 -0.01388464
v 0.01740992 0.00573372 -0.01108812
v 0.01239490 0.01123415 -0.01387088
v -0.00583057 0.01485994 -0.01310931
v -0.01387097 0.00447567 -0.01411249
v 0.00312273 -0.01521058 -0.01206614
v 0.00823131 -0.01063396 -0.01372260
v 0.01000790 0.01296782 -0.01360642
v -0.00665122 0.00811439 0.01753582
v 0.01642989 -0.00126118 -0.01157658
v 0.00736708 0.00593124 0.01816099
v -0.00628267 -0.01443104 -0.01292289
v -0.01544791 -0.00258643 -0.01303553
v -0.01050924 0.00506140 0.01698500
v 0.00212818 0.00891108 0.01819782
v -0.01080446 0.01259149 -0.01128354
v -0.00166006 -0.01660725 -0.01126093
v 0.01043622 -0.00216799 0.01744032
v 0.01342971 -0.00794561 -0.01154229
v -0.01286708 -0.00483908 0.01595159
v 0.01003049 -0.01294804 -0.01038739
v -0.00303557 0.01865631 -0.00652814
v 0.00332805 -0.01110705 0.01678314
v 0.00863966 -0.00714005 0.01757899
v -0.01784600 -0.00197954 -0.00983982
v 0.01530389 0.01261495 -0.00877020
v -0.01680016 0.00561960 -0.00946379
v -0.01530022 -0.01295159 -0.00826425
v 0.01156861 0.00641426 0.01537211
v 0.01932907 0.00201779 -0.00653896
v -0.00653298 -0.01829482 -0.00771643
v -0.00899172 0.01659457 -0.00487096
v 0.01674343 -0.00724160 -0.00712564
v -0.01459779 0.01133494 -0.00631732
v 0.00152863 -0.01839886 -0.00811534
v -0.01124711 -0.01701473 -0.00683422
v 0.00692891 -0.01722263 -0.00674024
v -0.01973755 -0.00787832 -0.00452711
v -0.01833648 -0.01085779 -0.00608965
v -0.01822925 0.00619763 -0.00357906
v 0.01251197 0.01520163 -0.00714120
v -0.00540264 0.01235858 0.01482254
v 0.01496498 -0.01183950 -0.00407190
v 0.01783026 0.01166203 -0.00264774
v -0.01987762 -0.00214563 -0.00490727
v 0.00875368 0.00968980 0.01554394
v 0.01929327 -0.00251741 -0.00492268
v 0.01092666 -0.01590850 -0.00402566
v 0.00274960 -0.01934712 -0.00352206
v 0.01373269 0.01551324 -0.00264103
v -0.00367907 -0.01967971 -0.00472111
v 0.01980219 0.00651388 -0.00227764
v 0.01811516 -0.00762757 -0.00222239
v -0.01630454 -0.01525314 -0.00324426
v 0.01394526 0.00103963 0.01460058
v 0.01248413 -0.00959376 0.01340979
v -0.01048812 -0.01834396 -0.00093570
v 0.00038573 0.01965855 -0.00184117
v -0.00993404 0.01000065 0.01441312
v -0.01384101 -0.01702590 0.00018240
v -0.02020405 -0.00166060 -0.00009949
v -0.01943244 -0.00994351 0.00103529
v 0.01439537 -0.00577715 0.01356120
v -0.01329178 0.01377213 0.00197184
v 0.02032025 0.00076696 0.00016461
v 0.00517754 -0.01381812 0.01377778
v -0.00531154 0.01905123 -0.00009616
v -0.01464541 0.00499697 0.01338118
v 0.01453460 0.01419652 0.00385887
v 0.00656441 0.01414102 0.01212845
v -0.00888922 0.01729829 0.00236943
v 0.00603654 0.01876033 0.00060198
v -0.00512843 -0.01938135 -0.00133774
v -0.01682809 -0.01448333 0.00227444
v 0.01203136 -0.01603169 0.00045097
v -0.01681981 0.00150129 0.01166346
v 0.00288875 -0.01896560 0.00185563
v 0.01633215 -0.01147772 0.00218476
v 0.01947622 -0.00185783 0.00609386
v -0.01850294 0.00471546 0.00378819
v -0.01534950 -0.00483319 0.01344144
v 0.01004047 -0.01443122 0.01067352
v 0.00817758 -0.01775417 0.00373636
v -0.01658990 0.00839967 0.00550952
v 0.01942375 0.00560592 0.00398097
v -0.01838941 -0.00476948 0.00849558
v 0.01361913 -0.01385111 0.00603524
v -0.00068745 0.01927803 0.00457627
v 0.00795181 0.01739814 0.00571314
v 0.01798444 -0.00656559 0.00676773
v -0.01754809 -0.01022479 0.00654188
v -0.00752776 0.01482663 0.01021562
v 0.00625203 -0.01665213 0.00831661
v 0.01739438 -0.00160371 0.01031177
v -0.01179331 0.01265382 0.00944941
v 0.01365273 0.01257351 0.00831739
v -0.01426884 0.01024890 0.00888218
v 0.01693558 0.00392553 0.01041591
v -0.00296499 0.01696358 0.00927112
v 0.00154421 0.01733640 0.00920467
v -0.00930636 -0.01501403 0.01352675
v 0.01564819 -0.00872239 0.00976348
f 48 109 129
f 1 18 13
f 51 129 94
f 129 85 101
f 56 20 27
f 100 78 69
f 113 107 93
f 109 119 129
f 129 119 102
f 114 119 109
f 73 66 89
f 89 66 90
f 129 22 48
f 13 46 39
f 121 129 105
f 115 130 110
f 68 89 108
f 77 105 101
f 101 105 129
f 85 79 101
f 53 67 66
f 2 4 5
f 5 3 2
f 99 120 127
f 116 99 127
f 1 6 14
f 120 123 87
f 112 104 96
f 112 125 92
f 54 69 78
f 12 30 38
f 26 30 12
f 30 72 80
f 80 58 30
f 93 75 58
f 93 80 113
f 36 21 29
f 32 50 29
f 90 102 119
f 119 114 90
f 19 48 22
f 130 122 91
f 110 52 51
f 122 130 118
f 72 113 80
f 117 98 124
f 124 98 74
f 97 113 72
f 1 13 6
f 124 74 57
f 129 121 94
f 94 121 110
f 111 105 77
f 110 130 84
f 129 102 88
f 88 85 129
f 67 56 82
f 24 34 11
f 53 56 67
f 56 41 20
f 56 53 41
f 64 82 56
f 9 35 24
f 38 61 47
f 47 71 49
f 2 7 8
f 86 29 50
f 123 120 99
f 70 43 98
f 128 70 98
f 104 108 114
f 99 92 123
f 123 92 125
f 55 68 62
f 60 62 92
f 95 99 116
f 70 120 87
f 60 99 95
f 86 116 100
f 72 78 97
f 54 78 72
f 71 61 81
f 58 80 93
f 116 86 95
f 95 86 50
f 128 98 117
f 44 60 32
f 33 55 44
f 54 36 69
f 36 29 69
f 8 32 29
f 118 130 106
f 117 124 97
f 74 39 57
f 13 39 6
f 111 121 105
f 115 111 103
f 110 121 111
f 89 68 73
f 108 89 114
f 53 66 73
f 17 7 20
f 40 64 27
f 64 40 59
f 64 59 85
f 11 34 25
f 59 40 45
f 25 40 27
f 64 56 27
f 3 5 11
f 28 12 38
f 35 34 24
f 2 10 4
f 10 12 4
f 9 12 28
f 28 35 9
f 9 5 4
f 61 71 47
f 34 49 65
f 103 77 76
f 128 127 70
f 86 100 69
f 114 109 104
f 112 96 125
f 123 125 87
f 43 74 98
f 120 70 127
f 62 60 44
f 55 73 68
f 10 31 26
f 28 38 47
f 54 72 30
f 31 36 54
f 75 61 38
f 38 58 75
f 117 78 100
f 97 78 117
f 116 128 117
f 95 50 60
f 60 50 32
f 16 32 8
f 33 44 16
f 8 21 10
f 10 2 8
f 89 90 114
f 90 67 102
f 22 1 19
f 113 122 107
f 107 122 118
f 91 84 130
f 52 110 84
f 115 106 130
f 81 106 71
f 75 93 107
f 52 18 51
f 18 52 13
f 13 52 46
f 91 83 46
f 126 83 122
f 57 126 124
f 43 14 6
f 76 77 65
f 34 65 63
f 53 55 33
f 53 33 41
f 17 20 41
f 79 85 59
f 45 40 25
f 82 88 102
f 15 25 27
f 11 25 15
f 3 7 2
f 35 47 49
f 12 10 26
f 4 12 9
f 35 28 47
f 76 65 49
f 103 76 71
f 69 29 86
f 104 112 108
f 37 43 70
f 14 19 1
f 48 19 42
f 99 60 92
f 55 53 73
f 112 92 68
f 26 31 30
f 58 38 30
f 117 100 116
f 17 33 16
f 7 17 16
f 8 7 16
f 8 29 21
f 67 90 66
f 18 1 23
f 22 23 1
f 122 113 126
f 118 106 107
f 39 46 57
f 52 84 46
f 91 46 84
f 126 57 83
f 91 122 83
f 94 110 51
f 77 103 111
f 77 63 65
f 110 111 115
f 41 33 17
f 7 15 20
f 3 11 15
f 20 15 27
f 77 101 79
f 64 85 88
f 82 64 88
f 77 79 59
f 45 25 34
f 45 34 63
f 102 67 82
f 24 5 9
f 11 5 24
f 35 49 34
f 49 71 76
f 103 71 106
f 6 39 43
f 39 74 43
f 14 43 37
f 127 128 116
f 109 48 104
f 104 48 42
f 125 96 87
f 37 87 42
f 14 42 19
f 55 62 44
f 112 68 108
f 31 21 36
f 31 10 21
f 44 32 16
f 23 51 18
f 23 22 129
f 106 81 107
f 75 107 81
f 115 103 106
f 63 77 59
f 15 7 3
f 104 42 96
f 96 42 87
f 70 87 37
f 37 42 14
f 62 68 92
f 75 81 61
f 31 54 30
f 113 124 126
f 113 97 124
f 59 45 63
f 51 23 129
f 57 46 83

