# https://github.com/mikedh/trimesh
v 0.00352191 -0.00109815 0.07465602
v 0.00073962 0.00393766 0.07460799
v -0.00260705 -0.00282577 0.07460667
v -0.00366812 0.00204389 0.07459628
v -0.01528933 0.00425666 -0.04346915
v -0.01671356 -0.00616678 -0.04083260
v -0.00946281 -0.01236398 -0.04360761
v 0.00069109 -0.01522111 -0.04406494
v 0.01223180 -0.00830400 -0.04421216
v 0.02208729 0.00465527 -0.03407579
v 0.01464901 0.00170270 -0.04436237
v 0.01668541 0.01339146 -0.03611356
v 0.00898189 0.01341861 -0.04345058
v 0.00035462 0.01625195 -0.04332513
v -0.01036421 0.01654650 -0.03834014
v -0.01118776 0.00453942 -0.04496257
v -0.03436194 -0.00687664 0.04956494
v -0.00887984 0.03277945 0.05062098
v 0.00101676 0.03391663 0.05071939
v 0.01593536 0.02841615 0.05176610
v 0.03398906 -0.00776144 0.04984029
v 0.02203360 -0.02556708 0.05074717
v -0.00862362 -0.03226359 0.05101686
v -0.02657723 -0.02298830 0.04943964
v -0.03449819 -0.01645641 0.03928091
v -0.02034449 -0.02720424 0.05074731
v -0.00839847 -0.03546016 0.04545803
v 0.00391796 -0.03510749 0.04917536
v 0.01039826 -0.03703690 0.03837043
v 0.01309443 -0.03266092 0.04933857
v 0.02552042 -0.02450511 0.04864290
v 0.03211410 -0.01289592 0.05026215
v 0.03626060 0.00180164 0.04605826
v 0.03088879 0.01065026 0.05154355
v 0.03247930 0.01368107 0.04850388
v 0.01958034 0.02940197 0.04917536
v 0.03031760 0.02293793 0.04046576
v 0.00994647 0.03462062 0.04675749
v -0.01701340 0.02952177 0.05051570
v -0.02304454 0.03032587 0.04025925
v -0.02748882 0.02079529 0.04966333
v -0.03268477 0.01044769 0.05030710
v 0.01886113 -0.03370720 0.03816042
v 0.00000821 0.03891173 0.03772113
v -0.02967473 -0.02475527 0.03746106
v 0.03706549 -0.01395735 0.03337574
v 0.03712889 0.01137455 0.03772113
v -0.01556349 0.03637924 0.03357225
v -0.03641117 0.01370435 0.03772113
v -0.03887434 0.00170550 0.03772113
v -0.01962744 -0.03409433 0.03496197
v 0.03276268 -0.02234195 0.03287996
v 0.03944855 -0.00732222 0.02845417
v 0.02814471 0.02940035 0.02667772
v 0.01519060 0.03668025 0.03258174
v -0.02940035 0.02814471 0.02667772
v -0.03959614 -0.00600319 0.02928541
v -0.02498907 -0.03219962 0.02432493
v -0.00965189 -0.03815905 0.03445208
v 0.02569014 -0.03126985 0.02440808
v 0.04000437 0.00334404 0.02942747
v 0.00868422 -0.03963577 0.02569779
v 0.03325983 0.02291016 0.02430914
v -0.00871027 0.03952831 0.02235390
v -0.02303522 0.03338728 0.02549921
v -0.00360449 -0.04048668 0.02383192
v 0.01616611 -0.03719282 0.01896769
v -0.03810702 -0.01445925 0.02156545
v -0.03324817 -0.02348552 0.02146376
v 0.03851073 0.01198490 0.01433426
v 0.00320485 0.04035480 0.01400145
v -0.03990158 0.00821773 0.02255626
v 0.03147120 -0.02518374 0.01475457
v 0.04049285 0.00231822 0.01478740
v 0.00328741 -0.04040816 0.01471168
v 0.03643993 -0.01684121 0.01175350
v 0.01684121 0.03643993 0.01175350
v -0.02865286 0.02805923 0.01139692
v -0.03659939 0.01722834 0.01419305
v -0.01323975 -0.03809280 0.01319365
v 0.03887744 -0.00500543 0.00548484
v 0.02794621 0.02886936 0.00954698
v -0.00844232 0.03905494 0.00936416
v -0.03900918 0.00798831 0.00859253
v -0.03988474 -0.00392838 0.01052190
v -0.02602797 -0.03041379 0.01111227
v 0.01982003 -0.03449033 0.00828985
v 0.03478454 0.01667014 0.00306005
v -0.01846619 0.03448215 0.00465058
v -0.03625319 -0.01430190 0.00470884
v -0.00003060 -0.03742492 -0.00278542
v 0.01079919 -0.03654758 0.00057260
v 0.03585289 -0.01309962 0.00019344
v 0.01099269 0.03711694 0.00279169
v -0.02311274 -0.03034160 0.00019344
v 0.02233004 -0.02967414 -0.00322805
v 0.03616426 0.00638602 -0.00516008
v 0.02982812 0.02211906 -0.00345309
v 0.02165237 0.02993629 -0.00394554
v -0.00167877 0.03778135 -0.00124735
v -0.03010203 0.02070701 -0.00509073
v -0.03468415 0.01424522 -0.00286416
v -0.03060321 -0.01846851 -0.00711662
v -0.01424522 -0.03468415 -0.00286416
v 0.02922329 -0.02132595 -0.00657416
v 0.00356705 0.03417930 -0.01107325
v -0.01025372 0.03459184 -0.00681447
v -0.02258172 0.02495167 -0.01278796
v -0.03503209 0.00504704 -0.00849710
v -0.03363816 -0.00391237 -0.01228686
v 0.01943443 -0.02532045 -0.01666735
v 0.03172626 -0.01108520 -0.01316214
v 0.03185096 -0.00024948 -0.01730642
v 0.02584039 0.01989864 -0.01520855
v 0.01144656 0.03079916 -0.01508507
v -0.01535347 0.02800592 -0.01705553
v -0.02333846 -0.02323222 -0.01485161
v -0.00713080 -0.03074475 -0.01754674
v 0.00727860 -0.02625100 -0.02577635
v 0.03059117 0.00804880 -0.01775968
v 0.01582072 0.02296147 -0.02516076
v -0.00543052 0.02747039 -0.02493928
v -0.02559498 0.01534762 -0.02190231
v -0.01475479 -0.02365212 -0.02518291
v -0.00539704 -0.02357491 -0.03149802
v 0.02347891 -0.00938641 -0.02920574
v -0.02550926 -0.00806838 -0.02717238
v 0.01360253 -0.02099411 -0.02997288
v 0.00576273 0.02472745 -0.02919184
v -0.02657633 0.00232829 -0.02740779
f 1 21 34
f 21 1 32
f 53 81 74
f 23 28 3
f 1 4 3
f 7 16 9
f 117 124 104
f 103 117 95
f 5 127 130
f 13 121 12
f 115 121 129
f 58 69 86
f 3 28 30
f 70 61 74
f 46 76 53
f 52 73 46
f 62 66 75
f 17 24 3
f 104 80 95
f 104 91 80
f 9 8 7
f 117 104 95
f 110 109 130
f 127 110 130
f 5 6 127
f 77 99 94
f 14 15 122
f 122 116 107
f 120 12 114
f 108 15 123
f 15 5 123
f 16 5 15
f 16 11 9
f 7 6 16
f 6 5 16
f 85 110 90
f 109 85 84
f 110 85 109
f 45 25 69
f 68 90 69
f 68 85 90
f 34 2 1
f 32 1 22
f 88 120 114
f 88 63 70
f 113 112 126
f 113 120 97
f 97 70 74
f 112 81 93
f 97 74 81
f 76 81 53
f 92 96 87
f 73 60 87
f 73 76 46
f 67 62 75
f 29 43 30
f 27 59 28
f 31 52 32
f 71 77 94
f 54 77 55
f 39 48 40
f 1 2 4
f 72 84 85
f 57 50 72
f 102 79 101
f 102 84 79
f 49 72 50
f 68 25 57
f 57 25 17
f 80 75 66
f 86 95 80
f 58 51 45
f 119 125 8
f 119 91 125
f 125 7 8
f 105 76 73
f 81 76 93
f 91 104 118
f 6 117 127
f 127 117 103
f 127 103 110
f 106 115 129
f 94 106 100
f 71 94 100
f 77 82 99
f 121 115 99
f 121 99 114
f 54 63 82
f 106 129 122
f 114 12 121
f 64 83 89
f 14 122 129
f 11 16 14
f 11 10 9
f 68 57 85
f 69 90 86
f 69 25 68
f 21 46 53
f 53 33 21
f 47 33 61
f 47 35 33
f 98 88 114
f 88 70 97
f 38 55 44
f 97 81 113
f 10 113 126
f 67 87 60
f 73 87 96
f 67 43 29
f 62 29 28
f 23 27 28
f 60 73 52
f 31 32 22
f 52 46 32
f 99 115 94
f 115 106 94
f 18 48 39
f 18 19 44
f 100 83 71
f 123 5 130
f 116 15 108
f 50 57 17
f 84 72 79
f 49 79 72
f 56 78 79
f 4 41 42
f 42 49 50
f 56 41 40
f 4 39 41
f 25 24 17
f 17 3 4
f 17 4 42
f 80 66 59
f 128 111 119
f 73 96 105
f 105 112 93
f 105 93 76
f 126 105 111
f 128 119 8
f 9 126 128
f 125 91 118
f 6 7 117
f 7 124 117
f 103 90 110
f 123 130 109
f 15 116 122
f 107 106 122
f 10 12 120
f 13 14 129
f 129 121 13
f 83 100 107
f 89 83 107
f 13 11 14
f 80 59 58
f 58 86 80
f 86 90 103
f 30 28 29
f 30 43 22
f 3 30 1
f 20 2 34
f 36 20 34
f 37 35 47
f 37 36 35
f 47 61 70
f 61 33 53
f 112 113 81
f 120 113 10
f 61 53 74
f 92 67 75
f 87 67 92
f 31 43 60
f 29 62 67
f 3 26 23
f 27 23 26
f 66 62 28
f 51 59 27
f 71 55 77
f 36 55 38
f 65 40 48
f 19 18 2
f 18 39 2
f 39 4 2
f 71 83 64
f 123 102 101
f 116 89 107
f 56 65 78
f 101 79 78
f 72 85 57
f 56 79 49
f 41 56 49
f 65 56 40
f 39 40 41
f 91 75 80
f 45 26 24
f 24 25 45
f 119 111 92
f 92 111 96
f 125 118 124
f 128 126 111
f 9 128 8
f 124 118 104
f 7 125 124
f 77 54 82
f 100 106 107
f 64 65 48
f 108 78 89
f 16 15 14
f 69 58 45
f 103 95 86
f 30 22 1
f 34 21 33
f 37 47 63
f 33 35 34
f 63 47 70
f 63 88 82
f 88 97 120
f 20 19 2
f 36 38 20
f 54 36 37
f 54 55 36
f 12 10 11
f 22 43 31
f 28 59 66
f 71 44 55
f 71 64 44
f 109 102 123
f 123 101 108
f 78 108 101
f 17 42 50
f 49 42 41
f 24 26 3
f 59 51 58
f 45 51 26
f 105 126 112
f 98 99 82
f 114 99 98
f 13 12 11
f 44 64 48
f 21 32 46
f 82 88 98
f 63 54 37
f 9 10 126
f 60 52 31
f 67 60 43
f 78 65 89
f 65 64 89
f 27 26 51
f 75 91 92
f 92 91 119
f 105 96 111
f 18 44 48
f 102 109 84
f 35 36 34
f 38 19 20
f 44 19 38
f 89 116 108

