# https://github.com/mikedh/trimesh
v -0.01702901 -0.04794160 0.00692512
v -0.01639649 -0.05191434 0.01518467
v -0.00674595 -0.05408781 0.01276097
v -0.02405020 -0.04632728 0.01518467
v -0.03241570 -0.03663653 0.01518467
v -0.00371632 -0.04754321 0.00395492
v -0.04396613 -0.01309746 0.00661631
v -0.04162860 -0.02209431 0.01518467
v -0.03217378 -0.03485014 0.00960356
v -0.03506230 -0.02116887 0.00405357
v -0.02310595 -0.02936542 0.00305509
v -0.03522448 0.00699015 0.00221522
v -0.05494555 0.00348366 0.01518467
v -0.01039279 -0.04626240 0.09951361
v -0.01704669 -0.04009055 0.13455214
v -0.01401706 -0.03867565 0.15670044
v -0.02418045 -0.03250475 0.16000104
v -0.03894091 -0.01361133 0.18605587
v -0.03265463 -0.01951720 0.20665736
v -0.04116619 -0.00701920 0.20769408
v -0.04809709 0.00183978 0.19120624
v -0.02575303 -0.02383507 0.21237962
v -0.01825854 -0.02833709 0.21150477
v -0.00886669 -0.02881797 0.21120181
v -0.03519921 -0.01236736 0.21626537
v -0.04159168 -0.00151343 0.21699860
v -0.01266039 -0.00997578 0.24370933
v -0.02765828 -0.00028096 0.24301292
v -0.02387239 0.00158121 0.24701994
v -0.01394471 -0.00061373 0.24845223
v -0.04976670 0.00820200 0.00406768
v -0.05429974 0.00898447 0.00752665
v -0.05339097 0.01849352 0.00654008
v -0.05709547 0.01395831 0.01760724
v -0.05364576 0.02637979 0.01639653
v -0.05662014 0.02032053 0.01760838
v -0.04435425 0.03515535 0.01518467
v -0.03834487 0.02418512 0.00322621
v -0.00614002 0.03122720 0.00346626
v -0.04323887 0.03062128 0.00590284
v -0.03416823 0.04191803 0.01518467
v -0.02695823 0.04278089 0.00855663
v -0.02068225 0.04092202 0.00499629
v -0.01049518 0.04278384 0.00769731
v -0.01219928 0.04671484 0.01760838
v -0.02265980 0.04662484 0.01624505
v -0.05212703 0.01455382 0.18969142
v -0.02128817 0.04870124 0.05456988
v -0.00744690 0.04492332 0.01882023
v -0.05573390 0.02213831 0.09153138
v -0.05428831 0.02763661 0.10001434
v -0.05134365 0.03316113 0.09334916
v -0.02795337 0.04848425 0.07577730
v -0.03764819 0.04458773 0.08547211
v -0.04728708 0.03784185 0.12818991
v -0.04986070 0.03042363 0.19090328
v -0.03012782 0.04865327 0.11728325
v -0.02552965 0.04930799 0.15575956
v -0.03885111 0.04454463 0.12288806
v -0.01583484 0.04918270 0.12182769
v -0.05194709 0.02213755 0.19361942
v -0.05021289 0.01365534 0.20118105
v -0.04341078 0.03482198 0.20180995
v -0.04716296 0.02153239 0.20874079
v -0.04552803 0.03662407 0.18999439
v -0.04437578 0.00941385 0.21770563
v -0.04046461 0.02880350 0.21449060
v -0.03890739 0.04186271 0.19451116
v -0.03158893 0.04654040 0.19211513
v -0.03037708 0.04348331 0.20452519
v -0.03132538 0.03607792 0.21662093
v -0.02007632 0.04868401 0.19211513
v -0.00982590 0.04632090 0.19090328
v -0.01918003 0.03857085 0.21888748
v -0.01250225 0.03995277 0.21484975
v -0.02759644 0.01323050 0.24549358
v -0.02426241 0.01742982 0.24543662
v -0.01583484 0.02153239 0.24459954
v -0.00371632 0.01693377 0.24543662
v -0.02367057 0.01001978 0.24835679
v -0.01219928 0.00941385 0.24949281
v 0.02400993 -0.02694172 0.00306615
v 0.00113109 -0.05279347 0.01276097
v 0.00375243 -0.05043858 0.00744881
v 0.02004570 -0.03825483 0.00445385
v 0.02415629 -0.03929868 0.01154912
v 0.01369873 -0.04662049 0.01270702
v -0.00129262 -0.01239948 0.00125960
v 0.03043431 -0.02615366 0.00536958
v 0.02875178 -0.03452937 0.01215504
v 0.02536814 -0.00512837 0.00403642
v 0.02409201 0.00486289 0.00939859
v 0.03287408 -0.02815357 0.01276097
v 0.03438395 -0.02270024 0.01276097
v 0.03143261 -0.01237583 0.00663331
v 0.03414878 -0.01542911 0.01276097
v 0.03093998 -0.00581745 0.01211582
v 0.00476665 -0.04516648 0.09304620
v -0.00307993 -0.04674443 0.09938831
v 0.01353516 -0.03926003 0.10001434
v -0.00856373 -0.03997831 0.15333585
v 0.00054968 -0.04107602 0.13843342
v 0.00597850 -0.04111427 0.12425140
v 0.01701624 -0.03224960 0.13258288
v 0.02324472 -0.02974427 0.10970916
v 0.02742213 -0.02344783 0.10486175
v 0.02361686 -0.02026347 0.15059174
v 0.02533280 -0.01118763 0.15674540
v 0.02529039 -0.00460669 0.15242697
v 0.00243460 -0.02645103 0.20908107
v -0.00492817 -0.02723825 0.21397211
v 0.00738039 -0.02212977 0.21146195
v 0.01370637 -0.01589896 0.21150477
v 0.01646568 -0.00997578 0.21150477
v 0.01764797 -0.00022707 0.21118395
v -0.00760794 -0.00779792 0.24536553
v -0.00274152 -0.00438774 0.24439800
v 0.00476665 0.02516794 0.00456641
v -0.00334161 0.04031153 0.01001652
v 0.00634580 0.03206835 0.01518467
v -0.00371632 0.04259494 0.01760838
v 0.02071092 0.01217427 0.01518467
v 0.01423946 0.02047089 0.18726772
v 0.01604941 0.01062571 0.21029292
v 0.00954811 0.02500163 0.20271884
v 0.00165018 0.03708049 0.19090328
v 0.00307792 0.02988798 0.21347403
v 0.01276228 0.01426128 0.21877588
v -0.00614002 0.03750703 0.21392848
v 0.00234967 0.00759608 0.24301292
f 12 39 88
f 33 31 32
f 40 42 43
f 14 3 99
f 17 19 4
f 19 18 4
f 45 49 121
f 13 32 7
f 7 8 13
f 120 126 123
f 39 12 38
f 88 82 6
f 88 11 12
f 11 88 6
f 40 38 33
f 33 38 31
f 42 41 46
f 43 42 44
f 89 82 95
f 117 112 113
f 93 94 106
f 3 14 2
f 6 3 1
f 101 102 24
f 14 99 101
f 23 27 22
f 22 19 17
f 28 25 22
f 22 27 28
f 68 69 59
f 50 61 51
f 55 56 65
f 49 45 60
f 109 97 123
f 126 125 123
f 92 97 95
f 115 128 130
f 49 60 73
f 21 62 47
f 7 32 31
f 95 91 92
f 11 10 12
f 38 40 43
f 39 38 43
f 5 9 4
f 1 9 10
f 54 41 37
f 54 46 41
f 42 40 41
f 95 82 91
f 95 97 96
f 105 90 93
f 114 107 108
f 109 115 108
f 115 114 108
f 114 115 130
f 86 105 100
f 3 6 84
f 1 3 2
f 84 83 3
f 6 82 85
f 14 101 16
f 110 102 103
f 26 25 28
f 23 16 24
f 62 21 26
f 63 61 64
f 55 65 68
f 75 129 73
f 76 80 77
f 51 61 56
f 56 55 52
f 49 73 121
f 97 109 96
f 78 71 77
f 78 77 80
f 79 117 130
f 81 117 79
f 24 27 23
f 24 102 110
f 97 122 123
f 126 121 73
f 120 121 126
f 22 25 19
f 13 34 32
f 31 10 7
f 21 47 13
f 17 15 16
f 4 9 1
f 4 15 17
f 48 58 60
f 120 122 92
f 92 122 97
f 39 43 44
f 1 11 6
f 7 10 9
f 9 8 7
f 53 46 54
f 57 53 59
f 69 57 59
f 48 46 53
f 46 44 42
f 39 91 88
f 93 106 105
f 90 89 93
f 94 96 109
f 100 103 98
f 86 90 105
f 104 100 105
f 106 108 107
f 94 108 106
f 103 102 99
f 99 98 103
f 84 6 85
f 24 16 101
f 22 17 16
f 16 23 22
f 29 27 30
f 29 28 27
f 76 28 29
f 76 29 80
f 67 76 77
f 77 71 67
f 71 63 67
f 68 65 63
f 69 58 57
f 70 72 58
f 74 70 71
f 75 74 78
f 78 79 75
f 64 76 67
f 35 40 33
f 36 50 51
f 35 51 52
f 35 36 51
f 55 54 52
f 45 119 44
f 45 48 60
f 119 45 121
f 126 127 125
f 81 30 117
f 30 116 117
f 79 127 129
f 75 79 129
f 125 127 128
f 116 30 27
f 127 79 128
f 122 120 123
f 20 25 26
f 20 19 25
f 26 21 20
f 34 13 47
f 34 36 33
f 61 47 62
f 50 36 34
f 36 35 33
f 15 2 14
f 15 4 2
f 1 2 4
f 118 119 120
f 92 91 118
f 1 10 11
f 38 12 31
f 12 10 31
f 119 118 44
f 39 44 118
f 59 53 54
f 40 35 37
f 41 40 37
f 85 86 84
f 85 82 89
f 82 88 91
f 39 118 91
f 114 117 113
f 130 117 114
f 112 110 104
f 105 107 104
f 107 105 106
f 101 99 102
f 99 3 83
f 83 98 99
f 104 110 103
f 98 83 87
f 84 86 87
f 87 83 84
f 87 100 98
f 86 100 87
f 27 24 111
f 66 62 26
f 66 26 28
f 67 63 64
f 59 55 68
f 69 68 70
f 58 48 57
f 72 74 75
f 76 64 66
f 37 52 54
f 35 52 37
f 45 44 46
f 46 48 45
f 121 120 119
f 130 128 79
f 109 123 124
f 66 61 62
f 64 61 66
f 61 50 47
f 50 34 47
f 32 34 33
f 16 15 14
f 48 53 57
f 92 118 120
f 96 94 95
f 95 94 89
f 85 89 90
f 128 115 124
f 29 30 80
f 66 28 76
f 56 61 63
f 63 65 56
f 68 63 71
f 70 68 71
f 69 70 58
f 127 73 129
f 75 73 72
f 60 58 72
f 74 72 70
f 78 74 71
f 51 56 52
f 80 81 78
f 124 125 128
f 123 125 124
f 116 112 117
f 111 116 27
f 111 110 112
f 20 18 19
f 13 8 21
f 59 54 55
f 90 86 85
f 89 94 93
f 94 109 108
f 100 104 103
f 30 81 80
f 126 73 127
f 112 116 111
f 110 111 24
f 20 21 18
f 4 18 5
f 115 109 124
f 107 113 112
f 107 114 113
f 60 72 73
f 81 79 78
f 8 9 5
f 5 18 8
f 18 21 8
f 107 112 104

