# https://github.com/mikedh/trimesh
v -0.02149587 -0.05191021 0.01680419
v -0.02159361 -0.04396514 0.01037337
v -0.00056284 -0.05347241 0.01522210
v -0.01778359 -0.05948101 0.02830157
v -0.00069849 -0.07491911 0.05759031
v 0.00743727 -0.05947006 0.02504726
v -0.05871525 -0.02404051 0.02313432
v -0.05103970 -0.02614172 0.01600499
v -0.04401022 -0.04330157 0.02328102
v -0.05067977 -0.00709043 0.00960877
v -0.06379332 0.00674037 0.02179296
v -0.03706803 -0.01257977 0.00607438
v -0.00751219 -0.02681965 0.00512388
v -0.02998723 -0.00058182 0.00515881
v 0.00499655 -0.03831740 0.00669728
v -0.03106091 -0.03556559 0.00867058
v -0.04381802 -0.05997287 0.05225204
v -0.05705844 -0.05110908 0.06247176
v -0.05782068 -0.04661494 0.07060753
v -0.01385244 -0.07359613 0.05921746
v -0.03568226 -0.06607172 0.05270885
v -0.00212225 -0.07530345 0.06247176
v -0.00802068 -0.07252657 0.07060753
v 0.01127323 -0.07295877 0.07060753
v -0.02754650 -0.05585745 0.08362474
v -0.02218680 -0.06709306 0.07060753
v -0.00151207 -0.06304252 0.08362474
v -0.07002385 -0.03899951 0.05759031
v -0.07530280 -0.03135883 0.05754907
v -0.08215761 -0.00749722 0.05759031
v -0.07040022 -0.03456744 0.06907679
v -0.08167276 -0.01168739 0.06247176
v -0.07752085 -0.01766692 0.07060753
v -0.05845744 -0.03393844 0.08362474
v -0.06659815 -0.02150240 0.08362474
v -0.07961537 -0.00211301 0.07060753
v -0.08256736 0.00023176 0.06029785
v -0.06255496 0.03114765 0.08362474
v -0.00151207 -0.04695566 0.09411660
v -0.05358094 0.00511321 0.09314471
v -0.00151207 0.00511321 0.09836978
v -0.05424546 0.00999467 0.01178358
v -0.06525830 0.02622387 0.02832855
v -0.05697890 0.03277480 0.02004100
v -0.06073844 0.03524189 0.02660310
v -0.04710531 0.04744989 0.02007757
v -0.04747912 0.00836752 0.00758193
v -0.02917365 0.03928342 0.00646564
v -0.01330892 0.02952050 0.00510520
v -0.00181185 0.05639727 0.00825354
v -0.04203527 0.03602911 0.00887944
v -0.02754650 0.05067348 0.00917105
v -0.02836008 0.05653958 0.01432804
v -0.01247071 0.06949814 0.02739192
v 0.00581012 0.07010939 0.02340832
v -0.07097765 0.03521553 0.06735322
v -0.06822531 0.04768642 0.06068820
v -0.06435736 0.04741918 0.07060753
v -0.05358094 0.06694499 0.05962832
v -0.05278030 0.06290503 0.07060753
v -0.05358094 0.04673385 0.08362474
v -0.04218427 0.05857122 0.08362474
v -0.03649584 0.06527422 0.03643733
v -0.02581392 0.07992352 0.05610374
v -0.00824671 0.08379661 0.05270885
v -0.03422228 0.07554298 0.06774557
v -0.02410241 0.08070603 0.06247176
v -0.02754650 0.06777213 0.08362474
v -0.01452928 0.07842701 0.07060753
v -0.00151207 0.07019930 0.08280410
v -0.00151207 0.05718208 0.09184663
v 0.01537849 -0.04853543 0.01523415
v 0.02330201 -0.05516181 0.02462130
v 0.04386838 -0.03874260 0.02188697
v 0.02126806 -0.01034473 0.00489567
v 0.02327326 -0.02559808 0.00596045
v 0.04196719 0.00293722 0.00648610
v 0.02538169 -0.03679980 0.01029739
v 0.03627619 -0.01721434 0.00727345
v 0.04018402 -0.02661625 0.01216321
v 0.05202270 -0.02539589 0.02077463
v 0.05406585 -0.00302254 0.01339842
v 0.06037110 -0.01929407 0.02822156
v 0.06466762 -0.00096071 0.02667653
v 0.01313230 -0.07491041 0.05921746
v 0.04235148 -0.06156161 0.05759031
v 0.03057996 -0.06950298 0.06084462
v 0.02611422 -0.06842132 0.07060753
v 0.02658664 -0.05997287 0.08362474
v 0.04668617 -0.05626643 0.07060753
v 0.03753959 -0.05350350 0.08362474
v 0.06058247 -0.04776923 0.05921746
v 0.05726626 -0.04695566 0.07060753
v 0.06033865 -0.02881028 0.08362474
v 0.07008263 -0.03393844 0.05967355
v 0.07881719 -0.01158022 0.05921746
v 0.07987599 0.00613615 0.05789134
v 0.07077947 -0.02742983 0.07060753
v 0.07512475 -0.01726670 0.07060753
v 0.07734694 0.00348606 0.07177418
v 0.06787027 -0.00790400 0.08362474
v 0.06725011 0.01162182 0.08362474
v 0.07963157 0.00999467 0.06165819
v 0.05055680 0.00511321 0.09491545
v 0.02065788 0.02957395 0.00535515
v 0.04019230 0.02514753 0.00671111
v 0.05196807 0.01609649 0.00936556
v 0.02452237 0.04416487 0.00738698
v 0.01801376 0.06290434 0.01691150
v 0.02565394 0.06070353 0.01816203
v 0.03958678 0.04042260 0.00953565
v 0.05094388 0.03847218 0.01863611
v 0.04311986 0.05210398 0.02269054
v 0.06549215 0.01162183 0.02667441
v 0.06258957 0.03256032 0.03249730
v 0.05633432 0.04345287 0.03157733
v 0.03873513 0.05793469 0.08362474
v 0.05472501 0.04416487 0.08362474
v 0.07268941 0.03440196 0.05433600
v 0.04769174 0.06694499 0.05270885
v 0.07512499 0.01975759 0.07060753
v 0.06357402 0.03127170 0.08362474
v 0.06879525 0.04341339 0.06328534
v 0.06591483 0.04416487 0.07060753
v 0.05960911 0.05565969 0.06259133
v 0.04442972 0.06393569 0.07060753
v 0.01404758 0.08369962 0.05361809
v 0.03308807 0.07813817 0.05324967
v 0.02452237 0.07019930 0.07715279
v 0.02452237 0.06454501 0.08362474
f 41 104 71
f 71 104 117
f 41 71 40
f 40 71 62
f 41 40 39
f 39 40 34
f 39 104 41
f 34 40 35
f 61 40 62
f 34 35 31
f 36 33 35
f 32 33 36
f 40 38 35
f 35 38 36
f 102 122 104
f 118 122 124
f 104 122 118
f 121 100 103
f 121 102 100
f 122 102 121
f 23 25 26
f 56 36 38
f 117 118 124
f 60 61 62
f 71 68 62
f 60 68 66
f 117 104 118
f 34 25 39
f 34 19 25
f 39 25 27
f 25 23 27
f 108 105 50
f 10 16 8
f 106 111 107
f 119 97 114
f 112 107 111
f 74 73 72
f 58 56 38
f 61 58 38
f 38 40 61
f 53 46 63
f 126 125 128
f 128 125 120
f 126 129 117
f 117 124 126
f 126 124 125
f 71 130 70
f 68 71 70
f 70 129 69
f 65 55 54
f 64 54 53
f 60 62 68
f 69 67 66
f 69 66 68
f 4 20 21
f 1 4 21
f 9 1 21
f 26 19 18
f 31 19 34
f 56 37 36
f 36 37 32
f 93 94 91
f 91 94 104
f 104 39 91
f 89 91 39
f 119 116 120
f 104 101 102
f 102 101 100
f 98 99 94
f 100 101 99
f 85 24 22
f 24 27 23
f 108 50 109
f 49 105 75
f 107 112 115
f 103 97 119
f 103 96 97
f 107 114 84
f 84 82 107
f 83 74 81
f 79 76 77
f 105 106 77
f 95 99 98
f 32 37 30
f 59 63 46
f 127 67 69
f 127 65 67
f 130 117 129
f 129 70 130
f 71 117 130
f 111 110 113
f 125 124 123
f 63 64 53
f 61 60 58
f 18 21 26
f 15 72 3
f 1 2 3
f 9 17 28
f 18 28 17
f 19 26 25
f 32 30 29
f 30 11 7
f 93 91 90
f 90 92 93
f 91 89 88
f 27 24 89
f 89 39 27
f 24 88 89
f 93 98 94
f 96 103 100
f 119 120 123
f 94 101 104
f 94 99 101
f 124 121 123
f 122 121 124
f 100 99 96
f 55 109 50
f 108 109 110
f 48 50 49
f 12 16 10
f 108 106 105
f 105 77 75
f 115 119 114
f 107 115 114
f 121 103 123
f 114 97 84
f 84 97 96
f 83 84 96
f 78 80 74
f 72 78 74
f 106 107 77
f 95 96 99
f 75 13 14
f 14 13 12
f 14 12 47
f 82 80 79
f 37 56 57
f 44 42 11
f 127 129 128
f 69 129 127
f 55 128 109
f 109 128 110
f 128 55 127
f 127 55 65
f 69 68 70
f 126 128 129
f 54 64 65
f 128 120 113
f 116 113 120
f 123 120 125
f 66 59 60
f 57 58 60
f 5 85 22
f 76 79 78
f 2 1 16
f 16 1 9
f 21 17 9
f 91 88 90
f 90 88 87
f 98 93 92
f 92 95 98
f 115 116 119
f 50 54 55
f 53 50 52
f 50 105 49
f 47 42 51
f 108 111 106
f 82 84 83
f 82 81 80
f 80 81 74
f 77 107 82
f 92 74 83
f 15 76 78
f 78 72 15
f 76 15 13
f 47 48 14
f 51 48 47
f 57 56 58
f 43 30 37
f 52 48 51
f 48 52 50
f 128 113 110
f 116 112 113
f 116 115 112
f 111 113 112
f 66 67 59
f 59 67 64
f 63 59 64
f 22 24 23
f 23 20 22
f 2 16 15
f 15 3 2
f 16 9 8
f 18 19 31
f 28 18 29
f 29 18 31
f 17 21 18
f 32 29 33
f 33 29 31
f 31 35 33
f 87 73 86
f 86 73 74
f 73 87 85
f 24 85 87
f 88 24 87
f 83 95 92
f 110 111 108
f 53 54 50
f 14 48 49
f 49 75 14
f 51 42 44
f 11 42 10
f 47 12 10
f 10 42 47
f 77 76 75
f 96 95 83
f 76 13 75
f 15 16 12
f 12 13 15
f 80 78 79
f 11 30 43
f 43 44 11
f 46 44 45
f 52 51 46
f 46 53 52
f 65 64 67
f 22 20 5
f 21 20 26
f 26 20 23
f 85 5 6
f 119 123 103
f 28 29 9
f 82 83 81
f 57 43 37
f 46 51 44
f 59 57 60
f 73 85 6
f 5 20 4
f 3 4 1
f 86 92 90
f 4 6 5
f 3 6 4
f 7 9 29
f 9 7 8
f 59 46 45
f 45 57 59
f 44 43 45
f 73 3 72
f 87 86 90
f 74 92 86
f 8 7 11
f 8 11 10
f 7 29 30
f 82 79 77
f 57 45 43
f 6 3 73

