# https://github.com/mikedh/trimesh
v 0.03288895 0.00749489 0.00357802
v 0.02827926 0.01263049 0.00350222
v 0.01583334 0.01534125 0.00320523
v 0.01085623 0.01314506 0.00321572
v 0.00627612 0.00896892 0.00295575
v 0.00728879 -0.01035981 0.00296342
v 0.01063194 -0.01309339 0.00311970
v 0.02437639 -0.01487841 0.00329955
v 0.03022867 -0.01102161 0.00344194
v 0.03481328 0.00000000 0.00360966
v 0.02481786 0.01484195 0.00325892
v 0.02024648 0.01551929 0.00337013
v 0.00432863 0.00434377 0.00310839
v 0.00368264 -0.00101913 0.00309776
v 0.00527523 -0.00678842 0.00312395
v 0.01787757 -0.01535254 0.00328501
v 0.03373848 -0.00592510 0.00345155
v 0.03557343 0.01334873 -0.00128078
v 0.03938057 0.00632912 -0.00120838
v -0.00200803 0.00069836 -0.00276017
v -0.00145485 0.00472652 -0.00275108
v -0.00048272 0.00795328 -0.00273509
v 0.00170773 0.01205230 -0.00268324
v 0.00327581 0.01384079 -0.00224258
v 0.00525866 0.01604054 -0.00262485
v 0.00825761 0.01823963 -0.00259137
v 0.01269830 0.02024384 -0.00249460
v 0.01700182 0.02120829 -0.00244758
v 0.02071938 0.02128942 -0.00238645
v 0.02439428 0.02072363 -0.00231019
v 0.02853489 0.01920577 -0.00225002
v 0.03357088 0.01589471 -0.00215929
v 0.03596055 0.01335411 -0.00212000
v 0.03792368 0.01047090 -0.00210355
v 0.04006579 0.00483683 -0.00206833
v 0.04060026 -0.00092974 -0.00204370
v 0.04004445 -0.00507103 -0.00203701
v 0.03802671 -0.01026194 -0.00210186
v 0.03548896 -0.01386901 -0.00213567
v 0.03137489 -0.01761862 -0.00221124
v 0.02727611 -0.01980954 -0.00226280
v 0.02280089 -0.02106143 -0.00235223
v 0.02002245 -0.02133510 -0.00239791
v 0.01700182 -0.02120829 -0.00244758
v 0.01335433 -0.02048267 -0.00247589
v 0.01051559 -0.01944382 -0.00255424
v 0.00776853 -0.01792505 -0.00259149
v 0.00374629 -0.01459238 -0.00266555
v 0.00170751 -0.01205227 -0.00266741
v 0.00019169 -0.00943625 -0.00270817
v -0.00110043 -0.00619649 -0.00274525
v -0.00173439 -0.00347717 -0.00275567
v 0.00000165 0.00812404 -0.00184835
v 0.00518239 -0.01546317 -0.00175447
v 0.00839102 0.01799640 -0.00172776
v 0.01472537 0.02042945 -0.00161492
v 0.02341624 0.02064611 -0.00148069
v 0.03138539 0.01724774 -0.00134965
v 0.03767628 -0.00984898 -0.00119509
v 0.02754692 -0.01928602 -0.00141276
v 0.02125510 -0.02091808 -0.00151622
v 0.01514993 -0.02049146 -0.00159057
v -0.00152213 0.00251013 -0.00185604
v 0.03263434 -0.01615150 -0.00126287
v 0.00047807 -0.00928888 -0.00185787
v -0.00141484 -0.00284670 -0.00185427
v 0.03998126 -0.00318784 -0.00115942
v -0.00087194 -0.00127892 -0.06891678
v -0.00071733 0.00301706 -0.06891424
v 0.00076934 0.00826344 -0.06888979
v 0.00287743 0.01213790 -0.06885513
v 0.00483416 0.01459238 -0.06882295
v 0.00705972 0.01663891 -0.06878635
v 0.01015150 0.01870505 -0.06873552
v 0.01289368 0.01997831 -0.06869043
v 0.01636614 0.02093783 -0.06863333
v 0.02017916 0.02134526 -0.06857062
v 0.02296689 0.02119305 -0.06852478
v 0.02616084 0.02055765 -0.06847226
v 0.02879460 0.01963131 -0.06842895
v 0.03216148 0.01779552 -0.06837359
v 0.03595672 0.01456102 -0.06831118
v 0.03864922 0.01106808 -0.06826690
v 0.04004071 0.00838368 -0.06824403
v 0.04096693 0.00574956 -0.06822880
v 0.04169606 0.00127892 -0.06821681
v 0.04151608 -0.00324866 -0.06821977
v 0.04108749 -0.00529956 -0.06822682
v 0.03972259 -0.00900587 -0.06824926
v 0.03761531 -0.01261565 -0.06828391
v 0.03455791 -0.01595643 -0.06833418
v 0.03168288 -0.01812756 -0.06838146
v 0.02824813 -0.01983296 -0.06843794
v 0.02457377 -0.02092515 -0.06849836
v 0.02087742 -0.02133002 -0.06855914
v 0.01739541 -0.02113224 -0.06861640
v 0.01334640 -0.02009448 -0.06868298
v 0.00866263 -0.01779552 -0.06876000
v 0.00566055 -0.01541171 -0.06880936
v 0.00333823 -0.01280937 -0.06884755
v 0.00181257 -0.01047090 -0.06887264
v 0.00053027 -0.00773265 -0.06889372
v -0.00009900 -0.00549614 -0.06932956
v 0.00883586 -0.01081510 -0.07867778
v 0.00585549 0.00657295 -0.07867623
v 0.02340652 0.01581504 -0.07838763
v 0.02872669 0.01394568 -0.07830014
v 0.03665631 -0.00079006 -0.07822031
v 0.02820056 -0.01426949 -0.07830879
v 0.02441750 -0.01570794 -0.07837100
v 0.03636669 0.00323098 -0.07817451
v 0.03481139 0.00761083 -0.07820009
v 0.03204423 0.01134662 -0.07824559
v 0.01641875 0.01551087 -0.07850253
v 0.01117130 0.01312377 -0.07858882
v 0.00451644 0.00061208 -0.07869825
v 0.00502765 -0.00434854 -0.07868984
v 0.01513957 -0.01519197 -0.07852357
v 0.02022293 -0.01610600 -0.07843997
v 0.03373877 -0.00932687 -0.07821773
v 0.03603847 -0.00450800 -0.07817991
v 0.00784779 0.00998927 -0.07864347
v 0.00949926 -0.01503397 -0.07410677
v 0.00683601 -0.00854411 -0.07866011
v 0.03563725 -0.01456387 -0.06916946
v -0.00068881 0.00138413 -0.06976475
v 0.01585975 0.02060060 -0.06947476
v 0.03367069 0.01650472 -0.06919975
v 0.04133790 0.00298620 -0.06903324
v 0.03925651 -0.00954438 -0.06913167
f 20 68 52
f 86 35 36
f 87 86 36
f 97 96 45
f 45 96 44
f 98 47 48
f 82 32 33
f 33 34 83
f 83 82 33
f 58 11 2
f 32 81 31
f 2 11 12
f 3 4 12
f 29 78 77
f 28 29 77
f 76 28 77
f 71 70 23
f 94 93 41
f 65 6 15
f 98 48 99
f 98 97 46
f 46 47 98
f 111 108 112
f 34 35 84
f 34 19 35
f 83 34 84
f 113 112 108
f 30 78 29
f 32 82 81
f 58 57 11
f 103 68 117
f 116 117 68
f 116 104 117
f 103 124 102
f 101 124 100
f 107 108 104
f 40 41 93
f 117 124 103
f 117 104 124
f 21 20 63
f 73 26 74
f 3 12 56
f 27 28 76
f 27 76 75
f 27 74 26
f 24 4 55
f 23 70 22
f 24 23 53
f 88 37 89
f 120 125 109
f 89 37 38
f 42 94 41
f 45 44 62
f 62 44 61
f 16 2 12
f 12 4 13
f 6 54 7
f 45 47 46
f 85 86 129
f 84 35 85
f 128 107 80
f 79 78 30
f 57 12 11
f 68 126 116
f 124 101 102
f 102 101 50
f 108 121 120
f 120 109 108
f 107 104 106
f 106 104 114
f 97 118 96
f 100 124 104
f 108 109 104
f 52 66 20
f 69 21 70
f 20 21 69
f 66 14 63
f 52 51 66
f 73 25 26
f 55 26 25
f 4 3 56
f 27 56 28
f 74 27 75
f 25 73 72
f 25 72 24
f 5 24 53
f 21 53 22
f 22 70 21
f 87 37 88
f 87 36 37
f 92 125 91
f 89 90 130
f 41 60 42
f 62 47 45
f 63 14 13
f 53 63 13
f 50 51 102
f 50 65 51
f 81 82 128
f 82 83 128
f 106 114 77
f 80 31 81
f 83 84 112
f 84 85 129
f 129 111 84
f 35 86 85
f 107 113 108
f 83 112 113
f 34 33 18
f 29 57 30
f 31 79 30
f 80 79 31
f 31 30 57
f 32 31 58
f 103 102 51
f 88 89 130
f 92 91 40
f 92 40 93
f 93 94 110
f 43 44 95
f 95 44 96
f 110 104 109
f 118 123 104
f 119 104 110
f 119 118 104
f 94 42 95
f 42 43 95
f 63 20 66
f 68 20 69
f 69 126 68
f 55 4 56
f 12 57 56
f 55 27 26
f 23 22 53
f 13 5 53
f 5 13 4
f 67 59 37
f 10 9 17
f 38 39 90
f 38 90 89
f 8 61 60
f 61 16 62
f 7 62 16
f 6 7 15
f 15 7 16
f 15 16 12
f 12 13 15
f 63 53 21
f 9 60 64
f 6 65 54
f 101 100 49
f 48 47 54
f 49 65 50
f 51 65 66
f 58 18 33
f 33 32 58
f 81 128 80
f 107 106 80
f 111 112 84
f 128 83 113
f 29 28 56
f 31 57 58
f 121 88 130
f 129 108 111
f 97 45 46
f 110 92 93
f 92 110 109
f 94 119 110
f 119 96 118
f 96 119 94
f 66 15 14
f 27 55 56
f 122 73 115
f 72 73 122
f 5 4 24
f 74 115 73
f 71 122 105
f 122 71 72
f 123 99 100
f 100 104 123
f 123 98 99
f 97 123 118
f 97 98 123
f 88 121 87
f 36 67 37
f 9 16 8
f 2 16 9
f 9 10 2
f 59 67 17
f 10 17 67
f 2 18 58
f 2 10 1
f 1 18 2
f 90 125 130
f 43 42 61
f 61 42 60
f 39 64 40
f 14 15 13
f 60 9 8
f 49 54 65
f 48 100 99
f 54 49 48
f 49 100 48
f 54 47 7
f 101 49 50
f 113 107 128
f 79 106 77
f 57 29 56
f 52 68 103
f 51 52 103
f 120 121 130
f 15 66 65
f 115 105 122
f 104 105 115
f 114 127 77
f 76 77 127
f 25 24 55
f 38 37 59
f 19 18 1
f 10 67 19
f 36 19 67
f 19 36 35
f 90 39 91
f 38 59 39
f 90 91 125
f 130 125 120
f 61 44 43
f 41 40 60
f 80 106 79
f 78 79 77
f 87 121 108
f 95 96 94
f 125 92 109
f 105 104 116
f 116 126 105
f 104 115 114
f 105 126 69
f 24 72 71
f 71 23 24
f 34 18 19
f 129 86 87
f 87 108 129
f 17 9 59
f 39 59 64
f 47 62 7
f 114 115 74
f 70 71 105
f 105 69 70
f 10 19 1
f 91 39 40
f 9 64 59
f 8 16 61
f 60 40 64
f 74 75 127
f 74 127 114
f 127 75 76

