# https://github.com/mikedh/trimesh
v -0.00976311 -0.08665773 0.00807365
v -0.01567084 -0.08577430 0.01078588
v -0.01420870 -0.08918759 0.01927438
v -0.00284817 -0.08231354 0.00469506
v 0.02111452 -0.09206403 0.00940051
v 0.02999863 -0.08882206 0.00724305
v -0.02004027 -0.08567067 0.02100311
v 0.02481160 -0.09536362 0.01696940
v -0.01783054 -0.07366986 0.00773827
v -0.02047408 -0.07747767 0.01114352
v -0.01156266 -0.02526527 0.00724430
v -0.02274862 -0.07194113 0.01696940
v 0.01098171 -0.07770358 0.00389729
v -0.00979994 -0.05098047 0.00388578
v 0.00176179 -0.03160396 0.00210601
v -0.00515315 -0.00394419 0.00414331
v 0.02481160 -0.00163921 0.00143860
v -0.02250380 -0.08231354 0.02273185
v -0.02349022 -0.07178291 0.02157936
v -0.01437307 -0.09025443 0.14720081
v -0.01047988 0.00924758 0.07459392
v -0.01720469 -0.08562941 0.20655406
v -0.00745813 -0.09318516 0.13452342
v 0.01443919 -0.09574999 0.17370808
v -0.01902964 -0.08245268 0.20458527
v -0.01965197 -0.07770358 0.19791040
v -0.01206809 -0.08909742 0.22211269
v -0.00630436 -0.09174949 0.20768544
v -0.01239751 -0.08590028 0.22800177
v -0.00284817 -0.08893045 0.22861338
v 0.03057405 -0.09599276 0.21923146
v 0.01559168 -0.08692350 0.23331872
v -0.01683141 -0.07539860 0.22509472
v -0.01470586 -0.07539860 0.22938974
v -0.00571688 -0.07989810 0.23310165
v -0.00591136 -0.05695875 0.23460981
v 0.01098171 -0.07309362 0.23730628
v 0.02826907 -0.07885607 0.23698004
v 0.00176179 -0.05695875 0.23763320
v 0.01415106 -0.05292504 0.23908146
v 0.00291428 0.02727176 0.00414471
v 0.00177468 0.05134908 0.00737051
v 0.00019740 0.05483282 0.01120695
v 0.00039117 0.05944278 0.01754564
v 0.02250662 0.05598530 0.00388874
v 0.01328669 0.06059527 0.00501364
v 0.00618176 0.06439209 0.01123316
v 0.01501543 0.06481971 0.00774948
v 0.01443919 0.06883120 0.01754564
v 0.00506744 0.06650347 0.01838723
v 0.01328669 0.07048376 0.04462916
v 0.00748120 0.06845883 0.09903821
v 0.00039787 0.06006014 0.06076403
v -0.01154156 -0.00394419 0.11838856
v -0.00289109 0.04467823 0.11838856
v 0.00098604 0.05944278 0.13538779
v 0.00414532 0.05803472 0.21980771
v 0.00307650 0.06416099 0.13509966
v 0.01213420 0.06874200 0.21750271
v 0.01674417 0.07043292 0.12933721
v 0.00784898 0.06520523 0.22211269
v 0.00182766 0.05322879 0.20136786
v -0.00155318 0.02832554 0.21980771
v 0.00637175 0.05368033 0.23030463
v 0.00342625 0.04852334 0.22789090
v 0.01604707 0.03537909 0.23522200
v 0.01139843 0.06074297 0.23026335
v 0.02769282 0.05713779 0.23310027
v 0.02250662 0.01449566 0.23722339
v 0.02077788 0.06877543 0.21923146
v 0.01530355 0.06549835 0.22823899
v 0.05592884 0.06196161 0.22441766
v 0.02914628 0.06218693 0.23015337
v 0.03802471 -0.09153347 0.01696940
v 0.03748899 -0.07655109 0.00662600
v 0.04041240 -0.08461852 0.01466442
v 0.03287903 -0.09487473 0.01696940
v 0.04274696 -0.08107371 0.05154411
v 0.03284522 -0.05943345 0.00362205
v 0.04786141 0.01219067 0.00373202
v 0.05705824 0.04561289 0.00764590
v 0.05384501 -0.02353653 0.05557783
v 0.04073830 -0.09153347 0.13221845
v 0.04288719 -0.08578084 0.11588272
v 0.02639627 -0.09691939 0.11478702
v 0.03172654 -0.09701066 0.09994870
v 0.03518401 -0.09598629 0.10052495
v 0.05174157 -0.03967139 0.06767897
v 0.05680382 -0.01431661 0.08439009
v 0.05319064 -0.04061829 0.12069354
v 0.05775966 -0.01546910 0.11838856
v 0.03523481 -0.09583994 0.20485365
v 0.05823518 -0.01316412 0.17486058
v 0.04357626 -0.08692350 0.21289277
v 0.03991134 -0.09273491 0.21142654
v 0.03403854 -0.09447660 0.22392091
v 0.03709899 -0.09088363 0.22827019
v 0.04329183 -0.08476290 0.22485961
v 0.04006833 -0.08317791 0.23094605
v 0.04737420 -0.05695875 0.22902763
v 0.04381122 -0.05465377 0.23403783
v 0.03748899 -0.04831507 0.23816746
v 0.04249158 0.04676539 0.23403345
v 0.03864148 0.01449566 0.00206149
v 0.05247137 0.04446040 0.00457658
v 0.04670892 0.05598530 0.00511450
v 0.04607520 0.06055384 0.00705581
v 0.05741967 0.05382238 0.00959386
v 0.05335803 0.06102108 0.01136073
v 0.06096198 0.04791787 0.01696940
v 0.05602880 0.06158973 0.01869813
v 0.06056152 0.05598530 0.01927438
v 0.05016638 0.06392507 0.01696940
v 0.06402071 0.05432816 0.10023683
v 0.06365103 0.03293550 0.10686366
v 0.06626104 0.05137534 0.17140311
v 0.06206068 0.05922443 0.11608357
v 0.03576026 0.06760398 0.10686364
v 0.05362386 0.06405139 0.09015254
v 0.06170548 0.00748321 0.16218320
v 0.06092856 0.01737687 0.21663835
v 0.06221823 0.05978905 0.20554564
v 0.06600282 0.04791787 0.19214794
v 0.05058976 0.04964393 0.23165671
v 0.05708133 0.05829029 0.22768712
v 0.05938631 0.04907036 0.22852406
v 0.06571385 0.05368033 0.21058777
v 0.06347895 0.05368033 0.22441766
v 0.06125476 0.05933325 0.22297294
v 0.05723044 0.06295181 0.21750271
f 8 85 23
f 63 26 33
f 8 23 3
f 24 31 28
f 85 31 24
f 65 33 34
f 34 36 65
f 65 36 64
f 98 93 121
f 106 45 46
f 50 53 58
f 65 63 33
f 12 43 11
f 100 101 99
f 25 33 26
f 19 25 26
f 90 89 91
f 90 88 89
f 86 31 85
f 92 31 86
f 66 69 68
f 40 103 69
f 101 126 102
f 39 37 40
f 127 121 123
f 122 127 116
f 110 116 115
f 100 98 121
f 93 120 121
f 121 120 123
f 93 98 94
f 127 122 128
f 128 122 129
f 128 125 126
f 100 126 101
f 128 126 100
f 1 3 2
f 80 75 79
f 14 4 9
f 46 48 107
f 46 107 106
f 61 65 64
f 57 61 58
f 58 61 52
f 63 62 54
f 54 62 55
f 55 21 54
f 57 62 63
f 64 36 39
f 39 66 64
f 39 36 35
f 102 124 103
f 128 129 125
f 70 130 118
f 42 43 47
f 19 44 43
f 47 43 44
f 83 94 95
f 100 99 98
f 95 98 97
f 30 29 27
f 34 25 29
f 25 27 29
f 20 3 23
f 6 13 79
f 75 6 79
f 78 76 88
f 66 39 40
f 126 124 102
f 102 38 101
f 35 37 39
f 30 32 35
f 110 112 114
f 110 114 116
f 91 89 115
f 82 110 89
f 93 90 91
f 127 128 100
f 121 127 100
f 11 10 12
f 10 11 9
f 3 5 8
f 3 1 5
f 81 105 108
f 76 81 110
f 4 14 13
f 15 17 79
f 13 15 79
f 118 130 119
f 109 108 106
f 106 108 105
f 67 61 64
f 50 44 53
f 58 52 50
f 21 53 44
f 19 21 44
f 57 58 56
f 26 63 54
f 19 26 54
f 54 21 19
f 63 65 57
f 103 68 69
f 118 60 70
f 12 19 43
f 87 95 92
f 87 83 95
f 97 98 99
f 95 97 96
f 96 32 30
f 31 96 30
f 25 22 27
f 23 28 27
f 85 24 23
f 83 84 94
f 87 77 74
f 69 66 40
f 40 38 102
f 102 103 40
f 72 70 71
f 130 70 72
f 61 67 59
f 116 127 123
f 115 89 110
f 120 116 123
f 120 115 116
f 90 93 94
f 94 84 90
f 84 78 90
f 91 120 93
f 110 82 76
f 89 88 82
f 81 75 80
f 79 17 104
f 14 15 13
f 113 118 119
f 107 109 106
f 48 49 107
f 17 41 45
f 45 41 46
f 59 52 61
f 51 60 118
f 59 60 51
f 51 118 113
f 48 47 49
f 21 55 53
f 65 61 57
f 35 34 29
f 36 34 35
f 125 129 72
f 124 126 125
f 70 60 59
f 42 47 46
f 46 41 42
f 98 95 94
f 92 86 87
f 38 97 99
f 96 92 95
f 24 28 23
f 30 28 31
f 20 27 22
f 30 35 29
f 34 33 25
f 25 19 18
f 74 77 6
f 88 76 82
f 90 78 88
f 78 83 74
f 84 83 78
f 85 8 86
f 87 74 83
f 38 99 101
f 71 59 67
f 59 71 70
f 71 73 72
f 35 32 37
f 115 120 91
f 18 19 12
f 6 5 4
f 4 13 6
f 8 5 6
f 6 77 8
f 7 3 20
f 75 81 76
f 105 80 104
f 104 80 79
f 81 80 105
f 9 16 14
f 7 18 10
f 15 41 17
f 114 112 117
f 49 113 109
f 104 17 45
f 106 105 45
f 50 47 44
f 51 52 59
f 55 62 56
f 62 57 56
f 68 103 124
f 72 129 130
f 72 73 125
f 9 11 16
f 43 42 11
f 48 46 47
f 97 32 96
f 20 22 7
f 20 23 27
f 6 75 74
f 76 74 75
f 74 76 78
f 77 86 8
f 77 87 86
f 71 68 73
f 67 64 66
f 112 110 108
f 110 81 108
f 7 10 2
f 10 18 12
f 9 2 10
f 5 1 4
f 2 9 1
f 1 9 4
f 14 16 41
f 15 14 41
f 116 114 117
f 49 109 107
f 45 105 104
f 53 56 58
f 125 68 124
f 125 73 68
f 96 31 92
f 40 37 38
f 32 97 38
f 28 30 27
f 25 18 22
f 22 18 7
f 68 67 66
f 109 112 108
f 41 16 42
f 11 42 16
f 7 2 3
f 122 130 129
f 113 119 111
f 113 111 109
f 49 51 113
f 51 50 52
f 50 49 47
f 55 56 53
f 32 38 37
f 71 67 68
f 119 122 111
f 130 122 119
f 49 50 51
f 116 117 122
f 111 117 112
f 122 117 111
f 111 112 109

