o convex_0
v 0.014444 -0.001745 0.000794
v -0.014444 -0.001745 0.000794
v -0.014283 -0.002695 0.000794
v -0.003967 0.011585 0.005079
v 0.000792 -0.012222 0.005079
v -0.001745 0.014444 0.000794
v 0.011269 0.005870 0.004920
v 0.001745 -0.014444 0.000794
v -0.011110 -0.006187 0.004920
v 0.010952 -0.007299 0.004603
v -0.011905 0.006348 0.004127
v 0.008410 0.011902 0.000794
v -0.007459 -0.012539 0.000953
v -0.010793 0.009838 0.000794
v 0.003809 0.012380 0.004762
v 0.008888 -0.011586 0.000953
v 0.012222 -0.000472 0.005079
v -0.012063 0.002061 0.005079
v -0.004762 -0.012377 0.004444
v 0.013650 0.005076 0.000953
v 0.005554 -0.012061 0.004444
v -0.007776 0.010791 0.004444
v -0.011585 -0.008888 0.000794
v 0.010157 0.008888 0.004127
v -0.014124 0.003489 0.000953
v -0.013333 -0.000792 0.004286
v 0.013333 0.000792 0.004286
v 0.012538 -0.007457 0.000794
v -0.008571 -0.009996 0.004603
v -0.002220 0.013172 0.004286
v 0.002698 0.014283 0.000953
v -0.005870 0.013330 0.000953
v 0.007140 0.009996 0.005079
v 0.012855 -0.003967 0.004127
v 0.007935 -0.009363 0.005079
v -0.000633 -0.013491 0.003968
v -0.003489 -0.014125 0.000794
v -0.012063 -0.006029 0.004127
v -0.006665 -0.010313 0.005079
v 0.006032 0.012060 0.004127
v -0.009363 0.007935 0.005079
v 0.011902 0.008410 0.000794
v 0.009046 -0.009996 0.004127
v 0.012538 0.004917 0.004127
v 0.005871 -0.013330 0.000794
v -0.013333 0.001742 0.004127
v 0.001745 0.013333 0.004127
v 0.002698 -0.013172 0.004127
v -0.012538 0.007457 0.000794
v 0.014283 0.002856 0.000953
v -0.010157 0.008885 0.004127
v -0.013649 -0.005076 0.000953
v -0.008887 0.011585 0.000953
v -0.005079 0.012377 0.004286
v -0.009999 -0.009046 0.004127
v -0.013013 -0.002537 0.004444
v 0.005079 0.013647 0.000953
v -0.000475 0.012222 0.005079
v 0.012060 -0.003965 0.004920
v -0.011905 -0.002853 0.005079
v 0.013650 -0.005079 0.000953
v 0.011427 -0.009046 0.000953
v -0.009999 -0.010630 0.000953
v -0.007301 -0.011427 0.003968
f 63 13 64 
f 3 2 1 
f 1 2 6 
f 3 1 8 
f 1 6 12 
f 6 2 14 
f 4 5 17 
f 5 4 18 
f 3 8 23 
f 7 17 27 
f 8 1 28 
f 12 6 31 
f 6 14 32 
f 30 6 32 
f 4 17 33 
f 17 7 33 
f 7 24 33 
f 1 27 34 
f 10 28 34 
f 17 5 35 
f 5 21 35 
f 5 19 36 
f 19 13 37 
f 23 8 37 
f 13 23 37 
f 8 36 37 
f 36 19 37 
f 5 18 39 
f 19 5 39 
f 9 29 39 
f 29 19 39 
f 24 12 40 
f 15 33 40 
f 33 24 40 
f 18 4 41 
f 11 18 41 
f 4 22 41 
f 1 12 42 
f 12 24 42 
f 21 16 43 
f 10 35 43 
f 35 21 43 
f 24 7 44 
f 7 27 44 
f 20 42 44 
f 42 24 44 
f 16 21 45 
f 8 28 45 
f 28 16 45 
f 18 11 46 
f 25 2 46 
f 11 25 46 
f 2 26 46 
f 26 18 46 
f 6 30 47 
f 31 6 47 
f 15 40 47 
f 21 5 48 
f 36 8 48 
f 5 36 48 
f 8 45 48 
f 45 21 48 
f 14 2 49 
f 2 25 49 
f 25 11 49 
f 27 1 50 
f 1 42 50 
f 42 20 50 
f 44 27 50 
f 20 44 50 
f 11 41 51 
f 41 22 51 
f 14 49 51 
f 49 11 51 
f 3 23 52 
f 23 38 52 
f 32 14 53 
f 22 32 53 
f 14 51 53 
f 51 22 53 
f 22 4 54 
f 4 30 54 
f 32 22 54 
f 30 32 54 
f 29 9 55 
f 38 23 55 
f 9 38 55 
f 2 3 56 
f 26 2 56 
f 18 26 56 
f 38 9 56 
f 3 52 56 
f 52 38 56 
f 12 31 57 
f 40 12 57 
f 31 47 57 
f 47 40 57 
f 30 4 58 
f 4 33 58 
f 33 15 58 
f 15 47 58 
f 47 30 58 
f 27 17 59 
f 10 34 59 
f 34 27 59 
f 17 35 59 
f 35 10 59 
f 39 18 60 
f 9 39 60 
f 56 9 60 
f 18 56 60 
f 28 1 61 
f 1 34 61 
f 34 28 61 
f 28 10 62 
f 16 28 62 
f 43 16 62 
f 10 43 62 
f 23 13 63 
f 55 23 63 
f 55 63 64 
f 13 19 64 
f 19 29 64 
f 29 55 64 
o convex_1
v 0.014286 0.000791 -0.000952
v -0.014285 -0.000951 -0.001111
v -0.013491 -0.000632 -0.003968
v -0.000951 0.014286 -0.000952
v 0.007778 0.009520 -0.005079
v 0.003174 -0.012535 -0.004762
v -0.003174 -0.013967 -0.000952
v -0.007934 0.009361 -0.005079
v -0.007777 -0.009520 -0.005079
v 0.011743 -0.003490 -0.005079
v 0.009679 -0.010633 -0.000952
v -0.011746 0.008253 -0.000952
v 0.009839 0.010474 -0.000952
v -0.011427 -0.008729 -0.000952
v 0.001426 0.013172 -0.004444
v 0.012378 0.004760 -0.004444
v -0.012378 0.003806 -0.004762
v 0.011427 -0.007140 -0.004127
v -0.006030 0.012062 -0.004127
v -0.005079 -0.012378 -0.004286
v -0.012062 -0.005236 -0.004603
v 0.004444 -0.013648 -0.000952
v 0.006983 -0.010633 -0.004921
v 0.005714 0.013172 -0.001111
v 0.013491 -0.004920 -0.001111
v 0.013332 -0.001742 -0.004127
v -0.007299 0.012378 -0.000952
v 0.008094 0.010792 -0.004127
v -0.010157 0.008888 -0.004127
v -0.012221 -0.000632 -0.005079
v 0.012538 0.006983 -0.001111
v -0.013650 0.004441 -0.000952
v -0.008888 -0.010314 -0.003809
v -0.000635 -0.013491 -0.003968
v -0.000635 -0.012222 -0.005079
v -0.002061 0.012062 -0.005079
v -0.007299 -0.012378 -0.001111
v 0.007299 -0.011427 -0.003968
v -0.013491 -0.004920 -0.000952
v 0.010317 0.008569 -0.004286
v 0.012062 0.002061 -0.005079
v -0.003015 0.013172 -0.003968
v 0.005235 0.012059 -0.004603
v -0.012537 0.004917 -0.004127
v 0.013332 0.002221 -0.003968
v 0.000951 -0.014286 -0.001111
v -0.011111 -0.007775 -0.003968
v 0.003015 -0.013173 -0.003968
v -0.004919 0.013488 -0.001111
v 0.013648 0.004441 -0.000952
v 0.009523 -0.007775 -0.005079
v 0.012378 -0.007300 -0.000952
v 0.003174 0.013967 -0.000952
v 0.009998 -0.009045 -0.004127
v -0.013332 0.002221 -0.003968
v -0.008728 0.011427 -0.001111
v -0.013172 -0.002696 -0.004127
v 0.002856 0.011903 -0.005079
v 0.012378 -0.005076 -0.004286
v 0.010633 0.006983 -0.004921
v -0.010792 0.005870 -0.005079
v 0.003650 0.013013 -0.003968
v -0.010157 -0.007616 -0.004921
v 0.006983 -0.012538 -0.001111
f 86 102 128 
f 65 68 71 
f 72 69 73 
f 73 69 74 
f 65 71 75 
f 71 68 76 
f 68 65 77 
f 71 76 78 
f 75 71 86 
f 65 89 90 
f 76 68 91 
f 88 77 92 
f 83 72 93 
f 72 73 94 
f 67 81 94 
f 78 76 96 
f 73 84 97 
f 71 84 98 
f 73 74 99 
f 84 73 99 
f 87 70 99 
f 70 98 99 
f 98 84 99 
f 69 72 100 
f 72 83 100 
f 71 78 101 
f 84 71 101 
f 78 97 101 
f 97 84 101 
f 70 87 102 
f 96 66 103 
f 78 96 103 
f 69 92 104 
f 92 77 104 
f 77 95 104 
f 95 80 104 
f 74 69 105 
f 90 74 105 
f 68 79 106 
f 79 100 106 
f 100 83 106 
f 92 69 107 
f 88 92 107 
f 76 93 108 
f 96 76 108 
f 65 90 109 
f 105 80 109 
f 90 105 109 
f 86 71 110 
f 71 98 110 
f 97 78 111 
f 103 85 111 
f 78 103 111 
f 98 70 112 
f 70 102 112 
f 102 86 112 
f 86 110 112 
f 110 98 112 
f 91 68 113 
f 83 91 113 
f 68 106 113 
f 106 83 113 
f 77 65 114 
f 95 77 114 
f 80 95 114 
f 65 109 114 
f 109 80 114 
f 99 74 115 
f 87 99 115 
f 65 75 116 
f 89 65 116 
f 82 89 116 
f 68 77 117 
f 79 68 117 
f 77 88 117 
f 75 102 118 
f 102 87 118 
f 115 82 118 
f 87 115 118 
f 116 75 118 
f 82 116 118 
f 67 66 119 
f 81 67 119 
f 66 96 119 
f 108 81 119 
f 96 108 119 
f 76 91 120 
f 91 83 120 
f 93 76 120 
f 83 93 120 
f 66 67 121 
f 67 94 121 
f 94 85 121 
f 103 66 121 
f 85 103 121 
f 69 100 122 
f 100 79 122 
f 79 107 122 
f 107 69 122 
f 89 82 123 
f 90 89 123 
f 74 90 123 
f 115 74 123 
f 82 115 123 
f 69 104 124 
f 104 80 124 
f 105 69 124 
f 80 105 124 
f 93 72 125 
f 72 94 125 
f 94 81 125 
f 81 108 125 
f 108 93 125 
f 107 79 126 
f 88 107 126 
f 79 117 126 
f 117 88 126 
f 94 73 127 
f 85 94 127 
f 73 97 127 
f 111 85 127 
f 97 111 127 
f 75 86 128 
f 102 75 128 
o convex_2
v -0.002855 -0.014285 -0.000952
v 0.015079 0.015079 0.000635
v 0.001904 0.014757 0.000794
v 0.015079 -0.015079 0.000635
v -0.015079 -0.015079 0.000635
v -0.015079 0.015079 -0.000635
v 0.013966 0.004121 -0.000952
v -0.015079 0.015079 0.000635
v 0.015079 -0.015079 -0.000635
v -0.015079 -0.015079 -0.000635
v 0.015079 0.015079 -0.000635
v -0.010793 0.009839 -0.000952
v -0.010158 -0.010952 0.000794
v 0.014442 -0.003649 0.000794
v 0.001745 0.014442 -0.000952
v -0.014285 -0.002855 -0.000952
v -0.014442 0.003646 0.000794
v 0.010633 -0.009999 -0.000952
v 0.001904 -0.014761 0.000794
v 0.012222 0.008570 0.000794
v 0.014442 -0.001745 -0.000952
v -0.009839 -0.010793 -0.000952
v 0.009839 0.010790 -0.000952
v -0.009045 0.011903 0.000794
v 0.001745 -0.014442 -0.000952
v -0.014442 0.001582 -0.000952
v 0.010158 -0.010952 0.000794
v -0.005078 0.013650 -0.000952
v -0.014761 -0.002061 0.000794
v 0.014760 0.002058 0.000794
v -0.004284 -0.014285 0.000794
v 0.006506 -0.013016 -0.000952
v 0.007300 0.013016 0.000794
v -0.013491 0.005550 -0.000952
v -0.012538 -0.007460 -0.000952
v 0.013332 -0.005872 -0.000952
v -0.004284 0.014285 0.000794
v 0.005553 0.013488 -0.000952
v -0.012856 -0.007616 0.000794
v 0.012537 0.007460 -0.000952
v -0.012538 0.008095 0.000794
v -0.006506 -0.013016 -0.000952
v 0.005712 -0.013807 0.000794
v -0.001745 0.014442 -0.000952
v -0.007460 0.012537 -0.000952
v 0.013013 -0.007301 0.000794
f 142 155 174 
f 131 130 136 
f 134 133 136 
f 130 134 136 
f 130 132 137 
f 132 133 137 
f 133 134 138 
f 137 133 138 
f 134 130 139 
f 130 137 139 
f 135 129 140 
f 131 141 142 
f 134 139 143 
f 135 140 143 
f 140 129 144 
f 141 131 145 
f 129 135 146 
f 133 132 147 
f 142 141 147 
f 131 142 148 
f 135 139 149 
f 139 137 149 
f 146 135 149 
f 144 129 150 
f 135 143 151 
f 145 131 152 
f 138 129 153 
f 137 138 153 
f 129 146 153 
f 138 134 154 
f 144 138 154 
f 140 144 154 
f 142 147 155 
f 143 140 156 
f 136 133 157 
f 145 136 157 
f 141 145 157 
f 132 130 158 
f 142 132 158 
f 130 148 158 
f 148 142 158 
f 141 133 159 
f 133 147 159 
f 147 141 159 
f 146 137 160 
f 137 153 160 
f 153 146 160 
f 130 131 161 
f 131 148 161 
f 148 130 161 
f 134 140 162 
f 154 134 162 
f 140 154 162 
f 138 144 163 
f 150 138 163 
f 144 150 163 
f 137 146 164 
f 149 137 164 
f 146 149 164 
f 131 136 165 
f 152 131 165 
f 136 152 165 
f 143 139 166 
f 139 151 166 
f 151 143 166 
f 133 141 167 
f 157 133 167 
f 141 157 167 
f 139 135 168 
f 135 151 168 
f 151 139 168 
f 136 145 169 
f 152 136 169 
f 145 152 169 
f 129 138 170 
f 150 129 170 
f 138 150 170 
f 147 132 171 
f 132 155 171 
f 155 147 171 
f 134 143 172 
f 156 134 172 
f 143 156 172 
f 140 134 173 
f 134 156 173 
f 156 140 173 
f 132 142 174 
f 155 132 174 
