o convex_0
v 0.072641 0.005295 -0.003733
v 0.067500 0.002296 -0.003733
v 0.065787 0.001867 -0.003304
v 0.076499 0.004010 0.003981
v 0.069643 0.004437 0.003552
v 0.075640 0.003581 -0.003733
v 0.068786 0.001867 0.003552
v 0.076499 0.005295 0.003981
v 0.065787 0.002296 0.003552
v 0.076499 0.005295 -0.003733
v 0.067929 0.003581 -0.003733
v 0.068786 0.001867 -0.003733
v 0.073069 0.005295 0.003981
v 0.075640 0.003581 0.003981
v 0.066215 0.002724 -0.003304
v 0.065787 0.001867 0.003552
v 0.076499 0.004010 -0.003733
v 0.069643 0.004437 -0.003733
v 0.066215 0.002724 0.003552
v 0.070928 0.004866 0.003552
f 18 5 20 
f 2 1 6 
f 6 1 10 
f 1 8 10 
f 8 4 10 
f 1 2 11 
f 2 3 11 
f 3 2 12 
f 2 6 12 
f 6 7 12 
f 7 3 12 
f 8 1 13 
f 4 8 13 
f 6 4 14 
f 7 6 14 
f 4 13 14 
f 3 9 15 
f 11 3 15 
f 3 7 16 
f 9 3 16 
f 13 9 16 
f 14 13 16 
f 7 14 16 
f 4 6 17 
f 6 10 17 
f 10 4 17 
f 1 11 18 
f 15 5 18 
f 11 15 18 
f 13 5 19 
f 9 13 19 
f 15 9 19 
f 5 15 19 
f 13 1 20 
f 5 13 20 
f 1 18 20 
o convex_1
v 0.143780 0.006153 0.007409
v 0.182778 0.007866 -0.009304
v 0.182778 0.009152 -0.009304
v 0.076940 0.004010 -0.004160
v 0.083366 0.005724 0.004409
v 0.188344 0.009152 0.009124
v 0.195212 0.007866 0.002264
v 0.083366 0.005724 -0.004160
v 0.087654 0.004010 0.004409
v 0.185776 0.007438 -0.009304
v 0.185776 0.007438 0.009124
v 0.193492 0.009581 -0.004589
v 0.181488 0.009152 0.009124
v 0.087654 0.004010 -0.004589
v 0.076499 0.005296 0.003979
v 0.076499 0.004010 0.003979
v 0.194352 0.009581 0.004409
v 0.076940 0.005296 -0.004160
v 0.191772 0.007866 -0.007589
v 0.191354 0.007866 0.007838
v 0.189204 0.009152 -0.008875
v 0.195212 0.007866 -0.002018
v 0.173772 0.007010 0.008693
v 0.195212 0.009581 -0.002018
v 0.095370 0.006153 -0.005018
v 0.112498 0.004867 -0.005446
v 0.082077 0.004010 0.004409
v 0.179350 0.008724 0.009124
v 0.169054 0.008724 -0.008446
v 0.095370 0.006153 0.004838
v 0.194352 0.009581 -0.004589
v 0.193492 0.009581 0.004409
v 0.099646 0.006153 0.005266
v 0.179350 0.007438 0.009124
v 0.076499 0.005296 -0.003732
v 0.193922 0.007866 0.005264
v 0.191354 0.009152 0.007838
v 0.147638 0.006153 -0.007589
v 0.173772 0.007010 -0.008446
v 0.194352 0.007866 -0.004589
v 0.112498 0.004867 0.005695
v 0.195212 0.009581 0.001836
v 0.191772 0.009152 -0.007589
v 0.187496 0.007866 -0.009304
v 0.170344 0.008724 0.008693
v 0.076499 0.004010 -0.003732
v 0.188344 0.007866 0.009124
v 0.187496 0.009152 -0.009304
v 0.135216 0.005724 0.006981
v 0.190494 0.007866 -0.008446
f 64 41 70 
f 23 22 24 
f 22 23 30 
f 30 27 31 
f 31 26 33 
f 29 24 34 
f 25 28 35 
f 24 29 36 
f 33 26 37 
f 23 24 38 
f 27 30 42 
f 30 31 43 
f 32 37 44 
f 27 42 44 
f 28 25 45 
f 23 38 45 
f 38 28 45 
f 29 34 46 
f 25 35 47 
f 36 29 47 
f 35 36 47 
f 31 33 48 
f 32 23 49 
f 23 45 49 
f 45 32 49 
f 25 33 50 
f 45 25 50 
f 32 45 50 
f 23 32 51 
f 32 44 51 
f 44 42 51 
f 37 32 52 
f 33 37 52 
f 50 33 52 
f 32 50 52 
f 47 21 53 
f 25 47 53 
f 43 31 54 
f 31 48 54 
f 35 28 55 
f 36 35 55 
f 38 24 55 
f 28 38 55 
f 31 27 56 
f 27 37 56 
f 40 31 56 
f 40 56 57 
f 37 26 57 
f 26 40 57 
f 56 37 57 
f 24 22 58 
f 22 30 58 
f 34 24 58 
f 30 34 58 
f 34 30 59 
f 30 43 59 
f 46 34 59 
f 43 46 59 
f 30 39 60 
f 42 30 60 
f 39 51 60 
f 51 42 60 
f 29 46 61 
f 46 43 61 
f 37 27 62 
f 27 44 62 
f 44 37 62 
f 41 51 63 
f 51 39 63 
f 30 23 64 
f 33 25 65 
f 48 33 65 
f 25 53 65 
f 53 21 65 
f 21 54 65 
f 54 48 65 
f 24 36 66 
f 55 24 66 
f 36 55 66 
f 26 31 67 
f 40 26 67 
f 31 40 67 
f 23 51 68 
f 51 41 68 
f 64 23 68 
f 41 64 68 
f 21 47 69 
f 47 29 69 
f 54 21 69 
f 43 54 69 
f 29 61 69 
f 61 43 69 
f 39 30 70 
f 63 39 70 
f 41 63 70 
f 30 64 70 
o convex_2
v 0.040930 -0.007133 -0.012304
v 0.055498 -0.003705 0.005266
v 0.055498 -0.005419 0.005266
v 0.040501 -0.005847 0.012124
v 0.046501 -0.007133 0.010409
v 0.054212 -0.003705 -0.005446
v 0.049926 -0.006705 -0.008445
v 0.040501 -0.005847 -0.012304
v 0.040501 -0.007133 0.012124
v 0.055498 -0.005419 -0.005018
v 0.046072 -0.007133 -0.010590
v 0.049926 -0.006705 0.008695
v 0.055069 -0.003705 -0.005446
v 0.044358 -0.005419 0.011266
v 0.054212 -0.003705 0.005266
v 0.046072 -0.005419 -0.010590
v 0.040501 -0.007133 -0.012304
v 0.052068 -0.006276 -0.007161
v 0.050355 -0.006276 -0.008445
v 0.055498 -0.003705 -0.005018
v 0.049069 -0.005419 0.009123
v 0.052068 -0.006276 0.007409
v 0.043073 -0.007133 0.011694
v 0.046501 -0.007133 -0.010159
v 0.049498 -0.004990 -0.008875
v 0.054640 -0.005419 -0.005874
f 95 83 96 
f 74 76 78 
f 74 78 79 
f 71 75 79 
f 72 73 80 
f 75 71 81 
f 75 77 82 
f 76 72 83 
f 78 76 83 
f 72 76 85 
f 76 74 85 
f 84 72 85 
f 74 84 85 
f 71 78 86 
f 81 71 86 
f 78 83 86 
f 78 71 87 
f 79 78 87 
f 71 79 87 
f 80 73 88 
f 82 77 88 
f 77 81 89 
f 88 77 89 
f 72 80 90 
f 83 72 90 
f 80 83 90 
f 82 72 91 
f 75 82 91 
f 72 84 91 
f 84 75 91 
f 73 72 92 
f 72 82 92 
f 88 73 92 
f 82 88 92 
f 74 79 93 
f 79 75 93 
f 84 74 93 
f 75 84 93 
f 77 75 94 
f 75 81 94 
f 81 77 94 
f 81 86 95 
f 86 83 95 
f 89 81 95 
f 89 95 96 
f 83 80 96 
f 80 88 96 
f 88 89 96 
o convex_3
v 0.060643 -0.003276 0.003124
v 0.055499 -0.004990 -0.005019
v 0.055499 -0.003704 -0.005019
v 0.067928 0.001438 -0.003304
v 0.064926 0.001867 0.003552
v 0.055499 -0.003276 0.004409
v 0.064926 0.001867 -0.003304
v 0.067928 0.001438 0.003552
v 0.056358 -0.004990 0.004838
v 0.058929 -0.004133 -0.003732
v 0.055499 -0.003276 -0.004589
v 0.061501 -0.002847 -0.003304
v 0.067928 0.001867 -0.003304
v 0.066211 0.000152 0.003552
v 0.055499 -0.003704 0.004838
v 0.056785 -0.004990 -0.004589
v 0.067928 0.001867 0.003552
v 0.055499 -0.004990 0.004838
v 0.056785 -0.004990 0.004409
v 0.067498 0.001010 -0.003304
v 0.061501 -0.002847 0.003124
f 110 115 117 
f 98 99 100 
f 99 98 102 
f 102 101 103 
f 99 102 107 
f 103 99 107 
f 102 103 107 
f 97 106 108 
f 100 99 109 
f 99 103 109 
f 103 101 109 
f 104 100 109 
f 104 105 110 
f 101 102 111 
f 102 98 111 
f 105 98 112 
f 108 106 112 
f 105 104 113 
f 109 101 113 
f 104 109 113 
f 101 111 113 
f 111 105 113 
f 98 105 114 
f 111 98 114 
f 105 111 114 
f 106 97 115 
f 110 105 115 
f 105 112 115 
f 112 106 115 
f 98 100 116 
f 100 104 116 
f 104 110 116 
f 110 108 116 
f 112 98 116 
f 108 112 116 
f 97 108 117 
f 108 110 117 
f 115 97 117 
o convex_4
v 0.039640 -0.005847 0.012552
v 0.039640 -0.007133 0.007838
v 0.034925 -0.007133 0.008696
v 0.021214 -0.003705 0.008696
v 0.021646 -0.005419 0.012981
v 0.022932 -0.003705 0.012981
v 0.040499 -0.005847 0.007838
v 0.037069 -0.007133 0.012981
v 0.021646 -0.005419 0.008696
v 0.030215 -0.006705 0.012981
v 0.040499 -0.007133 0.012124
v 0.037069 -0.005419 0.012981
v 0.037925 -0.005419 0.008696
v 0.026789 -0.006276 0.008696
v 0.022932 -0.003705 0.008696
v 0.021214 -0.003705 0.012981
v 0.037925 -0.005419 0.012552
v 0.040499 -0.005847 0.012124
v 0.023789 -0.005847 0.012981
v 0.021214 -0.004990 0.008696
v 0.040499 -0.007133 0.007838
v 0.034925 -0.007133 0.012981
f 125 127 139 
f 119 121 124 
f 120 119 125 
f 123 122 125 
f 125 122 127 
f 125 119 128 
f 118 125 128 
f 125 118 129 
f 123 125 129 
f 119 120 131 
f 126 119 131 
f 120 127 131 
f 121 123 132 
f 124 121 132 
f 123 130 132 
f 130 124 132 
f 123 121 133 
f 122 123 133 
f 123 129 134 
f 130 123 134 
f 124 130 134 
f 128 124 135 
f 118 128 135 
f 129 118 135 
f 124 134 135 
f 134 129 135 
f 122 126 136 
f 127 122 136 
f 126 131 136 
f 131 127 136 
f 121 119 137 
f 119 126 137 
f 126 122 137 
f 133 121 137 
f 122 133 137 
f 119 124 138 
f 128 119 138 
f 124 128 138 
f 120 125 139 
f 127 120 139 
o convex_5
v 0.016927 -0.004561 -0.001590
v 0.001929 0.001010 0.001410
v 0.001929 0.001010 -0.001590
v 0.020354 -0.003276 0.001410
v 0.000644 -0.000705 0.001410
v 0.020354 -0.003276 -0.001590
v 0.019068 -0.004990 0.001410
v 0.000644 -0.000705 -0.001590
v 0.021214 -0.004990 -0.001590
v -0.000214 0.001010 -0.001161
v 0.010926 -0.003276 0.001410
v 0.021214 -0.004990 0.001410
v -0.000214 0.001010 0.000981
v 0.010926 -0.003276 -0.001590
v 0.021214 -0.003703 0.001410
v -0.000214 -0.000277 -0.001161
v 0.021214 -0.003703 -0.001590
f 154 148 156 
f 142 141 143 
f 143 141 144 
f 140 142 145 
f 142 143 145 
f 143 144 146 
f 142 140 147 
f 140 145 148 
f 146 140 148 
f 141 142 149 
f 142 147 149 
f 140 146 150 
f 146 144 150 
f 144 147 150 
f 143 146 151 
f 146 148 151 
f 144 141 152 
f 141 149 152 
f 147 140 153 
f 140 150 153 
f 150 147 153 
f 145 143 154 
f 143 151 154 
f 151 148 154 
f 147 144 155 
f 149 147 155 
f 144 152 155 
f 152 149 155 
f 148 145 156 
f 145 154 156 
o convex_6
v 0.016927 -0.004561 0.003553
v 0.001929 0.001010 0.006553
v 0.001929 0.001010 0.003553
v 0.020354 -0.003276 0.006553
v 0.000644 -0.000705 0.006553
v 0.020354 -0.003276 0.003553
v 0.019068 -0.004990 0.006553
v 0.000644 -0.000705 0.003553
v 0.021214 -0.004990 0.003553
v -0.000214 0.001010 0.003981
v 0.010926 -0.003276 0.006553
v 0.021214 -0.004990 0.006553
v -0.000214 0.001010 0.006124
v 0.010926 -0.003276 0.003553
v 0.021214 -0.003703 0.006553
v -0.000214 -0.000277 0.003981
v 0.021214 -0.003703 0.003553
f 171 165 173 
f 159 158 160 
f 160 158 161 
f 157 159 162 
f 159 160 162 
f 160 161 163 
f 159 157 164 
f 157 162 165 
f 163 157 165 
f 158 159 166 
f 159 164 166 
f 157 163 167 
f 163 161 167 
f 161 164 167 
f 160 163 168 
f 163 165 168 
f 161 158 169 
f 158 166 169 
f 164 157 170 
f 157 167 170 
f 167 164 170 
f 162 160 171 
f 160 168 171 
f 168 165 171 
f 164 161 172 
f 166 164 172 
f 161 169 172 
f 169 166 172 
f 165 162 173 
f 162 171 173 
o convex_7
v 0.010926 -0.003276 0.008695
v 0.001929 0.001010 0.011695
v 0.001929 0.001010 0.008695
v 0.020354 -0.003276 0.012981
v 0.000644 -0.000705 0.011695
v 0.020354 -0.003276 0.008695
v 0.019068 -0.004990 0.012981
v 0.021214 -0.004990 0.008695
v -0.000214 -0.000277 0.008695
v -0.000214 0.001010 0.010838
v 0.021214 -0.004990 0.012981
v 0.019068 -0.004990 0.008695
v 0.010926 -0.003276 0.012124
v 0.021214 -0.003703 0.012981
v 0.000216 0.000581 0.011695
v 0.000644 -0.000705 0.008695
v 0.021214 -0.003703 0.008695
v -0.000214 0.001010 0.009124
v -0.000214 -0.000277 0.011266
v 0.014783 -0.004132 0.012552
f 178 186 193 
f 176 175 177 
f 174 176 179 
f 176 177 179 
f 174 179 181 
f 176 174 182 
f 175 176 183 
f 177 180 184 
f 180 181 184 
f 174 181 185 
f 181 180 185 
f 178 174 186 
f 179 177 187 
f 177 184 187 
f 184 181 187 
f 177 175 188 
f 180 177 188 
f 178 180 188 
f 175 183 188 
f 174 178 189 
f 182 174 189 
f 178 182 189 
f 181 179 190 
f 179 187 190 
f 187 181 190 
f 176 182 191 
f 182 183 191 
f 183 176 191 
f 182 178 192 
f 183 182 192 
f 178 188 192 
f 188 183 192 
f 180 178 193 
f 174 185 193 
f 185 180 193 
f 186 174 193 
o convex_8
v 0.010926 -0.003276 -0.012304
v 0.001929 0.001010 -0.008447
v 0.001929 0.001010 -0.011447
v 0.020354 -0.003276 -0.008447
v 0.000644 -0.000705 -0.008447
v 0.020354 -0.003276 -0.012733
v 0.019068 -0.004990 -0.008447
v 0.021214 -0.004990 -0.012733
v 0.000644 -0.000705 -0.011447
v 0.000216 0.001010 -0.011447
v 0.015213 -0.004132 -0.012733
v 0.021214 -0.004990 -0.008447
v 0.003215 0.000152 -0.011875
v 0.010926 -0.003276 -0.008447
v -0.000214 0.001010 -0.008876
v 0.019068 -0.004990 -0.012733
v 0.021214 -0.003703 -0.012733
v 0.016071 -0.002418 -0.012733
v -0.000214 -0.000277 -0.011018
v 0.002787 -0.001133 -0.011875
v 0.021214 -0.003703 -0.008447
f 205 210 214 
f 196 195 197 
f 197 195 198 
f 196 197 199 
f 197 198 200 
f 194 198 202 
f 195 196 203 
f 199 201 204 
f 197 200 205 
f 200 201 205 
f 203 196 206 
f 198 194 207 
f 194 200 207 
f 200 198 207 
f 198 195 208 
f 195 203 208 
f 200 194 209 
f 201 200 209 
f 194 204 209 
f 204 201 209 
f 199 197 210 
f 201 199 210 
f 205 201 210 
f 196 199 211 
f 199 204 211 
f 206 196 211 
f 204 206 211 
f 202 198 212 
f 203 202 212 
f 198 208 212 
f 208 203 212 
f 194 202 213 
f 202 203 213 
f 204 194 213 
f 203 206 213 
f 206 204 213 
f 197 205 214 
f 210 197 214 
o convex_9
v 0.010926 -0.003276 -0.006304
v 0.001929 0.001010 -0.003733
v 0.001929 0.001010 -0.006304
v 0.020354 -0.003276 -0.003733
v 0.000644 -0.000705 -0.003733
v 0.020354 -0.003276 -0.006304
v 0.019068 -0.004990 -0.003733
v -0.000214 -0.000277 -0.006304
v 0.021214 -0.004990 -0.006304
v -0.000214 0.001010 -0.004162
v 0.021214 -0.004990 -0.003733
v 0.019068 -0.004990 -0.006304
v 0.010926 -0.003276 -0.003733
v 0.021214 -0.003703 -0.003733
v 0.000644 -0.000705 -0.006304
v -0.000214 0.001010 -0.005876
v -0.000214 -0.000277 -0.003733
f 224 222 231 
f 217 216 218 
f 218 216 219 
f 215 217 220 
f 217 218 220 
f 218 219 221 
f 217 215 222 
f 215 220 223 
f 216 217 224 
f 218 221 225 
f 221 223 225 
f 221 215 226 
f 215 223 226 
f 223 221 226 
f 219 215 227 
f 215 221 227 
f 221 219 227 
f 220 218 228 
f 223 220 228 
f 218 225 228 
f 225 223 228 
f 215 219 229 
f 222 215 229 
f 219 222 229 
f 217 222 230 
f 224 217 230 
f 222 224 230 
f 219 216 231 
f 222 219 231 
f 216 224 231 
o convex_10
v 0.038782 -0.007133 -0.012733
v 0.022075 -0.005419 -0.013161
v 0.021646 -0.005419 -0.012733
v 0.022932 -0.003705 -0.008448
v 0.039640 -0.007133 -0.007161
v 0.037925 -0.005419 -0.012733
v 0.024216 -0.005847 -0.008448
v 0.040499 -0.005847 -0.007161
v 0.022932 -0.003705 -0.012733
v 0.030215 -0.006705 -0.013161
v 0.034925 -0.007133 -0.008448
v 0.021214 -0.004990 -0.008448
v 0.040499 -0.007133 -0.012304
v 0.021214 -0.003705 -0.012733
v 0.035353 -0.005419 -0.013161
v 0.040499 -0.005847 -0.012304
v 0.021214 -0.003705 -0.008448
v 0.025501 -0.004133 -0.013161
v 0.030215 -0.006705 -0.008448
v 0.037925 -0.005419 -0.008448
v 0.034925 -0.007133 -0.012733
v 0.023789 -0.005847 -0.013161
v 0.021646 -0.005419 -0.008448
v 0.040499 -0.007133 -0.007161
f 244 239 255 
f 235 237 240 
f 232 236 242 
f 236 232 244 
f 233 234 245 
f 235 240 245 
f 234 243 245 
f 237 232 246 
f 241 233 246 
f 232 241 246 
f 232 237 247 
f 237 239 247 
f 244 232 247 
f 239 244 247 
f 236 239 248 
f 239 235 248 
f 243 236 248 
f 235 245 248 
f 245 243 248 
f 240 237 249 
f 233 245 249 
f 245 240 249 
f 237 246 249 
f 246 233 249 
f 236 238 250 
f 241 242 250 
f 242 236 250 
f 237 235 251 
f 235 239 251 
f 239 237 251 
f 241 232 252 
f 242 241 252 
f 232 242 252 
f 234 233 253 
f 233 241 253 
f 250 238 253 
f 241 250 253 
f 238 236 254 
f 243 234 254 
f 236 243 254 
f 234 253 254 
f 253 238 254 
f 239 236 255 
f 236 244 255 
o convex_11
v 0.037925 -0.005419 0.001409
v 0.039640 -0.007133 -0.002019
v 0.034925 -0.007133 -0.001590
v 0.021214 -0.003705 -0.001590
v 0.021646 -0.005419 0.001409
v 0.040499 -0.007133 0.003124
v 0.021214 -0.003705 0.001409
v 0.040499 -0.005847 -0.002019
v 0.021646 -0.005419 -0.001590
v 0.040499 -0.005847 0.003124
v 0.030215 -0.006705 0.001409
v 0.022932 -0.003705 -0.001590
v 0.022932 -0.003705 0.001409
v 0.030215 -0.006705 -0.001590
v 0.039640 -0.007133 0.003124
v 0.034925 -0.007133 0.001409
v 0.037925 -0.005419 -0.001590
v 0.040499 -0.007133 -0.002019
v 0.021214 -0.004990 0.001409
f 270 262 274 
f 258 257 261 
f 257 259 263 
f 259 257 264 
f 263 256 265 
f 261 263 265 
f 260 264 266 
f 259 262 267 
f 263 259 267 
f 265 256 268 
f 262 265 268 
f 256 267 268 
f 267 262 268 
f 257 258 269 
f 264 257 269 
f 258 266 269 
f 266 264 269 
f 258 261 270 
f 265 262 270 
f 261 265 270 
f 260 266 270 
f 270 266 271 
f 266 258 271 
f 258 270 271 
f 256 263 272 
f 267 256 272 
f 263 267 272 
f 261 257 273 
f 257 263 273 
f 263 261 273 
f 262 259 274 
f 259 264 274 
f 264 260 274 
f 260 270 274 
o convex_12
v 0.037925 -0.005419 0.006552
v 0.039212 -0.007133 0.003124
v 0.034925 -0.007133 0.003553
v 0.021214 -0.003705 0.003553
v 0.021646 -0.005419 0.006552
v 0.040499 -0.007133 0.007838
v 0.022932 -0.003705 0.006552
v 0.040499 -0.005847 0.003124
v 0.021646 -0.005419 0.003553
v 0.040499 -0.005847 0.007838
v 0.030215 -0.006705 0.006552
v 0.022932 -0.003705 0.003553
v 0.021214 -0.003705 0.006552
v 0.030215 -0.006705 0.003553
v 0.040499 -0.007133 0.003124
v 0.034925 -0.007133 0.006552
v 0.037925 -0.005419 0.003553
v 0.039640 -0.007133 0.007838
v 0.021214 -0.004990 0.006552
f 292 287 293 
f 277 276 280 
f 276 278 282 
f 278 276 283 
f 275 281 284 
f 280 282 284 
f 282 275 284 
f 279 283 285 
f 281 275 286 
f 278 281 286 
f 282 278 286 
f 281 278 287 
f 284 281 287 
f 276 277 288 
f 283 276 288 
f 277 285 288 
f 285 283 288 
f 280 276 289 
f 276 282 289 
f 282 280 289 
f 277 280 290 
f 285 277 290 
f 275 282 291 
f 286 275 291 
f 282 286 291 
f 280 284 292 
f 279 285 292 
f 284 287 292 
f 290 280 292 
f 285 290 292 
f 278 283 293 
f 283 279 293 
f 287 278 293 
f 279 292 293 
o convex_13
v 0.030212 -0.006704 -0.006304
v 0.022931 -0.003705 -0.003733
v 0.022931 -0.003705 -0.006304
v 0.034500 -0.005418 -0.003733
v 0.021643 -0.005418 -0.003733
v 0.034500 -0.005418 -0.006304
v 0.034500 -0.006704 -0.003733
v 0.021643 -0.005418 -0.006304
v 0.021214 -0.003705 -0.003733
v 0.034500 -0.006704 -0.006304
v 0.030212 -0.006704 -0.003733
v 0.021214 -0.003705 -0.006304
v 0.032355 -0.004991 -0.006304
v 0.032355 -0.004991 -0.003733
f 297 306 307 
f 297 295 298 
f 294 296 299 
f 299 297 300 
f 297 298 300 
f 296 294 301 
f 294 298 301 
f 301 298 302 
f 295 296 302 
f 298 295 302 
f 294 299 303 
f 299 300 303 
f 300 294 303 
f 298 294 304 
f 294 300 304 
f 300 298 304 
f 296 301 305 
f 301 302 305 
f 302 296 305 
f 296 295 306 
f 299 296 306 
f 297 299 306 
f 295 297 307 
f 306 295 307 
o convex_14
v 0.039641 -0.005847 -0.002019
v 0.039641 -0.007133 -0.007161
v 0.039641 -0.005847 -0.007161
v 0.034500 -0.006705 -0.006304
v 0.040499 -0.007133 -0.002019
v 0.034500 -0.005419 -0.003734
v 0.034929 -0.007133 -0.003734
v 0.034500 -0.005419 -0.006304
v 0.040499 -0.005847 -0.007161
v 0.037927 -0.005419 -0.003734
v 0.040499 -0.005847 -0.002019
v 0.040499 -0.007133 -0.007161
v 0.034929 -0.007133 -0.006304
v 0.037927 -0.005419 -0.006304
f 317 316 321 
f 310 309 311 
f 312 308 314 
f 309 312 314 
f 308 313 314 
f 313 311 314 
f 310 311 315 
f 311 313 315 
f 309 310 316 
f 310 315 316 
f 313 308 317 
f 315 313 317 
f 316 317 318 
f 308 312 318 
f 312 316 318 
f 317 308 318 
f 312 309 319 
f 309 316 319 
f 316 312 319 
f 311 309 320 
f 309 314 320 
f 314 311 320 
f 316 315 321 
f 315 317 321 
