o convex_0
v 0.043725 0.005960 0.029530
v 0.042754 -0.005656 0.011135
v 0.042754 -0.007595 0.013074
v 0.065992 -0.007595 0.013074
v 0.064052 0.006928 0.012105
v 0.065992 -0.007595 0.021784
v 0.042754 -0.007595 0.028561
v 0.042754 0.007897 0.013074
v 0.065992 0.007897 0.021784
v 0.042754 0.007897 0.028561
v 0.065021 0.004024 0.011135
v 0.042754 0.005960 0.011135
v 0.064052 -0.004688 0.011135
v 0.065992 0.007897 0.014043
v 0.043725 -0.005656 0.029530
f 7 6 15 
f 3 2 4 
f 3 4 6 
f 2 3 7 
f 3 6 7 
f 2 7 8 
f 1 6 9 
f 6 4 9 
f 9 8 10 
f 7 1 10 
f 8 7 10 
f 1 9 10 
f 8 5 12 
f 2 8 12 
f 11 2 12 
f 5 11 12 
f 4 2 13 
f 2 11 13 
f 11 4 13 
f 5 8 14 
f 9 4 14 
f 8 9 14 
f 4 11 14 
f 11 5 14 
f 6 1 15 
f 1 7 15 
o convex_1
v 0.079545 0.006928 0.022760
v 0.065992 -0.007595 0.013080
v 0.065992 -0.005656 0.012112
v 0.074705 0.007897 0.055675
v 0.079545 -0.007595 0.055675
v 0.065992 0.007897 0.014048
v 0.079545 -0.006626 0.021792
v 0.081481 0.005960 0.055675
v 0.065992 -0.007595 0.022760
v 0.074705 -0.007595 0.055675
v 0.075672 0.004024 0.015016
v 0.081481 -0.005656 0.027601
v 0.065992 0.007897 0.022760
v 0.081481 0.004990 0.025665
v 0.079545 0.007897 0.027601
v 0.073737 -0.007595 0.015984
v 0.081481 -0.005656 0.055675
v 0.069866 0.004990 0.012112
v 0.075672 -0.004688 0.015016
v 0.075672 0.007897 0.017920
v 0.079545 0.004990 0.019856
v 0.079545 0.007897 0.055675
v 0.079545 -0.007595 0.024696
v 0.080513 -0.004688 0.021792
v 0.069866 -0.004688 0.012112
v 0.065992 0.005960 0.012112
f 33 18 41 
f 18 17 21 
f 19 20 23 
f 17 20 24 
f 21 17 24 
f 20 19 25 
f 19 24 25 
f 24 20 25 
f 19 21 28 
f 24 19 28 
f 21 24 28 
f 23 27 29 
f 21 19 30 
f 29 16 30 
f 23 29 30 
f 20 17 31 
f 23 20 32 
f 20 27 32 
f 27 23 32 
f 22 31 34 
f 33 26 34 
f 30 16 35 
f 21 30 35 
f 33 21 35 
f 26 33 35 
f 16 29 36 
f 34 26 36 
f 35 16 36 
f 26 35 36 
f 19 23 37 
f 30 19 37 
f 23 30 37 
f 22 27 38 
f 27 20 38 
f 20 31 38 
f 31 22 38 
f 27 22 39 
f 29 27 39 
f 22 34 39 
f 36 29 39 
f 34 36 39 
f 17 18 40 
f 31 17 40 
f 18 33 40 
f 34 31 40 
f 33 34 40 
f 18 21 41 
f 21 33 41 
o convex_2
v 0.043724 0.004024 0.088595
v 0.042754 -0.004688 0.069230
v 0.042754 0.004990 0.069230
v 0.062119 -0.007595 0.078913
v 0.062119 0.007897 0.085689
v 0.042754 -0.007595 0.086656
v 0.062119 -0.005656 0.087626
v 0.062119 0.007897 0.078913
v 0.042754 0.007897 0.085689
v 0.042754 -0.007595 0.070199
v 0.042754 0.007897 0.070199
v 0.062119 0.004990 0.087626
v 0.042754 -0.004688 0.088595
v 0.043724 -0.004688 0.069230
v 0.062119 -0.007595 0.085689
v 0.043724 0.004990 0.069230
v 0.042754 0.005960 0.087626
f 50 54 58 
f 44 43 47 
f 45 46 48 
f 46 45 49 
f 46 49 50 
f 44 47 50 
f 47 43 51 
f 45 47 51 
f 50 49 52 
f 44 50 52 
f 42 48 53 
f 48 46 53 
f 48 42 54 
f 47 48 54 
f 50 47 54 
f 43 44 55 
f 49 45 55 
f 51 43 55 
f 45 51 55 
f 47 45 56 
f 45 48 56 
f 48 47 56 
f 44 52 57 
f 52 49 57 
f 55 44 57 
f 49 55 57 
f 46 50 58 
f 42 53 58 
f 53 46 58 
f 54 42 58 
o convex_3
v 0.062121 0.004990 0.087624
v 0.081482 0.003053 0.074067
v 0.081482 -0.003721 0.074067
v 0.074704 -0.007595 0.055678
v 0.079545 0.007897 0.055678
v 0.062121 -0.007595 0.085685
v 0.062121 0.007897 0.077941
v 0.075673 0.006928 0.082783
v 0.074704 -0.006626 0.083749
v 0.081482 -0.005656 0.055678
v 0.073736 0.007897 0.056647
v 0.062121 -0.007595 0.077941
v 0.079545 -0.007595 0.074067
v 0.078576 0.007897 0.076006
v 0.070836 -0.003721 0.086654
v 0.081482 0.005960 0.055678
v 0.062121 0.007897 0.085685
v 0.078576 -0.004688 0.080844
v 0.072767 0.004990 0.085685
v 0.064058 -0.005656 0.087624
v 0.080513 0.004990 0.076972
v 0.079545 -0.007595 0.055678
v 0.073736 -0.007595 0.056647
v 0.081482 0.005960 0.070201
v 0.066962 0.004024 0.087624
v 0.070836 -0.007595 0.084718
v 0.069867 0.007897 0.084718
v 0.074704 0.004024 0.084718
v 0.078576 0.004024 0.080844
v 0.074704 0.007897 0.055678
v 0.081482 -0.005656 0.072131
f 76 71 89 
f 64 59 65 
f 60 61 68 
f 62 63 68 
f 65 63 69 
f 65 69 70 
f 62 64 70 
f 64 65 70 
f 64 62 71 
f 63 65 72 
f 60 68 74 
f 68 63 74 
f 65 59 75 
f 72 65 75 
f 67 71 76 
f 59 64 78 
f 61 60 79 
f 72 66 79 
f 76 61 79 
f 62 68 80 
f 71 62 80 
f 68 71 80 
f 69 62 81 
f 70 69 81 
f 62 70 81 
f 63 72 82 
f 60 74 82 
f 74 63 82 
f 79 60 82 
f 72 79 82 
f 73 77 83 
f 59 78 83 
f 78 73 83 
f 64 71 84 
f 71 67 84 
f 67 73 84 
f 78 64 84 
f 73 78 84 
f 66 72 85 
f 75 59 85 
f 72 75 85 
f 77 66 85 
f 59 83 85 
f 83 77 85 
f 73 67 86 
f 67 76 86 
f 77 73 86 
f 66 77 86 
f 79 66 87 
f 76 79 87 
f 86 76 87 
f 66 86 87 
f 63 62 88 
f 62 69 88 
f 69 63 88 
f 68 61 89 
f 71 68 89 
f 61 76 89 
o convex_4
v -0.021150 -0.036641 0.005325
v -0.041484 -0.006628 -0.000484
v -0.041484 -0.006628 0.005325
v 0.003055 0.007897 -0.000484
v 0.003055 -0.041484 -0.000484
v 0.003055 0.007897 0.004356
v 0.003055 -0.041484 0.005325
v -0.040512 0.007897 0.005325
v -0.031801 -0.027921 -0.000484
v -0.040512 0.007897 -0.000484
v -0.011471 -0.040513 -0.000484
v -0.036640 -0.021149 0.005325
v -0.006628 -0.041484 0.005325
v -0.037604 -0.019206 -0.000484
v -0.021150 -0.036641 -0.000484
v -0.035673 0.007897 0.005325
v -0.027921 -0.031797 0.005325
v 0.003055 -0.036641 0.005325
v -0.041484 0.006925 -0.000484
v -0.040512 -0.011472 0.005325
v -0.041484 0.006925 0.005325
f 97 108 110 
f 91 93 94 
f 94 93 95 
f 94 95 96 
f 92 90 96 
f 92 96 97 
f 95 93 97 
f 91 94 98 
f 93 91 99 
f 97 93 99 
f 98 94 100 
f 90 92 101 
f 94 96 102 
f 96 90 102 
f 100 94 102 
f 90 100 102 
f 91 98 103 
f 98 101 103 
f 100 90 104 
f 98 100 104 
f 97 96 105 
f 95 97 105 
f 90 101 106 
f 101 98 106 
f 104 90 106 
f 98 104 106 
f 96 95 107 
f 95 105 107 
f 105 96 107 
f 91 92 108 
f 99 91 108 
f 97 99 108 
f 92 91 109 
f 101 92 109 
f 91 103 109 
f 103 101 109 
f 92 97 110 
f 108 92 110 
o convex_5
v 0.036944 -0.020177 0.005325
v 0.003055 -0.041484 -0.000484
v 0.006930 -0.041484 -0.000484
v 0.003055 0.007897 -0.000484
v 0.041786 0.004015 -0.000484
v 0.003055 0.007897 0.004356
v 0.003055 -0.041484 0.005325
v 0.040815 0.007897 0.005325
v 0.025325 -0.033736 -0.000484
v 0.022421 -0.035669 0.005325
v 0.040815 -0.010500 -0.000484
v 0.040815 0.007897 -0.000484
v 0.041786 -0.004695 0.005325
v 0.034037 -0.025016 -0.000484
v 0.014675 -0.039546 0.005325
v 0.035974 0.007897 0.005325
v 0.034037 -0.025016 0.005325
v 0.014675 -0.039546 -0.000484
v 0.003055 -0.036641 0.005325
v 0.038878 -0.016315 0.005325
v 0.038878 -0.016315 -0.000484
f 121 130 131 
f 113 112 114 
f 113 114 115 
f 114 112 116 
f 112 113 117 
f 116 112 117 
f 114 116 118 
f 117 111 118 
f 113 115 119 
f 111 117 120 
f 119 115 121 
f 115 114 122 
f 118 115 122 
f 114 118 122 
f 118 111 123 
f 115 118 123 
f 121 115 123 
f 119 121 124 
f 117 113 125 
f 120 117 125 
f 118 116 126 
f 117 118 126 
f 111 120 127 
f 120 119 127 
f 124 111 127 
f 119 124 127 
f 113 119 128 
f 119 120 128 
f 125 113 128 
f 120 125 128 
f 116 117 129 
f 126 116 129 
f 117 126 129 
f 123 111 130 
f 121 123 130 
f 111 124 131 
f 124 121 131 
f 130 111 131 
o convex_6
v -0.025989 0.033071 -0.000484
v -0.002754 0.041786 0.005325
v -0.002754 0.041786 -0.000484
v -0.002754 0.007897 -0.000484
v -0.040516 0.007897 0.005325
v -0.002754 0.007897 0.004356
v -0.040516 0.007897 -0.000484
v -0.033737 0.025322 0.005325
v -0.016312 0.038880 0.005325
v -0.035674 0.022426 -0.000484
v -0.010505 0.040817 -0.000484
v -0.039547 0.014677 0.005325
v -0.025017 0.034037 0.005325
v -0.002754 0.036942 0.005325
v -0.035674 0.007897 0.005325
v -0.040516 0.011771 -0.000484
v -0.022112 0.035970 -0.000484
f 144 140 148 
f 134 133 135 
f 132 134 135 
f 135 133 137 
f 136 135 137 
f 132 135 138 
f 135 136 138 
f 136 133 139 
f 139 133 140 
f 132 138 141 
f 139 132 141 
f 134 132 142 
f 133 134 142 
f 140 133 142 
f 136 139 143 
f 139 141 143 
f 132 139 144 
f 139 140 144 
f 133 136 145 
f 137 133 145 
f 137 145 146 
f 136 137 146 
f 145 136 146 
f 138 136 147 
f 141 138 147 
f 136 143 147 
f 143 141 147 
f 142 132 148 
f 140 142 148 
f 132 144 148 
o convex_7
v 0.036940 0.020489 0.006294
v 0.004027 0.041786 0.006294
v 0.004027 0.041786 -0.000484
v -0.002754 0.007897 -0.000484
v 0.040817 0.007897 -0.000484
v -0.002754 0.007897 0.004357
v 0.040817 0.007897 0.006294
v 0.026286 0.033071 -0.000484
v -0.002754 0.041786 0.006294
v -0.002754 0.041786 -0.000484
v 0.020477 0.036942 0.006294
v 0.037904 0.018552 -0.000484
v -0.002754 0.036942 0.006294
v 0.013709 0.039845 -0.000484
v 0.033068 0.026291 0.006294
v 0.035968 0.007897 0.006294
v 0.033068 0.026291 -0.000484
v 0.039841 0.013709 0.006294
v 0.013709 0.039845 0.006294
v 0.026286 0.033071 0.006294
f 163 156 168 
f 152 151 153 
f 152 153 154 
f 154 153 155 
f 149 150 155 
f 153 151 156 
f 150 151 157 
f 152 154 157 
f 155 150 157 
f 151 152 158 
f 157 151 158 
f 152 157 158 
f 150 149 159 
f 153 156 160 
f 157 154 161 
f 155 157 161 
f 151 150 162 
f 156 151 162 
f 159 156 162 
f 159 149 163 
f 154 155 164 
f 161 154 164 
f 155 161 164 
f 149 160 165 
f 160 156 165 
f 163 149 165 
f 156 163 165 
f 155 153 166 
f 149 155 166 
f 153 160 166 
f 160 149 166 
f 150 159 167 
f 162 150 167 
f 159 162 167 
f 156 159 168 
f 159 163 168 
o convex_8
v 0.020483 -0.036642 0.005325
v 0.034040 -0.024056 0.097309
v 0.028229 -0.024056 0.097309
v 0.003055 -0.041484 0.097309
v 0.004026 -0.036642 0.005325
v 0.034040 -0.024056 0.005325
v 0.025323 -0.033735 0.097309
v 0.003055 -0.037608 0.097309
v 0.003055 -0.041484 0.005325
v 0.028229 -0.024056 0.005325
v 0.011772 -0.040513 0.096337
v 0.011772 -0.040513 0.005325
v 0.030167 -0.028897 0.005325
v 0.034040 -0.025025 0.097309
v 0.014678 -0.039544 0.097309
v 0.025323 -0.033735 0.005325
v 0.006932 -0.041484 0.097309
v 0.022417 -0.035672 0.097309
v 0.006932 -0.041484 0.005325
v 0.003055 -0.037608 0.005325
v 0.034040 -0.025025 0.005325
v 0.014678 -0.039544 0.005325
v 0.022417 -0.035672 0.005325
f 184 186 191 
f 170 171 172 
f 171 170 174 
f 169 173 174 
f 170 172 175 
f 172 171 176 
f 171 173 176 
f 173 169 177 
f 172 176 177 
f 173 171 178 
f 171 174 178 
f 174 173 178 
f 177 169 180 
f 169 174 181 
f 175 181 182 
f 174 170 182 
f 170 175 182 
f 175 172 183 
f 179 180 183 
f 169 181 184 
f 181 175 184 
f 172 177 185 
f 180 179 185 
f 183 172 185 
f 179 183 185 
f 183 169 186 
f 175 183 186 
f 184 175 186 
f 177 180 187 
f 185 177 187 
f 180 185 187 
f 176 173 188 
f 173 177 188 
f 177 176 188 
f 181 174 189 
f 182 181 189 
f 174 182 189 
f 180 169 190 
f 169 183 190 
f 183 180 190 
f 169 184 191 
f 186 169 191 
o convex_9
v -0.031802 0.027261 0.097309
v -0.040516 0.007897 0.005325
v -0.036642 0.007897 0.005325
v -0.025026 0.034040 0.005325
v -0.024056 0.028228 0.097309
v -0.036642 0.007897 0.097309
v -0.035674 0.022417 0.005325
v -0.040516 0.011771 0.096337
v -0.024056 0.028228 0.005325
v -0.024056 0.034040 0.097309
v -0.039548 0.014676 0.005325
v -0.035674 0.022417 0.097309
v -0.040516 0.007897 0.097309
v -0.035674 0.008867 0.005325
v -0.033737 0.025321 0.005325
v -0.025026 0.034040 0.097309
v -0.024056 0.034040 0.005325
v -0.039548 0.014676 0.097309
v -0.040516 0.011771 0.005325
v -0.033737 0.025321 0.097309
f 206 203 211 
f 194 193 195 
f 193 194 197 
f 196 192 197 
f 195 193 198 
f 194 195 200 
f 196 200 201 
f 192 196 201 
f 198 193 202 
f 197 192 203 
f 198 202 203 
f 193 197 204 
f 199 193 204 
f 197 203 204 
f 197 194 205 
f 196 197 205 
f 194 200 205 
f 200 196 205 
f 192 195 206 
f 195 198 206 
f 198 203 206 
f 195 192 207 
f 192 201 207 
f 201 195 207 
f 200 195 208 
f 201 200 208 
f 195 201 208 
f 202 199 209 
f 203 202 209 
f 199 204 209 
f 204 203 209 
f 193 199 210 
f 202 193 210 
f 199 202 210 
f 203 192 211 
f 192 206 211 
o convex_10
v -0.022119 0.035975 0.005325
v -0.002754 0.041786 0.097309
v -0.003724 0.041786 0.097309
v -0.023086 0.029198 0.097309
v -0.002754 0.036942 0.005325
v -0.022119 0.029198 0.005325
v -0.022119 0.035975 0.097309
v -0.010502 0.040817 0.005325
v -0.002754 0.036942 0.096337
v -0.002754 0.041786 0.005325
v -0.016307 0.038880 0.097309
v -0.024056 0.034042 0.005325
v -0.024056 0.029198 0.097309
v -0.024056 0.034042 0.097309
v -0.024056 0.029198 0.005325
v -0.010502 0.040817 0.096337
v -0.016307 0.038880 0.005325
v -0.004691 0.041786 0.005325
v -0.004691 0.041786 0.096337
v -0.002754 0.037912 0.097309
f 215 220 231 
f 213 214 215 
f 212 216 217 
f 215 214 218 
f 216 212 219 
f 216 213 220 
f 215 217 220 
f 217 216 220 
f 214 213 221 
f 213 216 221 
f 216 219 221 
f 212 218 222 
f 218 214 222 
f 212 217 223 
f 218 212 223 
f 217 215 224 
f 215 218 224 
f 218 223 225 
f 224 218 225 
f 223 224 225 
f 223 217 226 
f 224 223 226 
f 217 224 226 
f 222 214 227 
f 219 222 227 
f 219 212 228 
f 212 222 228 
f 222 219 228 
f 214 221 229 
f 221 219 229 
f 219 227 229 
f 229 227 230 
f 227 214 230 
f 214 229 230 
f 213 215 231 
f 220 213 231 
o convex_11
v 0.004025 0.041786 0.006294
v 0.021452 0.035977 0.097309
v 0.020481 0.036943 0.097309
v -0.002754 0.036943 0.095358
v 0.021452 0.031135 0.006294
v -0.002754 0.036943 0.006294
v -0.002754 0.041786 0.097309
v 0.019514 0.031135 0.096338
v 0.020481 0.036943 0.006294
v 0.009832 0.040816 0.097309
v -0.002754 0.041786 0.006294
v 0.013704 0.039848 0.006294
v 0.021452 0.031135 0.097309
v 0.019514 0.031135 0.006294
v 0.004025 0.041786 0.097309
v 0.021452 0.035977 0.006294
v 0.013704 0.039848 0.097309
v -0.002754 0.037912 0.097309
v 0.018545 0.037912 0.097309
v 0.009832 0.040816 0.006294
v 0.018545 0.037912 0.006294
f 243 250 252 
f 232 236 237 
f 233 234 238 
f 237 235 238 
f 235 237 239 
f 234 233 240 
f 236 232 240 
f 238 234 241 
f 232 237 242 
f 238 232 242 
f 237 238 242 
f 240 232 243 
f 236 233 244 
f 233 238 244 
f 239 236 244 
f 237 236 245 
f 236 239 245 
f 239 237 245 
f 232 238 246 
f 241 232 246 
f 238 241 246 
f 233 236 247 
f 240 233 247 
f 236 240 247 
f 241 234 248 
f 243 241 248 
f 238 235 249 
f 235 239 249 
f 244 238 249 
f 239 244 249 
f 234 240 250 
f 248 234 250 
f 243 248 250 
f 232 241 251 
f 243 232 251 
f 241 243 251 
f 240 243 252 
f 250 240 252 
o convex_12
v 0.033070 0.026293 0.097309
v 0.036941 0.007897 0.006294
v 0.035974 0.008865 0.006294
v 0.035974 0.007897 0.095358
v 0.021452 0.030165 0.006294
v 0.037911 0.018549 0.006294
v 0.021452 0.030165 0.096338
v 0.023391 0.035008 0.006294
v 0.040817 0.009834 0.097309
v 0.021452 0.035008 0.097309
v 0.040817 0.007897 0.006294
v 0.033070 0.026293 0.006294
v 0.026295 0.033068 0.097309
v 0.036941 0.020489 0.097309
v 0.040817 0.007897 0.097309
v 0.021452 0.035008 0.006294
v 0.039849 0.013709 0.006294
v 0.026295 0.033068 0.006294
v 0.039849 0.013709 0.097309
v 0.023391 0.035008 0.097309
v 0.035974 0.007897 0.075037
v 0.036941 0.007897 0.097309
v 0.040817 0.009834 0.006294
v 0.036941 0.020489 0.006294
v 0.037911 0.018549 0.097309
f 266 271 277 
f 254 255 257 
f 254 257 258 
f 257 256 259 
f 258 257 260 
f 257 259 262 
f 261 253 262 
f 256 254 263 
f 254 258 263 
f 258 260 264 
f 262 253 265 
f 253 264 265 
f 253 261 266 
f 264 253 266 
f 261 262 267 
f 256 263 267 
f 263 261 267 
f 260 257 268 
f 257 262 268 
f 262 260 268 
f 263 258 269 
f 264 260 270 
f 260 265 270 
f 265 264 270 
f 266 261 271 
f 269 258 271 
f 261 269 271 
f 260 262 272 
f 265 260 272 
f 262 265 272 
f 255 254 273 
f 254 256 273 
f 256 257 273 
f 257 255 273 
f 259 256 274 
f 262 259 274 
f 256 267 274 
f 267 262 274 
f 261 263 275 
f 263 269 275 
f 269 261 275 
f 258 264 276 
f 266 258 276 
f 264 266 276 
f 258 266 277 
f 271 258 277 
o convex_13
v -0.031801 -0.027930 0.005325
v -0.017278 -0.033736 0.097309
v -0.017278 -0.037610 0.097309
v -0.034706 -0.023087 0.097309
v -0.018247 -0.031800 0.005325
v -0.028896 -0.023087 0.005325
v -0.019218 -0.037610 0.005325
v -0.027928 -0.031800 0.096337
v -0.028896 -0.023087 0.096337
v -0.034706 -0.023087 0.005325
v -0.017278 -0.037610 0.005325
v -0.021154 -0.036640 0.096337
v -0.027928 -0.031800 0.005325
v -0.017278 -0.032768 0.096337
v -0.034706 -0.024058 0.097309
v -0.017278 -0.032768 0.005325
v -0.031801 -0.027930 0.096337
v -0.024056 -0.034704 0.005325
v -0.034706 -0.024058 0.005325
v -0.019218 -0.037610 0.096337
v -0.024056 -0.034704 0.097309
v -0.021154 -0.036640 0.005325
f 289 295 299 
f 280 279 281 
f 282 278 283 
f 278 282 284 
f 281 279 286 
f 282 283 286 
f 283 281 286 
f 281 283 287 
f 283 278 287 
f 279 280 288 
f 280 284 288 
f 284 282 288 
f 278 284 290 
f 285 278 290 
f 286 279 291 
f 282 286 291 
f 279 288 291 
f 280 281 292 
f 281 287 292 
f 288 282 293 
f 282 291 293 
f 291 288 293 
f 278 285 294 
f 292 278 294 
f 285 290 295 
f 290 284 295 
f 287 278 296 
f 278 292 296 
f 292 287 296 
f 284 280 297 
f 289 284 297 
f 289 297 298 
f 280 292 298 
f 294 285 298 
f 292 294 298 
f 295 289 298 
f 285 295 298 
f 297 280 298 
f 284 289 299 
f 295 284 299 
o convex_14
v -0.017278 -0.038578 0.042133
v 0.003055 -0.037611 0.097309
v 0.003055 -0.041483 0.097309
v 0.003055 -0.037611 0.005325
v -0.017278 -0.033738 0.097309
v -0.014372 -0.033738 0.005325
v -0.006628 -0.041483 0.005325
v -0.011466 -0.040514 0.097309
v 0.003055 -0.041483 0.005325
v -0.017278 -0.037611 0.005325
v -0.017278 -0.038578 0.096337
v -0.017278 -0.033738 0.005325
v -0.006628 -0.041483 0.097309
v -0.015341 -0.033738 0.096337
v -0.011466 -0.040514 0.005325
v -0.014372 -0.039546 0.005325
f 314 300 315 
f 301 302 303 
f 302 301 304 
f 301 303 305 
f 305 303 306 
f 302 304 307 
f 303 302 308 
f 302 306 308 
f 306 303 308 
f 300 304 309 
f 305 306 309 
f 304 300 310 
f 300 307 310 
f 307 304 310 
f 304 305 311 
f 309 304 311 
f 305 309 311 
f 306 302 312 
f 302 307 312 
f 307 306 312 
f 304 301 313 
f 301 305 313 
f 305 304 313 
f 307 300 314 
f 306 307 314 
f 309 306 314 
f 309 314 315 
f 300 309 315 
o convex_15
v -0.040515 -0.008564 0.005325
v -0.034707 -0.023086 0.005325
v -0.036642 -0.021148 0.005325
v -0.040515 -0.011471 0.097309
v -0.029866 -0.022116 0.097309
v -0.035674 -0.009534 0.005325
v -0.036642 -0.008564 0.097309
v -0.034707 -0.023086 0.097309
v -0.029866 -0.023086 0.005325
v -0.029866 -0.021148 0.006298
v -0.035674 -0.009534 0.096337
v -0.040515 -0.011471 0.005325
v -0.038578 -0.017276 0.096337
v -0.040515 -0.008564 0.097309
v -0.029866 -0.023086 0.097309
v -0.036642 -0.008564 0.005325
v -0.036642 -0.021148 0.096337
v -0.038578 -0.017276 0.042133
v -0.039546 -0.014375 0.005325
f 318 333 334 
f 316 317 318 
f 317 316 321 
f 319 320 322 
f 318 317 323 
f 320 319 323 
f 317 321 324 
f 323 317 324 
f 324 321 325 
f 320 324 325 
f 322 320 326 
f 321 322 326 
f 325 321 326 
f 320 325 326 
f 316 318 327 
f 319 316 327 
f 316 319 329 
f 322 316 329 
f 319 322 329 
f 320 323 330 
f 324 320 330 
f 323 324 330 
f 321 316 331 
f 316 322 331 
f 322 321 331 
f 318 323 332 
f 323 319 332 
f 319 328 332 
f 328 318 332 
f 318 328 333 
f 333 328 334 
f 327 318 334 
f 319 327 334 
f 328 319 334 
o convex_16
v -0.040515 0.007897 0.097309
v -0.040515 -0.008564 0.005325
v -0.036643 -0.008564 0.005325
v -0.040515 -0.008564 0.097309
v -0.041484 0.006928 0.005325
v -0.036643 0.007897 0.097309
v -0.036643 0.007897 0.005325
v -0.036643 -0.008564 0.097309
v -0.041484 -0.006627 0.097309
v -0.041484 -0.006627 0.005325
v -0.041484 0.006928 0.096337
v -0.040515 0.007897 0.005325
f 341 339 346 
f 336 337 338 
f 337 336 339 
f 335 338 340 
f 337 339 341 
f 340 337 341 
f 335 340 341 
f 338 337 342 
f 337 340 342 
f 340 338 342 
f 336 338 343 
f 338 335 343 
f 343 339 344 
f 339 336 344 
f 336 343 344 
f 335 339 345 
f 343 335 345 
f 339 343 345 
f 339 335 346 
f 335 341 346 
o convex_17
v 0.038879 -0.016310 0.097309
v 0.029198 -0.024056 0.005325
v 0.029198 -0.022116 0.005325
v 0.040817 -0.008564 0.005325
v 0.035975 -0.008564 0.096337
v 0.029198 -0.024056 0.097309
v 0.035975 -0.022116 0.005325
v 0.035975 -0.008564 0.005325
v 0.034041 -0.024056 0.097309
v 0.040817 -0.008564 0.097309
v 0.040817 -0.010500 0.005325
v 0.034041 -0.024056 0.005325
v 0.029198 -0.023087 0.097309
v 0.038879 -0.016310 0.005325
v 0.035975 -0.022116 0.097309
v 0.040817 -0.010500 0.096337
f 357 356 362 
f 348 349 350 
f 349 348 352 
f 348 350 353 
f 350 349 354 
f 351 350 354 
f 349 351 354 
f 352 348 355 
f 347 352 355 
f 350 351 356 
f 352 347 356 
f 353 350 357 
f 350 356 357 
f 348 353 358 
f 355 348 358 
f 353 355 358 
f 351 349 359 
f 349 352 359 
f 356 351 359 
f 352 356 359 
f 347 353 360 
f 357 347 360 
f 353 357 360 
f 353 347 361 
f 347 355 361 
f 355 353 361 
f 356 347 362 
f 347 357 362 
o convex_18
v 0.042754 0.004023 0.089557
v 0.036944 -0.008564 0.005325
v 0.036944 0.007897 0.005325
v 0.036944 -0.008564 0.097309
v 0.042754 -0.007595 0.012105
v 0.036944 0.007897 0.097309
v 0.042754 0.007897 0.013078
v 0.042754 -0.007595 0.086658
v 0.040816 0.007897 0.097309
v 0.040816 -0.008564 0.005325
v 0.040816 -0.008564 0.097309
v 0.041785 0.004023 0.005325
v 0.042754 0.007897 0.086658
v 0.041785 -0.003722 0.097309
v 0.040816 0.007897 0.005325
f 374 365 377 
f 365 364 366 
f 365 366 368 
f 363 367 369 
f 365 368 369 
f 367 363 370 
f 368 366 371 
f 369 368 371 
f 364 365 372 
f 366 364 372 
f 367 370 372 
f 372 370 373 
f 371 366 373 
f 366 372 373 
f 369 367 374 
f 372 365 374 
f 367 372 374 
f 363 369 375 
f 371 363 375 
f 369 371 375 
f 370 363 376 
f 363 371 376 
f 373 370 376 
f 371 373 376 
f 365 369 377 
f 369 374 377 
