o convex_0
v 0.038629 -0.003399 0.004457
v -0.039050 -0.000844 -0.000636
v -0.039050 -0.000844 0.003183
v 0.006792 0.038629 -0.000636
v 0.014426 -0.036499 -0.000636
v -0.014855 0.036074 0.004457
v -0.013586 -0.036499 0.004457
v 0.038629 0.006790 -0.000636
v 0.022060 0.032256 0.004457
v -0.023767 -0.031405 -0.000636
v -0.032671 0.022059 -0.000636
v 0.025892 -0.028857 0.004457
v -0.036495 -0.013581 0.004457
v 0.032249 -0.022493 -0.000636
v -0.035226 0.016980 0.004457
v 0.033527 0.020790 -0.000636
v -0.012308 0.037351 -0.000636
v 0.036066 0.014433 0.004457
v 0.009332 -0.037777 0.004457
v -0.000850 -0.039054 -0.000636
v 0.002975 0.038629 0.004457
v -0.036495 -0.014858 -0.000636
v -0.030124 -0.025032 0.004457
v 0.020790 0.033526 -0.000636
v -0.023759 0.030979 0.004457
v 0.037351 -0.012311 0.003183
v 0.038629 -0.005946 -0.000636
v -0.037773 0.010608 -0.000636
v -0.022490 0.032256 -0.000636
v 0.029702 0.025884 0.003183
v -0.014855 -0.036499 -0.000636
v 0.033519 -0.019938 0.004457
v 0.015711 0.036074 0.003183
v 0.022068 -0.032674 -0.000636
v 0.019521 -0.033952 0.004457
v -0.000850 -0.039054 0.003183
v -0.037773 0.009338 0.004457
v -0.005944 0.038629 0.003183
v -0.019942 -0.033952 0.003183
v -0.031409 -0.023763 -0.000636
f 10 23 40 
f 2 4 5 
f 1 6 7 
f 5 4 8 
f 6 1 9 
f 2 5 10 
f 4 2 11 
f 1 7 12 
f 7 6 13 
f 5 8 14 
f 13 6 15 
f 8 4 16 
f 4 11 17 
f 1 8 18 
f 9 1 18 
f 8 16 18 
f 12 7 19 
f 10 5 20 
f 5 19 20 
f 6 9 21 
f 3 2 22 
f 2 10 22 
f 13 3 22 
f 13 22 23 
f 7 13 23 
f 16 4 24 
f 11 15 25 
f 15 6 25 
f 26 14 27 
f 8 1 27 
f 14 8 27 
f 1 26 27 
f 2 3 28 
f 11 2 28 
f 15 11 28 
f 6 17 29 
f 17 11 29 
f 11 25 29 
f 25 6 29 
f 9 18 30 
f 18 16 30 
f 24 9 30 
f 16 24 30 
f 10 20 31 
f 1 12 32 
f 12 14 32 
f 26 1 32 
f 14 26 32 
f 21 9 33 
f 4 21 33 
f 24 4 33 
f 9 24 33 
f 5 14 34 
f 14 12 34 
f 19 5 35 
f 12 19 35 
f 5 34 35 
f 34 12 35 
f 19 7 36 
f 20 19 36 
f 7 31 36 
f 31 20 36 
f 3 13 37 
f 13 15 37 
f 28 3 37 
f 15 28 37 
f 4 17 38 
f 17 6 38 
f 6 21 38 
f 21 4 38 
f 7 23 39 
f 23 10 39 
f 31 7 39 
f 10 31 39 
f 22 10 40 
f 23 22 40 
o convex_1
v -0.000850 0.038629 0.004502
v 0.024620 0.030988 0.232389
v 0.024620 0.024620 0.232389
v 0.024620 0.024620 0.004502
v -0.000850 0.034807 0.232389
v 0.022072 0.032259 0.004502
v 0.009340 0.038629 0.232389
v 0.001698 0.033533 0.004502
v 0.010611 0.037353 0.004502
v -0.000850 0.038629 0.232389
v 0.014431 0.037353 0.227280
v 0.023344 0.024620 0.232389
v 0.024620 0.029714 0.004502
v 0.023344 0.024620 0.004502
v 0.022072 0.033535 0.232389
v -0.000850 0.034807 0.004502
v 0.002972 0.038629 0.004502
v 0.001698 0.033533 0.232389
v 0.014431 0.036079 0.004502
f 49 51 59 
f 42 43 44 
f 43 42 45 
f 44 41 46 
f 45 42 47 
f 41 44 48 
f 46 41 49 
f 41 45 50 
f 47 41 50 
f 45 47 50 
f 49 47 51 
f 44 43 52 
f 43 45 52 
f 42 44 53 
f 44 46 53 
f 48 44 54 
f 44 52 54 
f 52 48 54 
f 47 42 55 
f 46 51 55 
f 51 47 55 
f 42 53 55 
f 53 46 55 
f 45 41 56 
f 41 48 56 
f 48 45 56 
f 41 47 57 
f 49 41 57 
f 47 49 57 
f 45 48 58 
f 52 45 58 
f 48 52 58 
f 46 49 59 
f 51 46 59 
o convex_2
v -0.031409 0.023348 0.004502
v -0.000854 0.038629 0.232389
v -0.009767 0.038629 0.232389
v -0.026317 0.020800 0.232389
v -0.000854 0.034807 0.004502
v -0.011038 0.037355 0.004502
v -0.023771 0.032260 0.232389
v -0.026317 0.020800 0.004502
v -0.002126 0.033534 0.232389
v -0.032687 0.020800 0.232389
v -0.000854 0.038629 0.004502
v -0.019951 0.033533 0.004502
v -0.032687 0.023348 0.232389
v -0.017405 0.036081 0.227280
v -0.002126 0.033534 0.004502
v -0.031409 0.020800 0.004502
v -0.023771 0.030986 0.004502
v -0.000854 0.034807 0.232389
v -0.003400 0.038629 0.004502
v -0.014862 0.036081 0.004502
v -0.019951 0.034807 0.227280
v -0.032687 0.023348 0.227280
f 66 76 81 
f 61 62 63 
f 64 60 65 
f 63 62 66 
f 60 64 67 
f 61 63 68 
f 63 67 68 
f 63 66 69 
f 67 63 69 
f 62 61 70 
f 61 64 70 
f 64 65 70 
f 65 60 71 
f 69 66 72 
f 62 65 73 
f 66 62 73 
f 67 64 74 
f 64 68 74 
f 68 67 74 
f 60 67 75 
f 67 69 75 
f 71 60 76 
f 64 61 77 
f 68 64 77 
f 61 68 77 
f 65 62 78 
f 62 70 78 
f 70 65 78 
f 65 71 79 
f 73 65 79 
f 73 79 80 
f 66 73 80 
f 71 76 80 
f 76 66 80 
f 79 71 80 
f 72 66 81 
f 69 72 81 
f 60 75 81 
f 75 69 81 
f 76 60 81 
o convex_3
v 0.025895 0.029714 0.227280
v 0.034806 0.000424 0.004502
v 0.038629 0.000424 0.004502
v 0.038629 0.000424 0.232389
v 0.032260 0.022070 0.004502
v 0.037355 0.014433 0.232389
v 0.024621 0.023343 0.004502
v 0.033534 0.001700 0.232389
v 0.024621 0.023343 0.232389
v 0.024621 0.028438 0.004502
v 0.037355 0.010611 0.004502
v 0.033534 0.022070 0.232389
v 0.038629 0.009338 0.227280
v 0.033534 0.001700 0.004502
v 0.024621 0.029714 0.232389
v 0.025895 0.028438 0.004502
v 0.036081 0.014433 0.004502
v 0.034807 0.000424 0.232389
v 0.038629 0.002973 0.004502
v 0.037355 0.014433 0.227280
f 92 98 101 
f 83 84 85 
f 84 83 86 
f 86 83 88 
f 85 87 89 
f 88 89 90 
f 89 87 90 
f 86 88 91 
f 88 90 91 
f 84 86 92 
f 86 82 93 
f 90 87 93 
f 85 84 94 
f 87 85 94 
f 88 83 95 
f 83 89 95 
f 89 88 95 
f 82 91 96 
f 91 90 96 
f 93 82 96 
f 90 93 96 
f 82 86 97 
f 91 82 97 
f 86 91 97 
f 92 86 98 
f 83 85 99 
f 89 83 99 
f 85 89 99 
f 84 92 100 
f 94 84 100 
f 92 94 100 
f 86 93 101 
f 93 87 101 
f 87 94 101 
f 94 92 101 
f 98 86 101 
o convex_4
v -0.039054 -0.007218 0.227280
v -0.025046 -0.031413 0.227280
v -0.022499 -0.031413 0.227280
v -0.030141 -0.025043 0.004502
v -0.033959 0.000424 0.004502
v -0.033959 0.000424 0.232389
v -0.022499 -0.025043 0.004502
v -0.037781 -0.008495 0.004502
v -0.033959 -0.021223 0.232389
v -0.022499 -0.025043 0.232389
v -0.039054 0.000424 0.232389
v -0.025046 -0.030139 0.004502
v -0.037781 0.000424 0.004502
v -0.036507 -0.013584 0.004502
v -0.022499 -0.030139 0.004502
v -0.036507 -0.016130 0.232389
v -0.031413 -0.025043 0.232389
v -0.032687 -0.021223 0.004502
v -0.037781 -0.012313 0.232389
v -0.022499 -0.031413 0.232389
v -0.033959 -0.021223 0.227280
f 115 119 122 
f 105 106 108 
f 106 107 108 
f 106 105 109 
f 104 108 111 
f 108 107 111 
f 107 110 111 
f 107 106 112 
f 110 107 112 
f 104 103 113 
f 103 105 113 
f 105 108 113 
f 109 102 114 
f 106 109 114 
f 112 106 114 
f 102 112 114 
f 102 109 115 
f 109 105 115 
f 108 104 116 
f 104 113 116 
f 113 108 116 
f 110 112 117 
f 105 103 118 
f 111 110 118 
f 115 105 119 
f 112 102 120 
f 102 115 120 
f 117 112 120 
f 115 117 120 
f 103 104 121 
f 104 111 121 
f 118 103 121 
f 111 118 121 
f 110 117 122 
f 117 115 122 
f 105 118 122 
f 118 110 122 
f 119 105 122 
o convex_5
v -0.018676 -0.035234 0.227280
v 0.001697 -0.033960 0.232389
v -0.021225 -0.026319 0.232389
v 0.001697 -0.033960 0.004502
v -0.022499 -0.031414 0.004502
v -0.008492 -0.037779 0.004502
v 0.001697 -0.039054 0.232389
v -0.021225 -0.026319 0.004502
v 0.001697 -0.037780 0.004502
v -0.007220 -0.039054 0.232389
v -0.022499 -0.032687 0.232389
v -0.013582 -0.036505 0.004502
v -0.022499 -0.026319 0.232389
v -0.022499 -0.026319 0.004502
v -0.021225 -0.032687 0.004502
v -0.016130 -0.036505 0.232389
v -0.012310 -0.037779 0.227280
v -0.021225 -0.033960 0.227280
v -0.007220 -0.039054 0.227280
f 132 139 141 
f 125 124 126 
f 127 126 128 
f 124 125 129 
f 126 124 129 
f 125 126 130 
f 126 127 130 
f 128 126 131 
f 126 129 131 
f 129 125 132 
f 132 125 133 
f 127 128 134 
f 125 130 135 
f 127 133 135 
f 133 125 135 
f 130 127 136 
f 135 130 136 
f 127 135 136 
f 134 123 137 
f 127 134 137 
f 132 133 138 
f 123 134 138 
f 138 134 139 
f 132 138 139 
f 133 127 140 
f 137 123 140 
f 127 137 140 
f 123 138 140 
f 138 133 140 
f 128 131 141 
f 131 129 141 
f 129 132 141 
f 134 128 141 
f 139 134 141 
o convex_6
v 0.009341 -0.037779 0.004502
v 0.032260 -0.021226 0.232389
v 0.032260 -0.023774 0.232389
v 0.001697 -0.033959 0.232389
v 0.025891 -0.021226 0.004502
v 0.013158 -0.037779 0.232389
v 0.023345 -0.031412 0.004502
v 0.001697 -0.033959 0.004502
v 0.001697 -0.039054 0.232389
v 0.025891 -0.021226 0.232389
v 0.030986 -0.023774 0.004502
v 0.023345 -0.032686 0.232389
v 0.001697 -0.037779 0.004502
v 0.016979 -0.035232 0.004502
v 0.030986 -0.021226 0.004502
v 0.008067 -0.039054 0.227280
v 0.019525 -0.033959 0.004502
v 0.023345 -0.032686 0.227280
f 158 148 159 
f 144 143 145 
f 144 145 147 
f 142 146 148 
f 146 142 149 
f 145 146 149 
f 147 145 150 
f 145 149 150 
f 145 143 151 
f 146 145 151 
f 143 146 151 
f 143 144 152 
f 148 146 152 
f 144 147 153 
f 149 142 154 
f 150 149 154 
f 147 142 155 
f 142 148 155 
f 146 143 156 
f 143 152 156 
f 152 146 156 
f 142 147 157 
f 147 150 157 
f 154 142 157 
f 150 154 157 
f 155 148 158 
f 155 158 159 
f 152 144 159 
f 148 152 159 
f 144 153 159 
f 153 147 159 
f 147 155 159 
o convex_7
v 0.038629 0.000424 0.232389
v 0.027167 -0.021223 0.004502
v 0.027167 -0.019950 0.004502
v 0.038629 0.000424 0.004502
v 0.034807 -0.019950 0.232389
v 0.033534 -0.002125 0.232389
v 0.027167 -0.021223 0.232389
v 0.036081 -0.014856 0.004502
v 0.034807 0.000420 0.004502
v 0.038629 -0.009766 0.232389
v 0.032262 -0.021223 0.004502
v 0.038629 -0.003399 0.004502
v 0.034807 0.000420 0.232389
v 0.033534 -0.021223 0.232389
v 0.027167 -0.019950 0.232389
v 0.033534 -0.002125 0.004502
v 0.037353 -0.011035 0.004502
v 0.036081 -0.017403 0.227280
v 0.033534 -0.019950 0.004502
f 167 177 178 
f 161 162 163 
f 164 160 165 
f 162 161 166 
f 164 165 166 
f 161 163 167 
f 163 162 168 
f 160 163 168 
f 163 160 169 
f 160 164 169 
f 166 161 170 
f 161 167 170 
f 167 163 171 
f 163 169 171 
f 165 160 172 
f 160 168 172 
f 168 165 172 
f 164 166 173 
f 166 170 173 
f 170 164 173 
f 165 162 174 
f 162 166 174 
f 166 165 174 
f 162 165 175 
f 168 162 175 
f 165 168 175 
f 167 171 176 
f 171 169 176 
f 169 164 177 
f 167 176 177 
f 176 169 177 
f 164 170 178 
f 170 167 178 
f 177 164 178 
o convex_8
v -0.033959 0.020798 0.232389
v -0.037779 0.000426 0.004502
v -0.033959 0.000426 0.004502
v -0.039053 0.000426 0.232389
v -0.027594 0.019524 0.232389
v -0.027594 0.020798 0.004502
v -0.035232 0.016977 0.004502
v -0.033959 0.000426 0.232389
v -0.039053 0.008067 0.227280
v -0.037779 0.009340 0.004502
v -0.032688 0.020798 0.004502
v -0.037779 0.013156 0.232389
v -0.027594 0.019524 0.004502
v -0.027594 0.020798 0.232389
v -0.033959 0.019524 0.004502
f 189 185 193 
f 180 181 182 
f 179 182 183 
f 181 180 184 
f 184 180 185 
f 182 181 186 
f 183 182 186 
f 181 183 186 
f 180 182 187 
f 185 180 188 
f 180 187 188 
f 179 184 189 
f 184 185 189 
f 182 179 190 
f 179 185 190 
f 187 182 190 
f 185 188 190 
f 188 187 190 
f 183 181 191 
f 181 184 191 
f 184 183 191 
f 179 183 192 
f 183 184 192 
f 184 179 192 
f 185 179 193 
f 179 189 193 
