# https://github.com/mikedh/trimesh
v 0.02828536 0.02805812 0.05644725
v 0.02827050 0.02822526 0.05600000
v 0.02830821 0.02750000 0.05667776
v 0.02841412 0.02799525 0.05600000
v 0.02842280 0.02750000 0.05648221
v 0.02850000 0.02750000 0.05600000
v 0.02848295 0.02750000 0.05624766
v 0.02774255 0.02750000 0.05698410
v 0.02807527 0.02750000 0.05687378
v 0.02750000 0.02820901 0.05677993
v 0.02750000 0.02791855 0.05694262
v 0.02750000 0.02750000 0.05700000
v 0.02750000 0.02838203 0.05656709
v 0.02750000 0.02847226 0.05630860
v 0.02809976 0.02836353 0.05600000
v 0.02782201 0.02846989 0.05600000
v 0.02750000 0.02850000 0.05600000
v 0.02750000 -0.02837276 0.05658467
v 0.02823258 -0.02805429 0.05649540
v 0.02812875 -0.02833927 0.05600000
v 0.02784830 -0.02846329 0.05600000
v 0.02750000 -0.02846882 0.05632015
v 0.02750000 -0.02782848 0.05696868
v 0.02750000 -0.02815025 0.05682824
v 0.02802787 -0.02750000 0.05690125
v 0.02823448 -0.02750000 0.05675969
v 0.02776262 -0.02750000 0.05698055
v 0.02838826 -0.02750000 0.05655087
v 0.02836036 -0.02810335 0.05600000
v 0.02847988 -0.02750000 0.05627367
v 0.02750000 -0.02850000 0.05600000
v 0.02846281 -0.02784894 0.05600000
v 0.02850000 -0.02750000 0.05600000
v 0.02750564 -0.02750000 0.05700000
v 0.02787218 0.02750054 0.00004718
v 0.02750390 0.02788694 0.00004832
v 0.02826608 0.02823073 0.00100000
v 0.02841251 0.02799477 0.00099859
v 0.02806878 0.02819618 0.00039040
v 0.02800137 0.02840841 0.00100000
v 0.02750000 0.02848271 0.00074713
v 0.02750000 0.02837258 0.00041434
v 0.02750000 0.02821552 0.00022612
v 0.02750292 0.02750000 0.00000000
v 0.02750000 0.02850000 0.00100000
v 0.02850000 0.02750000 0.00100000
v 0.02843697 0.02750000 0.00056263
v 0.02824573 0.02750000 0.00025796
v 0.02848818 0.02771685 0.00099877
v -0.02801924 0.02821709 0.05657090
v -0.02812875 0.02833927 0.05600000
v -0.02750000 0.02848090 0.05627752
v -0.02782632 0.02846968 0.05600000
v -0.02750000 0.02840245 0.05652103
v -0.02750000 0.02850000 0.05600000
v -0.02750282 0.02750000 0.05700000
v -0.02750000 0.02796106 0.05692861
v -0.02750226 0.02822140 0.05676737
v -0.02821080 0.02750000 0.05678119
v -0.02791869 0.02750000 0.05694228
v -0.02842157 0.02750000 0.05648563
v -0.02836036 0.02810335 0.05600000
v -0.02846281 0.02784894 0.05600000
v -0.02850000 0.02750000 0.05600000
v -0.02802701 -0.02815317 0.05662625
v -0.02827050 -0.02822526 0.05600000
v -0.02835453 -0.02750000 0.05661212
v -0.02838504 -0.02806202 0.05600000
v -0.02847028 -0.02750000 0.05630547
v -0.02848441 -0.02774965 0.05600000
v -0.02774171 -0.02750000 0.05698415
v -0.02796722 -0.02750000 0.05692963
v -0.02817372 -0.02750000 0.05681083
v -0.02750000 -0.02830656 0.05667454
v -0.02750000 -0.02784396 0.05696327
v -0.02750000 -0.02809097 0.05686982
v -0.02750000 -0.02846173 0.05635068
v -0.02809976 -0.02836353 0.05600000
v -0.02750000 -0.02850000 0.05600000
v -0.02787467 -0.02845801 0.05600000
v -0.02750000 -0.02750000 0.05700000
v -0.02850000 -0.02750000 0.05600000
v 0.02805834 -0.02750107 0.00011756
v 0.02750000 -0.02810390 0.00013655
v 0.02750000 -0.02750000 0.00000000
v 0.02750000 -0.02784881 0.00003453
v 0.02804468 -0.02838891 0.00100000
v 0.02804425 -0.02817998 0.00043306
v 0.02775058 -0.02848367 0.00100000
v 0.02750000 -0.02836131 0.00040387
v 0.02750000 -0.02846307 0.00064512
v 0.02850000 -0.02750000 0.00100000
v 0.02842857 -0.02796196 0.00100000
v 0.02843002 -0.02750000 0.00055818
v 0.02828208 -0.02750000 0.00028843
v 0.02777798 -0.02750000 0.00002118
v 0.02750000 -0.02850000 0.00100000
v 0.02828741 -0.02820226 0.00099916
v -0.02750000 0.02784881 0.00003453
v -0.02750000 0.02812500 0.00015140
v -0.02750000 0.02750000 0.00000000
v -0.02805935 0.02838329 0.00100000
v -0.02783815 0.02846790 0.00100000
v -0.02794226 0.02824866 0.00039048
v -0.02750000 0.02845689 0.00061565
v -0.02846067 0.02750000 0.00066300
v -0.02842857 0.02796196 0.00100000
v -0.02835251 0.02750000 0.00038062
v -0.02819418 0.02750000 0.00020466
v -0.02793285 0.02750263 0.00006095
v -0.02750000 0.02829968 0.00031446
v -0.02850000 0.02750000 0.00100000
v -0.02750000 0.02850000 0.00100000
v -0.02828741 0.02820226 0.00099916
v -0.02783978 -0.02750054 0.00003602
v -0.02817513 -0.02750000 0.00018948
v -0.02830741 -0.02817857 0.00099718
v -0.02843431 -0.02795527 0.00100000
v -0.02806822 -0.02812482 0.00035482
v -0.02750000 -0.02850000 0.00100000
v -0.02750000 -0.02842119 0.00051145
v -0.02750000 -0.02828177 0.00029044
v -0.02750000 -0.02803518 0.00010571
v -0.02750195 -0.02773512 0.00001423
v -0.02750292 -0.02750000 0.00000000
v -0.02781670 -0.02846768 0.00099603
v -0.02850000 -0.02750000 0.00100000
v -0.02843697 -0.02750000 0.00056263
v -0.02832161 -0.02750000 0.00033398
v -0.02808863 -0.02836975 0.00100000
f 85 125 101
f 101 44 85
f 32 93 92
f 54 14 52
f 99 36 101
f 100 36 99
f 110 99 101
f 40 16 15
f 6 46 49
f 94 95 48
f 30 32 33
f 30 7 5
f 25 26 9
f 66 117 130
f 130 78 66
f 52 50 54
f 115 125 124
f 15 2 40
f 16 17 14
f 48 35 36
f 36 35 44
f 85 124 125
f 35 48 83
f 94 48 47
f 31 97 89
f 30 33 7
f 5 6 1
f 93 29 98
f 34 8 12
f 8 27 9
f 32 92 33
f 18 22 21
f 31 21 22
f 61 50 62
f 119 130 117
f 82 127 70
f 24 74 18
f 23 34 81
f 57 61 59
f 57 58 50
f 84 83 88
f 123 122 119
f 119 129 116
f 116 115 119
f 37 40 2
f 12 8 9
f 41 45 40
f 111 42 43
f 40 37 39
f 45 16 40
f 44 101 36
f 101 115 110
f 47 46 94
f 7 33 6
f 6 49 38
f 38 4 6
f 48 39 47
f 89 91 87
f 97 91 89
f 30 5 28
f 7 6 5
f 28 5 3
f 19 20 29
f 92 93 94
f 21 20 18
f 62 63 61
f 62 50 51
f 118 117 68
f 77 18 74
f 81 71 75
f 50 58 54
f 50 61 57
f 87 90 88
f 88 90 84
f 84 86 83
f 118 119 117
f 45 17 16
f 37 38 39
f 55 113 53
f 111 100 99
f 127 112 106
f 43 36 100
f 40 42 41
f 124 85 86
f 43 42 39
f 47 39 38
f 39 48 36
f 98 87 88
f 89 21 31
f 1 3 5
f 32 29 93
f 27 25 9
f 24 76 74
f 76 75 74
f 76 24 75
f 64 61 63
f 62 107 63
f 67 66 65
f 82 69 64
f 61 64 69
f 22 18 77
f 23 81 75
f 8 34 27
f 24 23 75
f 115 124 123
f 115 123 119
f 122 84 90
f 119 126 130
f 116 110 115
f 71 81 56
f 14 17 55
f 14 55 52
f 15 16 14
f 38 46 47
f 38 49 46
f 41 113 45
f 55 53 52
f 105 113 41
f 108 99 110
f 104 108 107
f 127 128 118
f 116 129 109
f 96 83 86
f 39 36 43
f 115 101 125
f 80 126 79
f 87 98 20
f 91 90 87
f 6 4 1
f 93 98 88
f 25 28 26
f 83 93 88
f 30 29 32
f 19 18 20
f 63 112 64
f 107 112 63
f 66 67 68
f 66 78 65
f 73 67 65
f 126 80 78
f 130 126 78
f 79 77 80
f 74 75 65
f 86 123 124
f 86 84 123
f 122 90 121
f 120 126 121
f 126 119 121
f 110 116 109
f 11 12 9
f 54 58 13
f 54 13 14
f 15 1 2
f 51 114 62
f 103 53 113
f 111 99 104
f 40 39 42
f 42 111 105
f 105 111 104
f 95 94 83
f 35 83 96
f 96 44 35
f 96 85 44
f 86 85 96
f 22 79 31
f 28 19 30
f 19 29 30
f 4 2 1
f 20 98 29
f 25 19 28
f 18 19 25
f 128 127 106
f 57 60 56
f 118 68 70
f 69 82 70
f 72 60 73
f 65 75 73
f 22 77 79
f 65 78 77
f 24 18 25
f 51 50 52
f 120 121 91
f 91 121 90
f 119 118 128
f 128 129 119
f 108 110 109
f 11 57 56
f 11 9 10
f 13 58 10
f 13 15 14
f 10 57 11
f 10 1 15
f 107 62 114
f 105 41 42
f 105 104 103
f 104 99 108
f 20 21 87
f 1 10 9
f 9 3 1
f 26 3 9
f 94 93 83
f 107 106 112
f 57 59 60
f 66 68 117
f 70 68 67
f 127 118 70
f 67 59 61
f 73 59 67
f 65 77 74
f 23 25 27
f 27 34 23
f 75 72 73
f 72 75 71
f 102 51 53
f 103 102 53
f 122 121 119
f 128 106 108
f 2 38 37
f 2 4 38
f 103 113 105
f 24 25 23
f 72 71 60
f 52 53 51
f 104 107 114
f 102 104 114
f 107 108 106
f 129 128 108
f 10 15 13
f 80 77 78
f 51 102 114
f 70 67 69
f 104 102 103
f 127 82 112
f 112 82 64
f 120 97 31
f 31 79 120
f 92 46 33
f 33 46 6
f 55 17 45
f 45 113 55
f 122 123 84
f 26 28 3
f 95 83 48
f 97 120 91
f 56 81 34
f 56 34 12
f 100 111 43
f 46 92 94
f 79 126 120
f 21 89 87
f 69 67 61
f 12 11 56
f 58 57 10
f 60 59 73
f 71 56 60
f 108 109 129

