# https://github.com/mikedh/trimesh
v -0.03300964 -0.02755439 0.00258525
v -0.03012752 -0.03250413 0.00375787
v -0.04545575 -0.02052328 0.00408105
v -0.03665166 -0.03407711 0.00685469
v -0.03721507 -0.03677422 0.01404443
v -0.04233290 -0.03222520 0.01383212
v -0.01644953 -0.02849192 0.00415090
v -0.02791422 -0.02033588 0.00127289
v -0.01177872 -0.01991127 0.00206110
v -0.02664036 -0.03620817 0.00629789
v -0.03173579 -0.03850596 0.01383212
v -0.01984647 -0.03386920 0.00725342
v -0.02664036 -0.03805854 0.01213364
v -0.02107356 -0.03570762 0.01213364
v -0.04943602 -0.02016820 0.00703822
v -0.05152716 -0.01863741 0.01043517
v -0.05140011 -0.01354200 0.00703822
v -0.05294413 -0.01354200 0.01383212
v -0.04385429 -0.01354200 0.00270150
v -0.02833884 -0.00844658 0.00083356
v -0.04743246 -0.00674810 0.00509854
v -0.04517576 -0.00177439 0.00703822
v -0.04971263 -0.00403204 0.01685752
v -0.03513273 -0.00165268 0.00205054
v -0.03730280 0.00174426 0.00387049
v -0.04553820 0.00004579 0.01553059
v -0.01729876 -0.01184352 0.00059290
v -0.05249130 -0.00761354 0.05459547
v -0.05110870 -0.02203436 0.05459547
v -0.02494189 -0.03814945 0.07667562
v -0.02085746 -0.03609933 0.04440463
v -0.05349493 -0.01184352 0.07667562
v -0.05357068 -0.01524047 0.06648478
v -0.04945721 -0.00335116 0.06818325
v -0.04227776 -0.03378771 0.10852199
v -0.03768044 -0.03763317 0.14631301
v -0.03444525 -0.03892020 0.15225767
v -0.02067219 -0.03562214 0.10554966
v -0.02983959 -0.03928106 0.10894661
v -0.04956788 -0.02373283 0.13612217
v -0.05216704 -0.01877553 0.14291607
v -0.04433611 -0.03098154 0.15013457
v -0.04030451 0.00264893 0.13697141
v -0.05214747 -0.01569027 0.16202389
v -0.05197864 -0.01046992 0.15242986
v -0.04963882 -0.00592338 0.15310690
v -0.04036940 -0.03487022 0.16075003
v -0.03256811 -0.03787500 0.16565649
v -0.03502943 -0.03346479 0.17077686
v -0.04385415 -0.02705905 0.16901258
v -0.04314235 -0.02139323 0.17339323
v -0.03088655 -0.03052139 0.17337211
v -0.02854236 -0.03859828 0.15920429
v -0.02293466 -0.03616564 0.15841464
v -0.02325868 -0.03502562 0.16626043
v -0.02918807 -0.03371201 0.17071253
v -0.04900499 -0.00759827 0.16674504
v -0.04991051 -0.01777207 0.16819364
v -0.04534521 -0.01050768 0.17364168
v -0.04613128 -0.00335116 0.16499622
v -0.03173257 0.00181749 0.17494875
v -0.03681206 0.00225575 0.17090524
v -0.03878378 -0.01886208 0.17531773
v -0.04275608 -0.01290507 0.17553276
v -0.02494189 0.00174426 0.17709847
v 0.00223368 0.03684237 0.01043517
v -0.03173579 0.01132093 0.07497714
v -0.01984647 0.01741761 0.15990080
v -0.01208925 0.02188744 0.16818085
v 0.02788740 0.00768892 0.00385245
v 0.03110772 0.00426712 0.01043517
v 0.00902757 -0.01405434 0.07158020
v 0.03202825 0.00423173 0.05335232
v 0.02470809 -0.00161375 0.12593133
v 0.01412606 -0.00814479 0.16924240
v 0.02091688 -0.00411669 0.16329774
v 0.02887529 0.00264449 0.16798384
v 0.01072605 -0.00504963 0.17611441
v 0.00902757 -0.00365853 0.17693736
v 0.01412299 0.00429197 0.17658710
v 0.02940924 0.01023663 0.17380236
v 0.01242451 0.01533205 0.00059380
v 0.00095982 0.01915361 0.00068776
v 0.02112919 0.00811354 0.00218297
v -0.00139694 0.02740312 0.00253436
v 0.00563063 0.03832617 0.00703822
v 0.01327375 0.03061831 0.00190823
v 0.03129152 0.01703052 0.00389477
v 0.03149454 0.00645050 0.00685579
v 0.03575315 0.01108586 0.01722906
v 0.03508070 0.01575667 0.00788746
v 0.02940924 0.02552288 0.00493970
v 0.02089222 0.03698719 0.00706721
v 0.03479772 0.02212594 0.01213364
v 0.00732910 0.03620036 0.00377734
v 0.01670079 0.03529106 0.00384958
v 0.01412299 0.03942977 0.00652549
v 0.01369837 0.04115557 0.01298288
v 0.03637976 0.01702290 0.01468136
v 0.03565155 0.00853816 0.05544471
v 0.00902757 0.04126983 0.03081685
v 0.02022820 0.03984625 0.01627367
v 0.00519180 0.03938229 0.03166608
v 0.01412299 0.04172377 0.03081685
v 0.02469888 0.03616884 0.01553059
v 0.03782406 0.01533205 0.15310690
v 0.03735855 0.01872899 0.13612217
v 0.03600720 0.02180077 0.13357446
v 0.00756119 0.03987460 0.09535882
v 0.01412299 0.04090638 0.13951913
v 0.00563063 0.03686097 0.15650386
v 0.02006765 0.04005066 0.13951913
v 0.02452619 0.03684081 0.13951913
v -0.00152388 0.02689613 0.17272847
v 0.03544229 0.00779605 0.15310690
v 0.03749408 0.01193510 0.15310690
v 0.03566040 0.02136641 0.15735309
v 0.03554267 0.01886835 0.16499621
v 0.03537886 0.00959970 0.16552699
v 0.03301103 0.01902985 0.16919449
v 0.02341568 0.02634801 0.17278913
v 0.02261326 0.03391237 0.16847422
v 0.00835402 0.03816986 0.16244851
v 0.01007958 0.03673184 0.16876918
v 0.01347247 0.03897036 0.16577232
v 0.01991176 0.03815963 0.16416783
v 0.01412299 0.03061830 0.17410271
v 0.02669508 0.03316011 0.15990080
v 0.00371984 0.01787976 0.17661446
v -0.00164635 0.02298963 0.17546252
f 18 33 32
f 5 36 35
f 4 11 5
f 71 72 14
f 32 28 18
f 37 36 5
f 40 35 42
f 39 53 37
f 28 23 18
f 20 8 19
f 11 13 39
f 100 115 73
f 72 74 76
f 10 11 4
f 71 14 12
f 12 14 13
f 24 19 21
f 19 3 17
f 17 21 19
f 18 17 16
f 5 35 6
f 29 6 35
f 17 3 15
f 79 63 52
f 79 52 78
f 78 75 77
f 61 65 130
f 44 32 33
f 33 41 44
f 20 19 24
f 82 27 20
f 70 84 88
f 28 32 45
f 45 46 28
f 39 37 11
f 77 76 74
f 75 76 77
f 71 89 90
f 89 71 12
f 34 67 26
f 20 27 8
f 12 7 89
f 10 12 13
f 10 7 12
f 5 6 4
f 2 4 3
f 23 21 18
f 18 21 17
f 22 21 23
f 8 3 19
f 18 16 33
f 16 29 33
f 41 40 42
f 29 16 6
f 40 29 35
f 52 56 78
f 49 56 52
f 65 61 64
f 32 44 45
f 57 45 44
f 58 57 44
f 9 8 27
f 89 70 88
f 82 84 27
f 84 9 27
f 43 67 34
f 72 76 38
f 5 11 37
f 115 116 119
f 54 38 76
f 74 73 115
f 74 115 77
f 72 73 74
f 56 55 78
f 78 55 75
f 54 76 75
f 75 55 54
f 100 90 116
f 115 100 116
f 90 106 116
f 89 91 90
f 7 10 2
f 13 11 10
f 15 3 4
f 4 6 15
f 2 3 1
f 25 24 21
f 17 15 16
f 3 8 1
f 29 41 33
f 41 42 47
f 41 29 40
f 79 65 63
f 119 106 118
f 119 116 106
f 128 117 113
f 118 106 117
f 109 67 111
f 123 111 68
f 69 123 68
f 65 64 63
f 129 127 130
f 59 58 51
f 58 59 57
f 58 44 41
f 89 88 91
f 23 34 26
f 23 26 22
f 46 43 34
f 57 46 45
f 48 37 53
f 30 39 13
f 30 53 39
f 112 104 110
f 20 24 83
f 72 71 73
f 73 71 100
f 7 70 89
f 9 70 7
f 84 70 9
f 4 2 10
f 6 16 15
f 22 25 21
f 95 97 96
f 86 97 95
f 37 48 47
f 51 52 63
f 81 79 78
f 119 118 120
f 120 81 119
f 106 107 108
f 108 117 106
f 108 113 117
f 67 43 68
f 68 111 67
f 57 59 61
f 130 114 61
f 69 124 123
f 62 57 61
f 124 130 127
f 114 130 124
f 61 114 62
f 64 61 59
f 126 128 113
f 81 121 80
f 94 99 91
f 92 94 91
f 69 68 60
f 57 60 46
f 72 38 31
f 78 77 119
f 47 48 49
f 53 55 48
f 53 54 55
f 13 14 31
f 31 30 13
f 101 110 104
f 109 110 101
f 103 109 101
f 93 97 98
f 97 86 98
f 82 20 83
f 9 2 1
f 1 8 9
f 22 86 25
f 66 98 86
f 58 41 47
f 47 50 58
f 47 42 35
f 47 35 36
f 64 51 63
f 80 79 81
f 129 80 127
f 80 121 127
f 129 79 80
f 107 94 108
f 126 110 125
f 112 110 126
f 128 126 122
f 108 94 105
f 108 105 113
f 93 94 92
f 67 109 103
f 103 66 26
f 26 67 103
f 51 64 59
f 124 127 125
f 65 129 130
f 118 122 120
f 117 128 118
f 125 127 122
f 122 126 125
f 34 23 28
f 28 46 34
f 43 60 68
f 31 38 30
f 30 38 54
f 54 53 30
f 119 77 115
f 104 98 101
f 66 101 98
f 103 101 66
f 93 96 97
f 93 105 94
f 102 113 105
f 113 102 112
f 91 88 92
f 86 22 26
f 86 26 66
f 84 82 87
f 87 88 84
f 85 83 24
f 25 85 24
f 90 100 71
f 25 86 85
f 36 37 47
f 51 49 52
f 129 65 79
f 99 106 90
f 122 118 128
f 125 123 124
f 62 114 69
f 60 57 62
f 120 121 81
f 122 127 121
f 62 69 60
f 81 78 119
f 49 48 56
f 49 51 50
f 50 47 49
f 31 14 72
f 102 104 112
f 88 87 92
f 93 92 96
f 95 96 87
f 2 9 7
f 86 95 85
f 58 50 51
f 94 107 99
f 99 107 106
f 110 123 125
f 91 99 90
f 60 43 46
f 56 48 55
f 105 93 102
f 126 113 112
f 102 93 98
f 87 96 92
f 109 123 110
f 109 111 123
f 69 114 124
f 120 122 121
f 102 98 104
f 83 85 87
f 87 85 95
f 82 83 87

